<svg width="1440" height="374" viewBox="0 0 1440 374" fill="none" xmlns="http://www.w3.org/2000/svg">
<path d="M263.375 174.718C157.217 191.999 63.9262 182.457 0 137.404L7.46523e-05 191.679C84.8094 262.368 158.188 294.292 282.129 310.404C397.916 319.733 476.523 322.407 582.197 269.699C693.76 213.362 848.018 128.076 905.912 117.9C963.805 107.723 991.756 95.7178 1147.27 159.453C1302.78 223.189 1335.53 254.825 1440 290.052V226.449C1370.69 226.449 1139.12 100.939 977.667 44.9683C977.667 44.9683 751.498 -53.8395 560.997 44.9683C370.495 143.776 357.146 159.454 263.375 174.718Z" stroke="#2E4A9B" stroke-opacity="0.3"/>
<path d="M191.619 323.332C112.718 309.306 70.419 294.71 0 252.097V280.93C53.9489 314.797 92.3354 332.33 191.619 358.102C287.796 379.616 347.308 374.222 454.994 359.798C546.343 344.324 582.185 327.511 721.631 257.185C797.77 224.965 862.739 208.408 958.913 213.935C1005.82 217.172 1035.87 224.427 1104.87 259.729L1151.35 283.475L1250.83 332.661C1324.75 367.859 1374.73 378.029 1440 370.822V301.283C1325.84 296.195 1314.07 286.812 1200.27 231.744C1131.78 198.07 1146.85 204.194 1071.44 168.989C976.036 125.739 926.402 124.26 879.819 131.676C824.271 140.518 727.61 193.017 677.599 226.656C569.748 295.195 507.679 315.615 406.07 330.965C330.417 339.527 283.281 337.594 191.619 323.332Z" stroke="#2E4A9B" stroke-opacity="0.3"/>
</svg>
