<svg width="100" height="100" viewBox="0 0 100 100" fill="none" xmlns="http://www.w3.org/2000/svg">
<path d="M71 13H15C12.2386 13 10 15.2386 10 18V21C10 23.7614 12.2386 26 15 26H71C73.7614 26 76 23.7614 76 21V18C76 15.2386 73.7614 13 71 13Z" fill="#D4EEF8"/>
<path d="M48 65H15C12.2386 65 10 67.2386 10 70V73C10 75.7614 12.2386 78 15 78H48C50.7614 78 53 75.7614 53 73V70C53 67.2386 50.7614 65 48 65Z" fill="#D4EEF8"/>
<path d="M64 39H15C12.2386 39 10 41.2386 10 44V47C10 49.7614 12.2386 52 15 52H64C66.7614 52 69 49.7614 69 47V44C69 41.2386 66.7614 39 64 39Z" fill="#D4EEF8"/>
<path d="M60.4 78.1469C60.4 84.0303 65.325 88.8 71.4 88.8C77.4749 88.8 82.4 84.0303 82.4 78.1469C82.4 78.1469 75.8 80.2775 71.4 78.1469C67 76.0163 60.4 78.1469 60.4 78.1469Z" fill="#D4EEF8"/>
<path d="M15 14C12.7909 14 11 15.7909 11 18V21C11 23.2091 12.7909 25 15 25H85C87.2091 25 89 23.2091 89 21V18C89 15.7909 87.2091 14 85 14H70C69.4477 14 69 13.5523 69 13C69 12.4477 69.4477 12 70 12H85C88.3137 12 91 14.6863 91 18V21C91 24.3137 88.3137 27 85 27H15C11.6863 27 9 24.3137 9 21V18C9 14.6863 11.6863 12 15 12H60C60.5523 12 61 12.4477 61 13C61 13.5523 60.5523 14 60 14H15Z" fill="#192D68"/>
<path fill-rule="evenodd" clip-rule="evenodd" d="M9 44C9 40.6863 11.6863 38 15 38H85C88.3137 38 91 40.6863 91 44V47C91 50.3137 88.3137 53 85 53H15C11.6863 53 9 50.3137 9 47V44ZM15 40C12.7909 40 11 41.7909 11 44V47C11 49.2091 12.7909 51 15 51H85C87.2091 51 89 49.2091 89 47V44C89 41.7909 87.2091 40 85 40H15Z" fill="#192D68"/>
<path d="M72 58L72.5914 57.1936C72.2394 56.9355 71.7606 56.9355 71.4086 57.1936L72 58Z" fill="#192D68"/>
<path fill-rule="evenodd" clip-rule="evenodd" d="M78.7682 63.1598C78.9949 63.4319 79.2223 63.7125 79.4489 64.0013C79.4658 64.0004 79.4829 64 79.5 64H85C88.3137 64 91 66.6863 91 70V73C91 76.3137 88.3137 79 85 79H84.9621C84.4514 85.7123 78.843 91 72 91C65.1567 91 59.5482 85.7119 59.0378 78.9993C59.0253 78.9998 59.0127 79 59 79H30C29.4477 79 29 78.5523 29 78C29 77.4477 29.4477 77 30 77H59C59.0099 77 59.0199 77.0002 59.0297 77.0004C59.276 72.8495 61.0207 69.0838 63.0952 66H15C12.7909 66 11 67.7909 11 70V73C11 75.2091 12.7909 77 15 77H20C20.5523 77 21 77.4477 21 78C21 78.5523 20.5523 79 20 79H15C11.6863 79 9 76.3137 9 73V70C9 66.6863 11.6863 64 15 64H64.5C64.5171 64 64.5342 64.0004 64.5511 64.0013C64.7777 63.7125 65.0051 63.4319 65.2318 63.1598C66.7712 61.3126 68.3083 59.8269 69.4606 58.8026C70.0375 58.2899 70.5196 57.8912 70.8597 57.6191C71.0298 57.4831 71.1645 57.3785 71.2579 57.3071C71.3046 57.2714 71.341 57.2439 71.3664 57.225L71.3961 57.2029L71.4045 57.1966L71.4071 57.1947L71.4086 57.1936C71.4086 57.1936 71.4086 57.1936 72 58C72.5914 57.1936 72.5914 57.1936 72.5914 57.1936L72.5929 57.1947L72.5955 57.1966L72.6039 57.2029L72.6336 57.225C72.659 57.2439 72.6954 57.2714 72.7421 57.3071C72.8355 57.3785 72.9702 57.4831 73.1403 57.6191C73.4804 57.8912 73.9625 58.2899 74.5394 58.8026C75.6917 59.8269 77.2288 61.3126 78.7682 63.1598ZM84.9702 77C84.7239 72.8493 82.9792 69.0837 80.9048 66H85C87.2091 66 89 67.7909 89 70V73C89 75.2091 87.2091 77 85 77H84.9702ZM70.7894 60.2974C71.2774 59.8636 71.6918 59.5177 72 59.2686C72.3082 59.5177 72.7226 59.8636 73.2106 60.2974C74.3083 61.2731 75.7712 62.6875 77.2318 64.4402C80.0355 67.8047 82.7322 72.2972 82.9813 77.2571C82.8547 77.2914 82.713 77.3285 82.5575 77.3674C81.8363 77.5476 80.8269 77.7639 79.676 77.9077C77.3354 78.2003 74.5784 78.1712 72.4472 77.1056C69.7784 75.7711 66.5354 75.8003 64.076 76.1077C62.8807 76.2571 61.8307 76.4776 61.06 76.667C61.4827 71.9413 64.0761 67.6707 66.7682 64.4402C68.2288 62.6875 69.6917 61.2731 70.7894 60.2974ZM61.0246 78.7413C61.4059 84.4706 66.1742 89 72 89C77.622 89 82.2592 84.782 82.9194 79.3381C82.1506 79.5263 81.1086 79.7442 79.924 79.8923C77.4646 80.1997 74.2216 80.2289 71.5528 78.8944C69.4216 77.8288 66.6646 77.7997 64.324 78.0923C63.1731 78.2361 62.1637 78.4524 61.4425 78.6326C61.2894 78.6709 61.1496 78.7075 61.0246 78.7413Z" fill="#192D68"/>
</svg>
