<svg width="99" height="100" viewBox="0 0 99 100" fill="none" xmlns="http://www.w3.org/2000/svg">
<path d="M51.6095 44.5633C51.6095 44.011 52.0528 43.5633 52.5995 43.5633H56.703V50.7662H62.8152V43.5633H66.9186C67.4654 43.5633 67.9086 44.011 67.9086 44.5633V59.0271C67.9086 59.5793 67.4654 60.0271 66.9186 60.0271H52.5995C52.0528 60.0271 51.6095 59.5793 51.6095 59.0271V44.5633Z" fill="#192D68"/>
<path d="M51.6095 65.143C51.6095 64.5907 52.0528 64.143 52.5995 64.143H56.703V71.3459H62.8152V64.143H66.9186C67.4654 64.143 67.9086 64.5907 67.9086 65.143V79.6068C67.9086 80.1591 67.4654 80.6068 66.9186 80.6068H52.5995C52.0528 80.6068 51.6095 80.1591 51.6095 79.6068V65.143Z" fill="#D4EEF8"/>
<path d="M31.2356 44.5633C31.2356 44.011 31.6788 43.5633 32.2256 43.5633H36.3291V50.7662H42.4413V43.5633H46.5447C47.0915 43.5633 47.5347 44.011 47.5347 44.5633V59.0271C47.5347 59.5793 47.0915 60.0271 46.5447 60.0271H32.2256C31.6788 60.0271 31.2356 59.5793 31.2356 59.0271V44.5633Z" fill="#D4EEF8"/>
<path d="M31.2356 65.143C31.2356 64.5907 31.6788 64.143 32.2256 64.143H36.3291V71.3459H42.4413V64.143H46.5447C47.0915 64.143 47.5347 64.5907 47.5347 65.143V79.6068C47.5347 80.1591 47.0915 80.6068 46.5447 80.6068H32.2256C31.6788 80.6068 31.2356 80.1591 31.2356 79.6068V65.143Z" fill="#192D68"/>
<path d="M51.3811 14.4417C50.2456 13.8528 48.8987 13.8528 47.7632 14.4417L10.976 33.5233C10.0032 34.0279 9.61957 35.2335 10.1191 36.2161C10.6186 37.1986 11.8122 37.5861 12.7849 37.0816L49.5722 18L86.3594 37.0816C87.3322 37.5861 88.5257 37.1986 89.0253 36.2161C89.5248 35.2335 89.1412 34.0279 88.1684 33.5233L51.3811 14.4417Z" fill="#192D68"/>
<path d="M49.1132 26.4127C49.4007 26.2607 49.7436 26.2607 50.0311 26.4127L76.5745 40.4394C76.901 40.6119 77.1056 40.9533 77.1056 41.3255V51.5239C77.1056 52.0762 77.5489 52.5239 78.0956 52.5239C78.6424 52.5239 79.0856 52.0762 79.0856 51.5239V41.3255C79.0856 40.209 78.4718 39.1848 77.4924 38.6673L50.9489 24.6405C50.0865 24.1848 49.0578 24.1848 48.1954 24.6405L21.6519 38.6673C20.6725 39.1848 20.0587 40.209 20.0587 41.3255V83.7517C20.0587 85.4086 21.3884 86.7517 23.0287 86.7517H30.7263C31.273 86.7517 31.7163 86.304 31.7163 85.7517C31.7163 85.1994 31.273 84.7517 30.7263 84.7517H23.0287C22.4819 84.7517 22.0387 84.304 22.0387 83.7517V41.3255C22.0387 40.9533 22.2433 40.6119 22.5698 40.4394L49.1132 26.4127Z" fill="#192D68"/>
<path d="M79.0856 57.9691C79.0856 57.4168 78.6424 56.9691 78.0956 56.9691C77.5489 56.9691 77.1056 57.4168 77.1056 57.9691V83.7517C77.1056 84.304 76.6624 84.7517 76.1156 84.7517H37.3478C36.801 84.7517 36.3578 85.1994 36.3578 85.7517C36.3578 86.304 36.801 86.7517 37.3478 86.7517H76.1156C77.7559 86.7517 79.0856 85.4086 79.0856 83.7517V57.9691Z" fill="#192D68"/>
</svg>
