<svg width="100" height="100" viewBox="0 0 100 100" fill="none" xmlns="http://www.w3.org/2000/svg">
<path d="M34 51.954V62.2366C34 63.3411 34.8954 64.2366 36 64.2366H36.8807C37.9853 64.2366 38.8807 63.3411 38.8807 62.2366V48.6411L34 51.954Z" fill="#192D68"/>
<path d="M40.8331 47.3159V62.2366C40.8331 63.3412 41.7286 64.2366 42.8331 64.2366H43.7139C44.8184 64.2366 45.7139 63.3412 45.7139 62.2366V47.4321L42.3459 46.289L40.8331 47.3159Z" fill="#192D68"/>
<path d="M47.6662 48.0947V62.2367C47.6662 63.3413 48.5616 64.2367 49.6662 64.2367H50.5469C51.6515 64.2367 52.5469 63.3413 52.5469 62.2367V47.5644L50.3991 49.0223L47.6662 48.0947Z" fill="#192D68"/>
<path d="M54.4991 46.2391V62.2366C54.4991 63.3411 55.3945 64.2366 56.4991 64.2366H57.3798C57.6326 64.2366 57.8744 64.1897 58.097 64.1042L57.4757 63.098C57.4339 63.0303 57.4387 62.9456 57.488 62.8825L59.1416 60.7652C59.3318 60.5216 59.331 60.1893 59.1395 59.9466L57.4889 57.854C57.4391 57.7909 57.434 57.7058 57.476 57.6378L58.2022 56.4618C58.2434 56.3951 58.3221 56.3574 58.4035 56.3654L59.3798 56.4614V42.9262L54.4991 46.2391Z" fill="#192D68"/>
<path d="M61.3323 41.6009V56.6384C61.5875 56.6127 61.8144 56.4605 61.9211 56.2323L62.9838 53.9592C63.0171 53.888 63.0918 53.8421 63.1742 53.8421H64.73C64.8124 53.8421 64.8871 53.888 64.9204 53.9592L65.9831 56.2323C66.0349 56.3431 66.115 56.436 66.213 56.5052V38.288L61.3323 41.6009Z" fill="#192D68"/>
<path fill-rule="evenodd" clip-rule="evenodd" d="M67.0402 32.4384C67.3504 32.8953 67.2314 33.5172 66.7745 33.8274L50.668 44.7602C50.4087 44.9363 50.0818 44.9805 49.785 44.8798L42.2031 42.3065L34.5616 47.4934C34.1047 47.8036 33.4828 47.6846 33.1726 47.2277C32.8624 46.7707 32.9814 46.1488 33.4384 45.8387L41.4916 40.3722C41.7509 40.1962 42.0778 40.1519 42.3746 40.2527L49.9565 42.826L65.6512 32.1726C66.1082 31.8624 66.73 31.9814 67.0402 32.4384Z" fill="#D4EEF8"/>
<path fill-rule="evenodd" clip-rule="evenodd" d="M63.4304 55.3527L62.6093 57.115C62.4459 57.4656 62.0623 57.6764 61.6599 57.6367L59.5074 57.4243L59.0274 58.2042L60.3051 59.8295C60.5502 60.1412 60.5513 60.5681 60.3077 60.881L59.0268 62.5267L59.5064 63.3059L61.654 63.0777C62.0588 63.0347 62.4463 63.2456 62.6107 63.5987L63.4304 65.3578H64.4769L65.2966 63.5987C65.4611 63.2456 65.8485 63.0347 66.2533 63.0777L68.403 63.3062L68.894 62.5238L67.6291 60.8763C67.3903 60.5654 67.3914 60.1439 67.6317 59.8341L68.8934 58.2071L68.402 57.4241L66.2474 57.6367C65.845 57.6764 65.4614 57.4656 65.298 57.115L64.4769 55.3527H63.4304ZM62.8548 54.9977C62.9361 54.8231 63.1185 54.7105 63.3199 54.7105H64.5874C64.7888 54.7105 64.9712 54.8231 65.0525 54.9977L65.9183 56.8557C65.9628 56.9513 66.0674 57.0088 66.1772 56.9979L68.4396 56.7747C68.6368 56.7552 68.828 56.8461 68.9293 57.0076L69.5336 57.9703C69.6379 58.1365 69.6271 58.3458 69.5063 58.5016L68.178 60.2143C68.1125 60.2988 68.1122 60.4138 68.1773 60.4986L69.508 62.2316C69.6276 62.3873 69.6377 62.5955 69.5338 62.7611L68.9298 63.7234C68.8277 63.8861 68.6346 63.977 68.4361 63.9559L66.1777 63.7159C66.0673 63.7042 65.9617 63.7617 65.9168 63.858L65.0525 65.7128C64.9712 65.8874 64.7888 66 64.5874 66H63.3199C63.1185 66 62.9361 65.8874 62.8548 65.7128L61.9905 63.858C61.9457 63.7617 61.84 63.7042 61.7296 63.7159L59.4723 63.9558C59.2722 63.9771 59.0777 63.8845 58.9763 63.7197L58.385 62.7589C58.2828 62.5929 58.2946 62.3852 58.415 62.2305L59.7621 60.4998C59.8285 60.4145 59.8282 60.2981 59.7614 60.2131L58.4167 58.5027C58.295 58.3479 58.2826 58.1392 58.3853 57.9724L58.9768 57.0113C59.0775 56.8477 59.27 56.7552 59.4688 56.7748L61.7301 56.9979C61.8399 57.0088 61.9445 56.9513 61.9891 56.8557L62.8548 54.9977Z" fill="#192D68"/>
<path fill-rule="evenodd" clip-rule="evenodd" d="M63.9606 59.2123C63.2836 59.2123 62.7514 59.6978 62.7514 60.3272C62.7514 60.9725 63.3006 61.4981 63.9606 61.4981C64.6192 61.4981 65.165 60.9739 65.165 60.3272C65.165 59.6965 64.6362 59.2123 63.9606 59.2123ZM62.0734 60.3272C62.0734 59.3232 62.9306 58.5701 63.9606 58.5701C64.9921 58.5701 65.8429 59.3245 65.8429 60.3272C65.8429 61.3138 65.0091 62.1403 63.9606 62.1403C62.9135 62.1403 62.0734 61.3151 62.0734 60.3272Z" fill="#192D68"/>
<path d="M23 12C22.4477 12 22 12.4477 22 13V58.625C22 59.1773 22.4477 59.625 23 59.625C23.5523 59.625 24 59.1773 24 58.625V21H76.8596V31.25C76.8596 31.8023 77.3074 32.25 77.8596 32.25C78.4119 32.25 78.8596 31.8023 78.8596 31.25V13C78.8596 12.4477 78.4119 12 77.8596 12H23Z" fill="#192D68"/>
<path d="M78.8596 41C78.8596 40.4477 78.4119 40 77.8596 40C77.3074 40 76.8596 40.4477 76.8596 41V85H24V67.75C24 67.1977 23.5523 66.75 23 66.75C22.4477 66.75 22 67.1977 22 67.75V86C22 86.5523 22.4477 87 23 87H77.8596C78.4119 87 78.8596 86.5523 78.8596 86V41Z" fill="#192D68"/>
</svg>
