<svg width="100" height="100" viewBox="0 0 100 100" fill="none" xmlns="http://www.w3.org/2000/svg">
<path d="M72 43H75C76.6569 43 78 44.3431 78 46V62C78 63.6569 76.6569 65 75 65V65C73.3431 65 72 63.6569 72 62V43Z" stroke="#192D68" stroke-width="2"/>
<path d="M32 43H61V67C61 69.7614 58.7614 72 56 72H37C34.2386 72 32 69.7614 32 67V43Z" fill="#D4EEF8"/>
<path fill-rule="evenodd" clip-rule="evenodd" d="M31 42H32H68H69V43V67C69 70.3137 66.3137 73 63 73H62V86C62 88.2091 60.2091 90 58 90C55.7909 90 54 88.2091 54 86V73H46V86C46 88.2091 44.2091 90 42 90C39.7909 90 38 88.2091 38 86V73H37C33.6863 73 31 70.3137 31 67V43V42ZM54 71H55H61H62H63C65.2091 71 67 69.2091 67 67V44H33V67C33 69.2091 34.7909 71 37 71H38H39H45H46H54ZM56 73V86C56 87.1046 56.8954 88 58 88C59.1046 88 60 87.1046 60 86V73H56ZM40 73H44V86C44 87.1046 43.1046 88 42 88C40.8954 88 40 87.1046 40 86V73Z" fill="#192D68"/>
<path d="M22 46C22 44.3431 23.3431 43 25 43H28V62C28 63.6569 26.6569 65 25 65V65C23.3431 65 22 63.6569 22 62V46Z" stroke="#192D68" stroke-width="2"/>
<path d="M61 38.5C61 36.2019 60.6249 33.9263 59.8963 31.8031C59.1676 29.6799 58.0995 27.7507 56.753 26.1256C55.4066 24.5006 53.8081 23.2116 52.0489 22.3321C50.2897 21.4527 48.4042 21 46.5 21C44.5958 21 42.7103 21.4527 40.9511 22.3321C39.1919 23.2116 37.5934 24.5006 36.247 26.1256C34.9005 27.7507 33.8324 29.6799 33.1037 31.8031C32.3751 33.9263 32 36.2019 32 38.5L46.5 38.5H61Z" fill="#D4EEF8"/>
<path fill-rule="evenodd" clip-rule="evenodd" d="M34.2929 11.2929C34.6834 10.9024 35.3166 10.9024 35.7071 11.2929L43.2071 18.7929C43.3236 18.9094 43.4054 19.0476 43.4524 19.1944C45.5472 18.4052 47.7635 18 50 18C52.2365 18 54.4528 18.4052 56.5476 19.1944C56.5946 19.0476 56.6764 18.9094 56.7929 18.7929L64.2929 11.2929C64.6834 10.9024 65.3166 10.9024 65.7071 11.2929C66.0976 11.6834 66.0976 12.3166 65.7071 12.7071L58.4034 20.0109C60.2688 20.955 61.9723 22.2079 63.4446 23.7212C65.2076 25.5331 66.6047 27.6827 67.5573 30.0466C68.51 32.4104 69 34.943 69 37.5V38.5H68H50L32 38.5H31L31 37.5C31 34.943 31.49 32.4104 32.4427 30.0466C33.3953 27.6827 34.7924 25.5331 36.5554 23.7212C38.0277 22.2079 39.7312 20.955 41.5966 20.0109L34.2929 12.7071C33.9024 12.3166 33.9024 11.6834 34.2929 11.2929ZM43.5034 21.3283C45.5639 20.4511 47.7714 20 50 20C52.2286 20 54.4361 20.4511 56.4966 21.3283C58.5572 22.2056 60.4313 23.4921 62.0112 25.1159C63.5911 26.7397 64.8458 28.669 65.7023 30.7942C66.4346 32.6111 66.8633 34.5402 66.9722 36.5H50L33.0278 36.5C33.1367 34.5402 33.5654 32.6111 34.2977 30.7942C35.1542 28.669 36.4089 26.7397 37.9888 25.1159C39.5687 23.4921 41.4428 22.2056 43.5034 21.3283Z" fill="#192D68"/>
</svg>
