<svg width="100" height="100" viewBox="0 0 100 100" fill="none" xmlns="http://www.w3.org/2000/svg">
<path fill-rule="evenodd" clip-rule="evenodd" d="M9 22C9 19.7909 10.7909 18 13 18H30H50H87C89.2091 18 91 19.7909 91 22V30.5C91 31.0523 90.5523 31.5 90 31.5C89.4477 31.5 89 31.0523 89 30.5V22C89 20.8954 88.1046 20 87 20H50H30H13C11.8954 20 11 20.8954 11 22V54.5C11 55.0523 10.5523 55.5 10 55.5C9.44772 55.5 9 55.0523 9 54.5V22ZM90 37C90.5523 37 91 37.4477 91 38V67C91 69.2091 89.2091 71 87 71H56V77H68C69.1046 77 70 77.8954 70 79V81C70 82.1046 69.1046 83 68 83H32C30.8954 83 30 82.1046 30 81V79C30 77.8954 30.8954 77 32 77H43V71H13C10.7909 71 9 69.2091 9 67V61.5C9 60.9477 9.44772 60.5 10 60.5C10.5523 60.5 11 60.9477 11 61.5V67C11 68.1046 11.8954 69 13 69H44H55H87C88.1046 69 89 68.1046 89 67V38C89 37.4477 89.4477 37 90 37ZM45 71V77H54V71H45Z" fill="#192D68"/>
<rect x="40" y="25" width="43" height="27" stroke="#192D68" stroke-linejoin="round"/>
<path fill-rule="evenodd" clip-rule="evenodd" d="M79.7316 30.0555C79.9786 30.1778 80.072 30.4628 79.9403 30.6921L75.8855 37.7509C75.7974 37.9042 75.6255 38 75.4383 38H70.8766C70.6926 38 70.523 37.9074 70.4336 37.758L68.3317 34.2452L61.6844 44.8253C61.6052 44.9514 61.4675 45.0362 61.3116 45.0549C61.1557 45.0736 60.9993 45.0241 60.8882 44.9209L55.1333 39.5778L52.4478 41.6556C52.3411 41.7382 52.2025 41.7765 52.0645 41.7615C51.9265 41.7465 51.8012 41.6796 51.7178 41.5765L49.1129 38.3517L43.9324 45.785C43.7804 46.0032 43.4666 46.0656 43.2316 45.9244C42.9965 45.7833 42.9293 45.4919 43.0814 45.2737L48.6567 37.2738C48.7467 37.1446 48.8991 37.0645 49.0647 37.0591C49.2303 37.0538 49.3883 37.124 49.4877 37.2471L52.2087 40.6155L54.8399 38.5797C55.0413 38.4239 55.3374 38.4363 55.5228 38.6084L61.14 43.8238L67.9046 33.0571C67.9964 32.911 68.1656 32.8218 68.3477 32.8236C68.5299 32.8254 68.697 32.9178 68.7855 33.0656L71.1749 37.0589H75.1342L79.0458 30.2492C79.1776 30.0199 79.4846 29.9332 79.7316 30.0555Z" fill="#D4EEF8"/>
<path d="M34 34C34 32.22 33.4722 30.4799 32.4832 28.9999C31.4943 27.5198 30.0887 26.3663 28.4442 25.6851C26.7996 25.0039 24.99 24.8257 23.2442 25.1729C21.4984 25.5202 19.8947 26.3774 18.636 27.636C17.3774 28.8947 16.5202 30.4984 16.1729 32.2442C15.8257 33.99 16.0039 35.7996 16.6851 37.4442C17.3663 39.0887 18.5198 40.4943 19.9999 41.4832C21.4799 42.4722 23.22 43 25 43V34H34Z" fill="#192D68"/>
<path d="M26 44C27.1819 44 28.3522 43.7672 29.4442 43.3149C30.5361 42.8626 31.5282 42.1997 32.364 41.364C33.1997 40.5282 33.8626 39.5361 34.3149 38.4442C34.7672 37.3522 35 36.1819 35 35H26V44Z" fill="#D4EEF8"/>
<path d="M17 51H35" stroke="#192D68" stroke-linecap="round" stroke-linejoin="round"/>
<path d="M17 55H35" stroke="#D4EEF8" stroke-linecap="round" stroke-linejoin="round"/>
<path d="M17 59H35" stroke="#192D68" stroke-linecap="round" stroke-linejoin="round"/>
<path d="M17 63H35" stroke="#D4EEF8" stroke-linecap="round" stroke-linejoin="round"/>
</svg>
