<svg width="100" height="100" viewBox="0 0 100 100" fill="none" xmlns="http://www.w3.org/2000/svg">
<path d="M65 45C65 53.2843 58.2843 60 50 60C41.7157 60 35 53.2843 35 45C35 36.7157 41.7157 30 50 30C58.2843 30 65 36.7157 65 45Z" fill="#192D68"/>
<path fill-rule="evenodd" clip-rule="evenodd" d="M50 34.625C50.5523 34.625 51 35.0727 51 35.625V36.2443H53.9663C54.5186 36.2443 54.9663 36.692 54.9663 37.2443C54.9663 37.7966 54.5186 38.2443 53.9663 38.2443H51V43.5312H51.4423C52.017 43.5312 52.5826 43.6585 53.1059 43.9018C53.6287 44.145 54.0957 44.4976 54.4837 44.9333C54.8716 45.3687 55.174 45.8796 55.3787 46.4343C55.5833 46.9889 55.6875 47.58 55.6875 48.1747C55.6875 48.7694 55.5833 49.3605 55.3787 49.9151C55.174 50.4698 54.8716 50.9807 54.4837 51.4161C54.0957 51.8518 53.6287 52.2045 53.1059 52.4476C52.5826 52.6909 52.017 52.8182 51.4423 52.8182H51V53.4375C51 53.9898 50.5523 54.4375 50 54.4375C49.4477 54.4375 49 53.9898 49 53.4375V52.8182H46.0337C45.4814 52.8182 45.0337 52.3705 45.0337 51.8182C45.0337 51.2659 45.4814 50.8182 46.0337 50.8182H49V45.5312H48.5577C47.392 45.5312 46.3011 45.0103 45.5163 44.1292C44.7348 43.2519 44.3125 42.0843 44.3125 40.8878C44.3125 39.6912 44.7348 38.5237 45.5163 37.6464C46.3011 36.7652 47.392 36.2443 48.5577 36.2443H49V35.625C49 35.0727 49.4477 34.625 50 34.625ZM49 38.2443H48.5577C48.002 38.2443 47.4421 38.4911 47.0097 38.9766C46.574 39.4658 46.3125 40.1517 46.3125 40.8878C46.3125 41.6238 46.574 42.3098 47.0097 42.799C47.4421 43.2844 48.002 43.5312 48.5577 43.5312H49V38.2443ZM51 45.5312V50.8182H51.4423C51.72 50.8182 51.9983 50.757 52.2625 50.6341C52.5272 50.511 52.7756 50.3269 52.9903 50.0859C53.2051 49.8447 53.3807 49.5523 53.5023 49.2229C53.6238 48.8934 53.6875 48.5369 53.6875 48.1747C53.6875 47.8125 53.6238 47.456 53.5023 47.1266C53.3807 46.7971 53.2051 46.5047 52.9903 46.2635C52.7756 46.0225 52.5272 45.8384 52.2625 45.7153C51.9983 45.5925 51.72 45.5312 51.4423 45.5312H51Z" fill="#D4EEF8"/>
<path d="M9 22C9 19.7909 10.7909 18 13 18H87C89.2091 18 91 19.7909 91 22V57.25C91 57.8023 90.5523 58.25 90 58.25C89.4477 58.25 89 57.8023 89 57.25V22C89 20.8954 88.1046 20 87 20H13C11.8954 20 11 20.8954 11 22V31.75C11 32.3023 10.5523 32.75 10 32.75C9.44772 32.75 9 32.3023 9 31.75V22Z" fill="#192D68"/>
<path fill-rule="evenodd" clip-rule="evenodd" d="M10 38.5C10.5523 38.5 11 38.9477 11 39.5V67C11 68.1046 11.8954 69 13 69H87C88.1046 69 89 68.1046 89 67V65C89 64.4477 89.4477 64 90 64C90.5523 64 91 64.4477 91 65V67C91 69.2091 89.2091 71 87 71H56V77H68C69.1046 77 70 77.8954 70 79V81C70 82.1046 69.1046 83 68 83H32C30.8954 83 30 82.1046 30 81V79C30 77.8954 30.8954 77 32 77H43V71H13C10.7909 71 9 69.2091 9 67V39.5C9 38.9477 9.44772 38.5 10 38.5ZM45 71V77H54V71H45Z" fill="#192D68"/>
</svg>
