<svg width="100" height="100" viewBox="0 0 100 100" fill="none" xmlns="http://www.w3.org/2000/svg">
<path fill-rule="evenodd" clip-rule="evenodd" d="M42.5994 11.1812H57.4367C58.1436 11.1757 58.8256 11.4318 59.3566 11.8975C59.8884 12.364 60.2322 13.0082 60.3293 13.7081V13.7081L61.636 23.1055C63.5475 23.97 65.3627 25.0396 67.0512 26.2962L75.7001 22.7403L75.7016 22.7396C76.3601 22.4673 77.0948 22.4497 77.7655 22.6905C78.4335 22.9303 78.9878 23.408 79.3291 24.0287C79.3306 24.0313 79.3321 24.034 79.3335 24.0367L86.7267 37.1119C87.0865 37.7273 87.2114 38.4536 87.0803 39.1541C86.949 39.856 86.5686 40.4888 86.0058 40.9296C86.0038 40.9312 86.0017 40.9328 85.9997 40.9344L78.6646 46.7912C78.7807 47.8535 78.8436 48.9212 78.8532 49.9902V50.0099C78.8436 51.08 78.7805 52.1487 78.6643 53.212L85.9356 59.072C86.4973 59.5127 86.8769 60.1448 87.0081 60.8459C87.1392 61.5465 87.0142 62.2727 86.6545 62.8881L79.2613 75.9633C79.2598 75.966 79.2584 75.9686 79.2569 75.9712C78.9156 76.5919 78.3613 77.0697 77.6933 77.3095C77.0224 77.5504 76.2876 77.5327 75.629 77.2602L75.6278 77.2597L66.9806 73.7045C65.2941 74.9654 63.4777 76.0356 61.5635 76.8962L60.2572 86.2914V86.2914C60.1601 86.9913 59.8162 87.636 59.2843 88.1025C58.7534 88.5681 58.0716 88.8243 57.3649 88.8188H42.5628C41.8561 88.8243 41.1743 88.5681 40.6434 88.1025C40.1115 87.636 39.7677 86.9918 39.6706 86.2919V86.2919L38.3639 76.8945C36.4525 76.03 34.6372 74.9604 32.9488 73.7039L24.2999 77.2597V77.2597C23.6412 77.5323 22.9054 77.5504 22.2344 77.3095C21.5664 77.0697 21.0121 76.5919 20.6707 75.9712L13.2732 62.8882C12.9135 62.2727 12.7885 61.5465 12.9196 60.8459C13.0509 60.1441 13.4312 59.5114 13.9938 59.0706L21.3173 53.2096C21.2013 52.1471 21.1383 51.0791 21.1287 50.0099L21.1287 49.9896C21.1388 48.9206 21.2019 47.8529 21.3176 46.7906L13.9939 40.9295C13.4312 40.4887 13.0509 39.856 12.9196 39.1541C12.7885 38.4535 12.9135 37.7273 13.2732 37.1118L20.6708 24.0287C21.0122 23.4081 21.5664 22.9303 22.2344 22.6905C22.905 22.4498 23.6394 22.4673 24.2978 22.7394L24.2999 22.7403L32.9825 26.2961C34.6692 25.035 36.4858 23.9645 38.4003 23.1038L39.7067 13.7086V13.7086C39.8038 13.0087 40.1476 12.364 40.6795 11.8975C41.2105 11.4318 41.8925 11.1757 42.5994 11.1812ZM42.5836 13.3682C42.4162 13.3665 42.2508 13.4268 42.1187 13.5426C41.9861 13.6589 41.8958 13.8241 41.8701 14.0092L40.4793 24.012C40.4263 24.3932 40.1771 24.7184 39.8231 24.8683C37.6803 25.776 35.6624 26.9655 33.8207 28.4069C33.512 28.6486 33.0975 28.706 32.7348 28.5575L23.469 24.7628L23.4649 24.7612C23.3069 24.6957 23.132 24.6916 22.9716 24.7492C22.8107 24.8069 22.6709 24.9246 22.5829 25.0858L22.575 25.1L15.1696 38.197L15.1597 38.2141C15.0657 38.3735 15.0316 38.5652 15.0664 38.7514C15.1012 38.9374 15.2012 39.0991 15.3414 39.2083L15.3527 39.2171L23.1554 45.4617C23.4532 45.7001 23.6053 46.0766 23.5568 46.4552C23.4059 47.6308 23.3245 48.8147 23.3128 50.0003C23.3239 51.1856 23.4053 52.3691 23.5567 53.5443C23.6055 53.923 23.4534 54.2998 23.1554 54.5383L15.3415 60.7918C15.2013 60.901 15.1012 61.0627 15.0664 61.2486C15.0316 61.4348 15.0657 61.6265 15.1597 61.7859L15.1696 61.803L22.575 74.9001L22.5829 74.9143C22.6709 75.0754 22.8107 75.1931 22.9716 75.2509C23.132 75.3085 23.3069 75.3043 23.4649 75.2389L32.6972 71.4431C33.0593 71.2943 33.4733 71.3508 33.7823 71.5913C35.6289 73.0287 37.6478 74.2187 39.7897 75.1328C40.1423 75.2833 40.3903 75.6079 40.4431 75.988L41.8339 85.9903C41.8596 86.1755 41.9499 86.3411 42.0826 86.4574C42.2147 86.5733 42.38 86.6335 42.5475 86.6319L42.5585 86.6317L57.3692 86.6318L57.3802 86.6319C57.5477 86.6335 57.713 86.5733 57.8451 86.4574C57.9778 86.3411 58.0681 86.176 58.0937 85.9908L59.4846 75.988C59.5376 75.6068 59.7868 75.2816 60.1407 75.1317C62.2835 74.224 64.3014 73.0346 66.1431 71.5931C66.4523 71.3511 66.8674 71.2939 67.2305 71.4431L76.4628 75.2389C76.6208 75.3043 76.7957 75.3085 76.9561 75.2509C77.117 75.1931 77.2568 75.0754 77.3448 74.9143L77.3527 74.9001L84.7581 61.803L84.768 61.7859C84.862 61.6265 84.8961 61.4348 84.8613 61.2486C84.8265 61.0627 84.7265 60.901 84.5863 60.7917L84.5721 60.7805L76.8236 54.536C76.5275 54.2973 76.3766 53.9217 76.4252 53.5443C76.5766 52.369 76.658 51.1854 76.669 50C76.658 48.8146 76.5766 47.6311 76.4252 46.4558C76.3764 46.0766 76.5289 45.6993 76.8274 45.461L84.6585 39.2082C84.7987 39.099 84.8987 38.9374 84.9335 38.7514C84.9684 38.5652 84.9342 38.3735 84.8402 38.2141L84.8303 38.197L77.4249 25.1L77.417 25.0858C77.3291 24.9246 77.1893 24.8069 77.0284 24.7492C76.868 24.6916 76.6931 24.6957 76.535 24.7612L76.5324 24.7623L67.3027 28.5569C66.9406 28.7058 66.5267 28.6492 66.2176 28.4087C64.371 26.9714 62.3521 25.7813 60.2103 24.8672C59.8577 24.7167 59.6097 24.3922 59.5568 24.012L58.166 14.0097C58.1404 13.8245 58.05 13.6589 57.9174 13.5426C57.7853 13.4268 57.6199 13.3665 57.4524 13.3682L57.4415 13.3682L42.5836 13.3682Z" fill="#192D68"/>
<path d="M59.6904 49.2839C59.6904 54.6426 55.3519 58.9867 50 58.9867C44.6482 58.9867 40.3097 54.6426 40.3097 49.2839C40.3097 43.9252 44.6482 39.5811 50 39.5811C55.3519 39.5811 59.6904 43.9252 59.6904 49.2839Z" fill="#D4EEF8"/>
<path d="M50.0404 41.2561C48.7751 41.2497 47.5263 41.5432 46.3961 42.1127C45.2658 42.6821 44.2863 43.5114 43.5374 44.5325C42.7885 45.5537 42.2917 46.7378 42.0875 47.9881C41.8832 49.2384 41.9774 50.5193 42.3624 51.7261C42.5174 52.2123 42.2495 52.7323 41.764 52.8875C41.2784 53.0428 40.7591 52.7745 40.6041 52.2884C40.1305 50.8037 40.0147 49.2279 40.2659 47.6898C40.5171 46.1517 41.1284 44.6949 42.0496 43.4387C42.9709 42.1824 44.176 41.1623 45.5664 40.4618C46.9569 39.7612 48.4932 39.4001 50.0497 39.4079C51.6062 39.4158 53.1388 39.7924 54.5221 40.5069C55.9054 41.2215 57.1002 42.2537 58.0088 43.5192C58.9173 44.7847 59.5139 46.2475 59.7496 47.7881C59.9854 49.3287 59.8536 50.9032 59.3652 52.383C59.2052 52.8676 58.6832 53.1306 58.1993 52.9704C57.7153 52.8103 57.4527 52.2876 57.6126 51.8031C58.0097 50.6002 58.1168 49.3203 57.9251 48.068C57.7335 46.8157 57.2486 45.6266 56.5101 44.598C55.7715 43.5693 54.8003 42.7302 53.6759 42.1494C52.5514 41.5686 51.3056 41.2625 50.0404 41.2561Z" fill="#192D68"/>
<path fill-rule="evenodd" clip-rule="evenodd" d="M34.7723 49.2839C34.7723 40.8631 41.59 34.0366 50 34.0366C58.4101 34.0366 65.2278 40.8631 65.2278 49.2839C65.2278 57.7047 58.4101 64.5311 50 64.5311C41.59 64.5311 34.7723 57.7047 34.7723 49.2839ZM50 35.8848C42.6094 35.8848 36.6181 41.8838 36.6181 49.2839C36.6181 56.684 42.6094 62.683 50 62.683C57.3907 62.683 63.382 56.684 63.382 49.2839C63.382 41.8838 57.3907 35.8848 50 35.8848Z" fill="#192D68"/>
<path d="M48.9771 47.9614C49.0006 47.9492 49.0244 47.9375 49.0484 47.9262C48.2489 48.3036 47.6927 49.1419 47.6927 50.1156C47.6927 51.4425 48.7257 52.5181 50 52.5181C51.2742 52.5181 52.3072 51.4425 52.3072 50.1156C52.3072 49.1712 51.7839 48.354 51.0229 47.9614L50 40.5052L48.9771 47.9614Z" fill="#192D68"/>
</svg>
