<svg width="100" height="100" viewBox="0 0 100 100" fill="none" xmlns="http://www.w3.org/2000/svg">
<path fill-rule="evenodd" clip-rule="evenodd" d="M8 22C8 19.2386 10.2386 17 13 17H87C89.7614 17 92 19.2386 92 22V55C92 56.1046 91.1046 57 90 57C88.8954 57 88 56.1046 88 55V22C88 21.4477 87.5523 21 87 21H13C12.4477 21 12 21.4477 12 22V31.75C12 32.8546 11.1046 33.75 10 33.75C8.89543 33.75 8 32.8546 8 31.75V22ZM10 40C11.1046 40 12 40.8954 12 42V67C12 67.5523 12.4477 68 13 68H87C87.5523 68 88 67.5523 88 67V65C88 63.8954 88.8954 63 90 63C91.1046 63 92 63.8954 92 65V67C92 69.7614 89.7614 72 87 72H13C10.2386 72 8 69.7614 8 67V42C8 40.8954 8.89543 40 10 40Z" fill="#192D68"/>
<path d="M68 77H32C30.8954 77 30 77.8954 30 79V81C30 82.1046 30.8954 83 32 83H68C69.1046 83 70 82.1046 70 81V79C70 77.8954 69.1046 77 68 77Z" fill="#192D68"/>
<path fill-rule="evenodd" clip-rule="evenodd" d="M42 70C42 68.8954 42.8954 68 44 68H55C56.1046 68 57 68.8954 57 70V79C57 80.1046 56.1046 81 55 81H44C42.8954 81 42 80.1046 42 79V70ZM46 72V77H53V72H46Z" fill="#192D68"/>
<path fill-rule="evenodd" clip-rule="evenodd" d="M72.6798 35.2665L83.6727 45.2601C84.0813 45.6316 84.1114 46.264 83.7399 46.6727C83.3684 47.0813 82.736 47.1114 82.3273 46.7399L72.0158 37.3659L51.7053 56.7092C51.5426 56.8713 51.3312 56.9694 51.1099 56.994C50.8865 57.0185 50.6568 56.9679 50.4617 56.843L28.1514 43.2628L17.7071 53.7071C17.3166 54.0976 16.6834 54.0976 16.2929 53.7071C15.9024 53.3166 15.9024 52.6834 16.2929 52.2929L27.2782 41.3076C27.4387 41.14 27.6498 41.037 27.872 41.0082C28.0211 40.9888 28.1751 41.0029 28.3223 41.0531C28.3969 41.0784 28.469 41.1128 28.537 41.1562L50.8653 54.7473L71.3045 35.2814C71.3785 35.2097 71.4611 35.1515 71.5491 35.1071C71.6947 35.0335 71.8542 34.998 72.0131 35.0001C72.2534 35.0032 72.4923 35.0925 72.6798 35.2665Z" fill="#192D68"/>
<path d="M82 36.5C82 42.299 77.299 47 71.5 47C65.701 47 61 42.299 61 36.5C61 30.701 65.701 26 71.5 26C77.299 26 82 30.701 82 36.5Z" fill="#D4EEF8"/>
<path opacity="0.9" fill-rule="evenodd" clip-rule="evenodd" d="M70.5761 30.0199C70.311 29.7017 69.838 29.6587 69.5198 29.9238L65.0198 33.6738C64.8488 33.8163 64.75 34.0274 64.75 34.25C64.75 34.4726 64.8488 34.6837 65.0198 34.8262L69.5198 38.5762C69.838 38.8413 70.311 38.7983 70.5761 38.4801C70.8413 38.1619 70.7983 37.689 70.4801 37.4238L66.6715 34.25L70.4801 31.0762C70.7983 30.811 70.8413 30.3381 70.5761 30.0199Z" fill="#192D68"/>
<path opacity="0.9" fill-rule="evenodd" clip-rule="evenodd" d="M72.4238 34.5199C72.689 34.2017 73.1619 34.1587 73.4801 34.4238L77.9801 38.1738C78.1511 38.3163 78.25 38.5274 78.25 38.75C78.25 38.9726 78.1511 39.1837 77.9801 39.3262L73.4801 43.0762C73.1619 43.3413 72.689 43.2983 72.4238 42.9801C72.1587 42.6619 72.2017 42.189 72.5199 41.9238L76.3285 38.75L72.5199 35.5762C72.2017 35.311 72.1587 34.8381 72.4238 34.5199Z" fill="#192D68"/>
<path d="M37 43C37 47.9706 32.9705 52 28 52C23.0294 52 19 47.9706 19 43C19 38.0294 23.0294 34 28 34C32.9705 34 37 38.0294 37 43Z" fill="#D4EEF8"/>
<path fill-rule="evenodd" clip-rule="evenodd" d="M27.8147 38.8461C27.7871 38.8461 27.7622 38.8624 27.751 38.8876C27.1623 40.2214 25.7804 41.0231 24.3303 40.872L24.234 40.862C24.192 40.8576 24.1513 40.8783 24.13 40.9148L24.0121 41.1169C23.9941 41.1479 23.9962 41.1867 24.0177 41.2154C24.9212 42.4286 24.9136 44.0958 24.0202 45.3075C23.9958 45.3406 23.9951 45.3844 24.0127 45.4146L24.1297 45.6152C24.1499 45.6499 24.1887 45.6694 24.2287 45.6649L24.3232 45.6543C25.7742 45.4915 27.1628 46.2898 27.7524 47.6255C27.7627 47.6489 27.7858 47.664 27.8114 47.664H28.1759C28.2015 47.664 28.2246 47.6489 28.2349 47.6255C28.8245 46.2898 30.2131 45.4915 31.6641 45.6543L31.7625 45.6654C31.8027 45.6699 31.8418 45.6504 31.8625 45.6156L31.9843 45.4107C32.0031 45.3791 32.0027 45.3333 31.9774 45.2986C31.0976 44.089 31.0902 42.4354 31.9799 41.2243C32.0022 41.1939 32.0042 41.1532 31.985 41.1208L31.8622 40.9143C31.8405 40.8778 31.7995 40.8572 31.7572 40.8616L31.657 40.872C30.2069 41.0231 28.825 40.2214 28.2363 38.8876C28.2251 38.8624 28.2002 38.8461 28.1726 38.8461H27.8147ZM26.4843 38.3285C26.7169 37.8015 27.2387 37.4615 27.8147 37.4615H28.1726C28.7487 37.4615 29.2704 37.8015 29.503 38.3285C29.849 39.1125 30.6613 39.5837 31.5136 39.4949L31.6137 39.4844C32.1931 39.4241 32.7547 39.706 33.0523 40.2067L33.1751 40.4132C33.4785 40.9235 33.4473 41.5657 33.0958 42.0441C32.5672 42.7637 32.5677 43.7562 33.0972 44.4841C33.4444 44.9615 33.4794 45.6056 33.1745 46.1184L33.0526 46.3233C32.754 46.8256 32.1889 47.1065 31.6081 47.0413L31.5097 47.0303C30.6601 46.935 29.8469 47.4024 29.5016 48.1846C29.2699 48.7097 28.7499 49.0486 28.1759 49.0486H27.8114C27.2374 49.0486 26.7175 48.7097 26.4857 48.1846C26.1404 47.4024 25.3272 46.935 24.4776 47.0303L24.3831 47.0409C23.7983 47.1065 23.2299 46.8209 22.9335 46.3126L22.8166 46.112C22.5176 45.5991 22.5571 44.9586 22.9058 44.4858C23.4418 43.7588 23.4423 42.7611 22.9071 42.0424C22.5543 41.5686 22.5184 40.9299 22.8159 40.4196L22.9338 40.2174C23.2292 39.7107 23.7941 39.4241 24.3775 39.4848L24.4737 39.4949C25.326 39.5837 26.1383 39.1125 26.4843 38.3285Z" fill="#192D68"/>
<path fill-rule="evenodd" clip-rule="evenodd" d="M28.0001 42.5444C27.5858 42.5444 27.287 42.8494 27.287 43.2281C27.287 43.6413 27.6206 43.9655 28.0001 43.9655C28.3767 43.9655 28.7087 43.6442 28.7087 43.2281C28.7087 42.8466 28.4114 42.5444 28.0001 42.5444ZM25.9024 43.2281C25.9024 42.0417 26.8648 41.1598 28.0001 41.1598C29.1382 41.1598 30.0933 42.0445 30.0933 43.2281C30.0933 44.377 29.1729 45.3501 28.0001 45.3501C26.83 45.3501 25.9024 44.3799 25.9024 43.2281Z" fill="#192D68"/>
<path d="M57 54C57 57.866 53.866 61 50 61C46.134 61 43 57.866 43 54C43 50.134 46.134 47 50 47C53.866 47 57 50.134 57 54Z" fill="#D4EEF8"/>
<path fill-rule="evenodd" clip-rule="evenodd" d="M49.1843 53.9643C49.1727 54.8883 49.3561 55.7928 49.7062 56.41C49.8015 56.5782 49.7425 56.7918 49.5744 56.8871C49.4062 56.9825 49.1926 56.9235 49.0973 56.7554C48.6667 55.9961 48.4718 54.9573 48.4844 53.9555C48.4969 52.955 48.7173 51.9294 49.1788 51.2022C49.2823 51.039 49.4986 50.9907 49.6618 51.0943C49.825 51.1978 49.8734 51.4141 49.7698 51.5773C49.4022 52.1565 49.1959 53.0391 49.1843 53.9643Z" fill="#192D68"/>
<path fill-rule="evenodd" clip-rule="evenodd" d="M50.8037 53.9643C50.8153 54.8883 50.6319 55.7928 50.2818 56.41C50.1865 56.5782 50.2455 56.7918 50.4136 56.8871C50.5817 56.9825 50.7954 56.9235 50.8907 56.7554C51.3213 55.9961 51.5162 54.9573 51.5036 53.9555C51.4911 52.955 51.2707 51.9294 50.8092 51.2022C50.7057 51.039 50.4894 50.9907 50.3262 51.0943C50.163 51.1978 50.1146 51.4141 50.2182 51.5773C50.5858 52.1565 50.7921 53.0391 50.8037 53.9643Z" fill="#192D68"/>
<path fill-rule="evenodd" clip-rule="evenodd" d="M50 51.55C48.6469 51.55 47.55 52.6469 47.55 54C47.55 55.3531 48.6469 56.45 50 56.45C51.3531 56.45 52.45 55.3531 52.45 54C52.45 52.6469 51.3531 51.55 50 51.55ZM46.85 54C46.85 52.2603 48.2603 50.85 50 50.85C51.7397 50.85 53.15 52.2603 53.15 54C53.15 55.7397 51.7397 57.15 50 57.15C48.2603 57.15 46.85 55.7397 46.85 54Z" fill="#192D68"/>
<path fill-rule="evenodd" clip-rule="evenodd" d="M47.1301 52.88C47.1301 52.6867 47.2868 52.53 47.4801 52.53H52.5201C52.7134 52.53 52.8701 52.6867 52.8701 52.88C52.8701 53.0733 52.7134 53.23 52.5201 53.23H47.4801C47.2868 53.23 47.1301 53.0733 47.1301 52.88Z" fill="#192D68"/>
<path fill-rule="evenodd" clip-rule="evenodd" d="M47.1301 55.12C47.1301 54.9267 47.2868 54.77 47.4801 54.77H52.5201C52.7134 54.77 52.8701 54.9267 52.8701 55.12C52.8701 55.3133 52.7134 55.47 52.5201 55.47H47.4801C47.2868 55.47 47.1301 55.3133 47.1301 55.12Z" fill="#192D68"/>
</svg>
