<svg width="100" height="100" viewBox="0 0 100 100" fill="none" xmlns="http://www.w3.org/2000/svg">
<path fill-rule="evenodd" clip-rule="evenodd" d="M83 40.9286V48H58V39H42V48L17 48V40.9286L26.4286 40.9286L28.7857 36.2143L21.7143 29.1429L31.1429 19.7143L38.2143 26.7857L42.9286 24.4286L42.9286 15H57.0714V24.4286L61.7857 26.7857L68.8571 19.7143L78.2857 29.1429L71.2143 36.2143L73.5714 40.9286H83ZM59.9845 36C59.9845 34.8954 59.0891 34 57.9845 34H42C40.8954 34 40 34.8954 40 36V36.9961C40 38.1007 40.8954 38.9961 42 38.9961L57.9845 38.9961C59.0891 38.9961 59.9845 38.1007 59.9845 36.9961V36Z" fill="#D4EEF8"/>
<path d="M71.6429 22.5L68.8571 19.7143L61.7857 26.7857L57.0714 24.4286L57.0714 15L42.9286 15L42.9286 24.4286L38.2143 26.7857L31.1429 19.7143L21.7143 29.1428L28.7857 36.2143L26.4286 40.9286L24 40.9286M75.5 26.3571L78.2857 29.1429L71.2143 36.2143L73.5714 40.9286L83 40.9286L83 48L17 48L17 40.9286L19 40.9286" stroke="#192D68" stroke-width="1.5" stroke-linecap="round" stroke-linejoin="round"/>
<path fill-rule="evenodd" clip-rule="evenodd" d="M60.7105 36C60.7105 34.4812 59.4792 33.25 57.9605 33.25L41.9759 33.25C40.4572 33.25 39.2259 34.4812 39.2259 36V36.9961C39.2259 38.5149 40.4572 39.7461 41.9759 39.7461H42.2236V47.2392H31.9822V48.7392H49.9683H67.9543V47.2392H57.7128V39.7461H57.9605C59.4792 39.7461 60.7105 38.5149 60.7105 36.9961V36ZM57.9605 34.75C58.6508 34.75 59.2105 35.3096 59.2105 36V36.9961C59.2105 37.6865 58.6508 38.2461 57.9605 38.2461L41.9759 38.2461C41.2856 38.2461 40.7259 37.6865 40.7259 36.9961V36C40.7259 35.3096 41.2856 34.75 41.9759 34.75L57.9605 34.75ZM56.2128 39.7462V47.2392H49.9683H43.7236V39.7462L56.2128 39.7462ZM13 48.7392C11.2051 48.7392 9.75 50.1943 9.75 51.9892V57.9783C9.75 59.7733 11.2051 61.2283 13 61.2283H26.9861V62.7283H13C10.3766 62.7283 8.25 60.6017 8.25 57.9783V51.9892C8.25 49.3658 10.3766 47.2392 13 47.2392H26.9861V48.7392H13ZM86.9365 48.7392H72.9505V47.2392H86.9365C89.5599 47.2392 91.6865 49.3658 91.6865 51.9892V52.4946C91.6865 52.9088 91.3507 53.2446 90.9365 53.2446C90.5223 53.2446 90.1865 52.9088 90.1865 52.4946V51.9892C90.1865 50.1943 88.7314 48.7392 86.9365 48.7392ZM90.9365 56.25C91.3507 56.25 91.6865 56.5858 91.6865 57V57.9783C91.6865 60.6017 89.5599 62.7283 86.9365 62.7283H72.9505V61.2283H86.9365C88.7314 61.2283 90.1865 59.7733 90.1865 57.9783V57C90.1865 56.5858 90.5223 56.25 90.9365 56.25ZM31.9822 61.2283H51C51.4142 61.2283 51.75 61.5641 51.75 61.9783C51.75 62.3926 51.4142 62.7283 51 62.7283H31.9822V61.2283ZM55.75 61.9783C55.75 61.5641 56.0858 61.2283 56.5 61.2283H67.9543V62.7283H56.5C56.0858 62.7283 55.75 62.3926 55.75 61.9783Z" fill="#192D68"/>
<rect x="26.9861" y="43.9922" width="4.99613" height="21.983" rx="2" fill="#192D68"/>
<rect x="67.9541" y="43.9922" width="4.99613" height="21.983" rx="2" fill="#192D68"/>
<path d="M70.5 70H28.5C27.6716 70 27 70.6716 27 71.5C27 72.3284 27.6716 73 28.5 73H70.5C71.3284 73 72 72.3284 72 71.5C72 70.6716 71.3284 70 70.5 70Z" fill="#D4EEF8" stroke="#192D68"/>
<path d="M66.3808 76H32.6192C31.7752 76 31.0909 76.6842 31.0909 77.5283C31.0909 78.3724 31.7752 79.0566 32.6192 79.0566H66.3808C67.2249 79.0566 67.9091 78.3724 67.9091 77.5283C67.9091 76.6842 67.2249 76 66.3808 76Z" fill="#D4EEF8" stroke="#192D68"/>
<path d="M62.2431 82H36.7568C35.8869 82 35.1818 82.7052 35.1818 83.575C35.1818 84.4448 35.8869 85.15 36.7568 85.15H62.2431C63.113 85.15 63.8181 84.4448 63.8181 83.575C63.8181 82.7052 63.113 82 62.2431 82Z" fill="#D4EEF8" stroke="#192D68"/>
</svg>
