<svg width="100" height="100" viewBox="0 0 100 100" fill="none" xmlns="http://www.w3.org/2000/svg">
<path d="M28.3333 40.914V66.2388C28.3333 66.2388 38.3455 65.861 50 71.6667C61.6545 65.861 71.6667 66.2388 71.6667 66.2388V40.914C71.6667 40.914 59.8497 40.914 50 46.3418C40.1503 40.914 28.3333 40.914 28.3333 40.914Z" fill="#D4EEF8"/>
<path d="M28.3333 66.2388V40.914C28.3333 40.914 40.1503 40.914 50 46.3418V71.6667C38.3455 65.861 28.3333 66.2388 28.3333 66.2388Z" fill="#192D68"/>
<path d="M50 40.914C53.4741 40.914 56.2903 38.0977 56.2903 34.6236C56.2903 31.1496 53.4741 28.3333 50 28.3333C46.526 28.3333 43.7097 31.1496 43.7097 34.6236C43.7097 38.0977 46.526 40.914 50 40.914Z" fill="#192D68"/>
<path d="M89 50C89 40.1687 85.2654 30.7001 78.5438 23.4895C71.8222 16.2788 62.6096 11.8582 52.7498 11.1124C42.8901 10.3667 33.1108 13.3508 25.3695 19.4675C17.6281 25.5841 12.4959 34.3821 11 44.1002" stroke="#192D68" stroke-width="2" stroke-linecap="round"/>
<path d="M11.0055 48.9167C10.8389 58.9171 14.46 68.6073 21.1352 76.0244C27.8105 83.4416 37.0409 88.0311 46.9566 88.8632C56.8723 89.6954 66.732 86.708 74.5385 80.5063C82.3449 74.3045 87.5145 65.3521 89 55.4623" stroke="#192D68" stroke-width="2" stroke-linecap="round"/>
</svg>
