<svg width="100" height="100" viewBox="0 0 100 100" fill="none" xmlns="http://www.w3.org/2000/svg">
<path d="M22 28C22 27.4477 22.4477 27 23 27H25.2378C25.7901 27 26.2378 27.4477 26.2378 28V30.101C26.2378 30.6533 25.7901 31.101 25.2378 31.101H23C22.4477 31.101 22 30.6533 22 30.101V28Z" fill="#D4EEF8"/>
<path d="M29.4161 28C29.4161 27.4477 29.8638 27 30.4161 27H64.4372C64.9895 27 65.4372 27.4477 65.4372 28V30.101C65.4372 30.6533 64.9895 31.101 64.4372 31.101H30.4161C29.8638 31.101 29.4161 30.6533 29.4161 30.101V28Z" fill="#D4EEF8"/>
<path d="M22 38.2526C22 37.7003 22.4477 37.2526 23 37.2526H25.2378C25.7901 37.2526 26.2378 37.7003 26.2378 38.2526V40.3536C26.2378 40.9059 25.7901 41.3536 25.2378 41.3536H23C22.4477 41.3536 22 40.9059 22 40.3536V38.2526Z" fill="#D4EEF8"/>
<path d="M29.4161 38.2526C29.4161 37.7003 29.8638 37.2526 30.4161 37.2526H64.4372C64.9895 37.2526 65.4372 37.7003 65.4372 38.2526V40.3536C65.4372 40.9059 64.9895 41.3536 64.4372 41.3536H30.4161C29.8638 41.3536 29.4161 40.9059 29.4161 40.3536V38.2526Z" fill="#D4EEF8"/>
<path d="M22 48.5052C22 47.9529 22.4477 47.5052 23 47.5052H25.2378C25.7901 47.5052 26.2378 47.9529 26.2378 48.5052V50.6062C26.2378 51.1585 25.7901 51.6062 25.2378 51.6062H23C22.4477 51.6062 22 51.1585 22 50.6062V48.5052Z" fill="#D4EEF8"/>
<path d="M29.4161 48.5052C29.4161 47.9529 29.8638 47.5052 30.4161 47.5052H64.4372C64.9895 47.5052 65.4372 47.9529 65.4372 48.5052V50.6062C65.4372 51.1585 64.9895 51.6062 64.4372 51.6062H30.4161C29.8638 51.6062 29.4161 51.1585 29.4161 50.6062V48.5052Z" fill="#D4EEF8"/>
<path d="M22 58.7578C22 58.2055 22.4477 57.7578 23 57.7578H25.2378C25.7901 57.7578 26.2378 58.2055 26.2378 58.7578V60.8588C26.2378 61.4111 25.7901 61.8588 25.2378 61.8588H23C22.4477 61.8588 22 61.4111 22 60.8588V58.7578Z" fill="#D4EEF8"/>
<path d="M29 58.9754C29 58.4367 29.3107 58 29.694 58H53.306C53.6893 58 54 58.4367 54 58.9754V61.0246C54 61.5633 53.6893 62 53.306 62H29.694C29.3107 62 29 61.5633 29 61.0246V58.9754Z" fill="#D4EEF8"/>
<path d="M57.6972 69.9698H60.9322V73.1004H57.6972V69.9698Z" fill="#D4EEF8"/>
<path d="M57.6972 82.4924H60.9322V85.6231H57.6972V82.4924Z" fill="#D4EEF8"/>
<path d="M64.6293 76.231H67.8643V79.3617H64.6293V76.231Z" fill="#D4EEF8"/>
<path d="M71.5616 69.9698H74.7967V73.1004H71.5616V69.9698Z" fill="#D4EEF8"/>
<path d="M71.5616 82.4924H74.7967V85.6231H71.5616V82.4924Z" fill="#D4EEF8"/>
<path d="M78.4938 63.7085H81.7288V66.8391H78.4938V63.7085Z" fill="#D4EEF8"/>
<path d="M78.4938 76.231H81.7288V79.3617H78.4938V76.231Z" fill="#D4EEF8"/>
<path d="M16 11C15.4477 11 15 11.4477 15 12V57.625C15 58.1773 15.4477 58.625 16 58.625C16.5523 58.625 17 58.1773 17 57.625V20H69.8596V50.5C69.8596 51.0523 70.3074 51.5 70.8596 51.5C71.4119 51.5 71.8596 51.0523 71.8596 50.5V12C71.8596 11.4477 71.4119 11 70.8596 11H16Z" fill="#192D68"/>
<path d="M17 66.75C17 66.1977 16.5523 65.75 16 65.75C15.4477 65.75 15 66.1977 15 66.75V85C15 85.5523 15.4477 86 16 86H47.5C48.0523 86 48.5 85.5523 48.5 85C48.5 84.4477 48.0523 84 47.5 84H17V66.75Z" fill="#192D68"/>
<path fill-rule="evenodd" clip-rule="evenodd" d="M57.235 69.0753C57.235 68.8283 57.442 68.6281 57.6972 68.6281H61.8565C62.1118 68.6281 62.3187 68.8283 62.3187 69.0753V73.1004C62.3187 73.3474 62.1118 73.5477 61.8565 73.5477H57.6972C57.442 73.5477 57.235 73.3474 57.235 73.1004V69.0753ZM58.1593 69.5226V72.6532H61.3944V69.5226H58.1593Z" fill="#192D68"/>
<path fill-rule="evenodd" clip-rule="evenodd" d="M57.235 75.3366C57.235 75.0896 57.442 74.8894 57.6972 74.8894H61.8565C62.1118 74.8894 62.3187 75.0896 62.3187 75.3366V79.3617C62.3187 79.6087 62.1118 79.809 61.8565 79.809H57.6972C57.442 79.809 57.235 79.6087 57.235 79.3617V75.3366ZM58.1593 75.7838V78.9145H61.3944V75.7838H58.1593Z" fill="#192D68"/>
<path fill-rule="evenodd" clip-rule="evenodd" d="M57.235 81.5979C57.235 81.3509 57.442 81.1506 57.6972 81.1506H61.8565C62.1118 81.1506 62.3187 81.3509 62.3187 81.5979V85.623C62.3187 85.87 62.1118 86.0702 61.8565 86.0702H57.6972C57.442 86.0702 57.235 85.87 57.235 85.623V81.5979ZM58.1593 82.0451V85.1758H61.3944V82.0451H58.1593Z" fill="#192D68"/>
<path fill-rule="evenodd" clip-rule="evenodd" d="M64.1674 69.0753C64.1674 68.8283 64.3743 68.6281 64.6295 68.6281H68.7889C69.0441 68.6281 69.251 68.8283 69.251 69.0753V73.1004C69.251 73.3474 69.0441 73.5477 68.7889 73.5477H64.6295C64.3743 73.5477 64.1674 73.3474 64.1674 73.1004V69.0753ZM65.0917 69.5226V72.6532H68.3267V69.5226H65.0917Z" fill="#192D68"/>
<path fill-rule="evenodd" clip-rule="evenodd" d="M64.1674 75.3366C64.1674 75.0896 64.3743 74.8894 64.6295 74.8894H68.7889C69.0441 74.8894 69.251 75.0896 69.251 75.3366V79.3617C69.251 79.6087 69.0441 79.809 68.7889 79.809H64.6295C64.3743 79.809 64.1674 79.6087 64.1674 79.3617V75.3366ZM65.0917 75.7838V78.9145H68.3267V75.7838H65.0917Z" fill="#192D68"/>
<path fill-rule="evenodd" clip-rule="evenodd" d="M64.1674 81.5979C64.1674 81.3509 64.3743 81.1506 64.6295 81.1506H68.7889C69.0441 81.1506 69.251 81.3509 69.251 81.5979V85.623C69.251 85.87 69.0441 86.0702 68.7889 86.0702H64.6295C64.3743 86.0702 64.1674 85.87 64.1674 85.623V81.5979ZM65.0917 82.0451V85.1758H68.3267V82.0451H65.0917Z" fill="#192D68"/>
<path fill-rule="evenodd" clip-rule="evenodd" d="M71.0995 62.814C71.0995 62.567 71.3064 62.3668 71.5616 62.3668H75.721C75.9762 62.3668 76.1831 62.567 76.1831 62.814V66.8391C76.1831 67.0861 75.9762 67.2864 75.721 67.2864H71.5616C71.3064 67.2864 71.0995 67.0861 71.0995 66.8391V62.814ZM72.0238 63.2612V66.3919H75.2588V63.2612H72.0238Z" fill="#192D68"/>
<path fill-rule="evenodd" clip-rule="evenodd" d="M71.0995 69.0753C71.0995 68.8283 71.3064 68.6281 71.5616 68.6281H75.721C75.9762 68.6281 76.1831 68.8283 76.1831 69.0753V73.1004C76.1831 73.3474 75.9762 73.5477 75.721 73.5477H71.5616C71.3064 73.5477 71.0995 73.3474 71.0995 73.1004V69.0753ZM72.0238 69.5226V72.6532H75.2588V69.5226H72.0238Z" fill="#192D68"/>
<path fill-rule="evenodd" clip-rule="evenodd" d="M71.0995 75.3366C71.0995 75.0896 71.3064 74.8894 71.5616 74.8894H75.721C75.9762 74.8894 76.1831 75.0896 76.1831 75.3366V79.3617C76.1831 79.6087 75.9762 79.809 75.721 79.809H71.5616C71.3064 79.809 71.0995 79.6087 71.0995 79.3617V75.3366ZM72.0238 75.7838V78.9145H75.2588V75.7838H72.0238Z" fill="#192D68"/>
<path fill-rule="evenodd" clip-rule="evenodd" d="M71.0995 81.5979C71.0995 81.3509 71.3064 81.1506 71.5616 81.1506H75.721C75.9762 81.1506 76.1831 81.3509 76.1831 81.5979V85.623C76.1831 85.87 75.9762 86.0702 75.721 86.0702H71.5616C71.3064 86.0702 71.0995 85.87 71.0995 85.623V81.5979ZM72.0238 82.0451V85.1758H75.2588V82.0451H72.0238Z" fill="#192D68"/>
<path fill-rule="evenodd" clip-rule="evenodd" d="M78.0316 62.814C78.0316 62.567 78.2386 62.3668 78.4938 62.3668H82.6531C82.9084 62.3668 83.1153 62.567 83.1153 62.814V66.8391C83.1153 67.0861 82.9084 67.2864 82.6531 67.2864H78.4938C78.2386 67.2864 78.0316 67.0861 78.0316 66.8391V62.814ZM78.9559 63.2612V66.3919H82.191V63.2612H78.9559Z" fill="#192D68"/>
<path fill-rule="evenodd" clip-rule="evenodd" d="M78.0316 69.0753C78.0316 68.8283 78.2386 68.6281 78.4938 68.6281H82.6531C82.9084 68.6281 83.1153 68.8283 83.1153 69.0753V73.1004C83.1153 73.3474 82.9084 73.5477 82.6531 73.5477H78.4938C78.2386 73.5477 78.0316 73.3474 78.0316 73.1004V69.0753ZM78.9559 69.5226V72.6532H82.191V69.5226H78.9559Z" fill="#192D68"/>
<path fill-rule="evenodd" clip-rule="evenodd" d="M78.0316 75.3366C78.0316 75.0896 78.2386 74.8894 78.4938 74.8894H82.6531C82.9084 74.8894 83.1153 75.0896 83.1153 75.3366V79.3617C83.1153 79.6087 82.9084 79.809 82.6531 79.809H78.4938C78.2386 79.809 78.0316 79.6087 78.0316 79.3617V75.3366ZM78.9559 75.7838V78.9145H82.191V75.7838H78.9559Z" fill="#192D68"/>
<path fill-rule="evenodd" clip-rule="evenodd" d="M78.0316 81.5979C78.0316 81.3509 78.2386 81.1506 78.4938 81.1506H82.6531C82.9084 81.1506 83.1153 81.3509 83.1153 81.5979V85.623C83.1153 85.87 82.9084 86.0702 82.6531 86.0702H78.4938C78.2386 86.0702 78.0316 85.87 78.0316 85.623V81.5979ZM78.9559 82.0451V85.1758H82.191V82.0451H78.9559Z" fill="#192D68"/>
<path d="M54 56.25C53.5858 56.25 53.25 56.5858 53.25 57V88.6619C53.25 89.0761 53.5858 89.4119 54 89.4119H86.2563C86.6706 89.4119 87.0063 89.0761 87.0063 88.6619V69.1443C87.0063 68.7301 86.6706 68.3943 86.2563 68.3943C85.8421 68.3943 85.5063 68.7301 85.5063 69.1443V87.9119H54.75V60.4698H85.5063V64.8266C85.5063 65.2408 85.8421 65.5766 86.2563 65.5766C86.6706 65.5766 87.0063 65.2408 87.0063 64.8266V57C87.0063 56.5858 86.6706 56.25 86.2563 56.25H54Z" fill="#192D68"/>
</svg>
