<svg width="100" height="100" viewBox="0 0 100 100" fill="none" xmlns="http://www.w3.org/2000/svg">
<path fill-rule="evenodd" clip-rule="evenodd" d="M9 22C9 19.7909 10.7909 18 13 18H30H50H87C89.2091 18 91 19.7909 91 22V44.5V57.25C91 57.8023 90.5523 58.25 90 58.25C89.4477 58.25 89 57.8023 89 57.25V44.5V22C89 20.8954 88.1046 20 87 20H50H30H13C11.8954 20 11 20.8954 11 22V31.75C11 32.3023 10.5523 32.75 10 32.75C9.44772 32.75 9 32.3023 9 31.75V22ZM10 38.5C10.5523 38.5 11 38.9477 11 39.5V44.5V67C11 68.1046 11.8954 69 13 69H44H55H87C88.1046 69 89 68.1046 89 67V65C89 64.4477 89.4477 64 90 64C90.5523 64 91 64.4477 91 65V67C91 69.2091 89.2091 71 87 71H56V77H68C69.1046 77 70 77.8954 70 79V81C70 82.1046 69.1046 83 68 83H32C30.8954 83 30 82.1046 30 81V79C30 77.8954 30.8954 77 32 77H43V71H13C10.7909 71 9 69.2091 9 67V44.5V39.5C9 38.9477 9.44772 38.5 10 38.5ZM45 71V77H54V71H45Z" fill="#192D68"/>
<circle cx="50" cy="45" r="15" fill="#192D68"/>
<path d="M50 35.625V53.4375M53.9663 37.2443H48.5577C47.697 37.2443 46.8716 37.6282 46.263 38.3115C45.6544 38.9947 45.3125 39.9215 45.3125 40.8878C45.3125 41.8541 45.6544 42.7808 46.263 43.4641C46.8716 44.1474 47.697 44.5312 48.5577 44.5312M46.0337 51.8182H51.4423C51.8685 51.8182 52.2905 51.7239 52.6842 51.5408C53.0779 51.3577 53.4357 51.0894 53.737 50.751C54.0383 50.4127 54.2774 50.0111 54.4405 49.569C54.6036 49.127 54.6875 48.6532 54.6875 48.1747C54.6875 47.6962 54.6036 47.2225 54.4405 46.7804C54.2774 46.3384 54.0383 45.9367 53.737 45.5984C53.4357 45.2601 53.0779 44.9917 52.6842 44.8086C52.2905 44.6255 51.8685 44.5312 51.4423 44.5312H48.5577" stroke="#D4EEF8" stroke-width="2" stroke-linecap="round" stroke-linejoin="round"/>
</svg>
