<svg width="100" height="100" viewBox="0 0 100 100" fill="none" xmlns="http://www.w3.org/2000/svg">
<path fill-rule="evenodd" clip-rule="evenodd" d="M49.1827 6.38719L48 8L46.8173 6.38719C47.5212 5.87094 48.4787 5.87094 49.1827 6.38719ZM55.08 16.909L57.05 18.9828C57.8107 19.7837 59.0766 19.8161 59.8775 19.0554C60.6783 18.2946 60.7108 17.0287 59.95 16.2279L57.95 14.1225C57.93 14.1015 57.9096 14.0809 57.8887 14.0607L54.8887 11.1661C54.8744 11.1523 54.8599 11.1387 54.8452 11.1253C53.1838 9.61531 51.7787 8.43858 50.7844 7.63595C50.2872 7.23454 49.8922 6.9264 49.619 6.71663C49.4823 6.61174 49.376 6.53142 49.3025 6.47631C49.2658 6.44875 49.2372 6.42749 49.2171 6.41261L49.1935 6.39509L49.1842 6.38826L49.1827 6.38719C49.1826 6.38708 49.1827 6.38719 48 8C46.8173 6.38719 46.8167 6.38763 46.816 6.38814L46.814 6.3896L46.808 6.39404L46.7878 6.40894L46.7156 6.46273C46.6535 6.50918 46.5638 6.57677 46.4484 6.66499C46.2176 6.84142 45.8838 7.10048 45.4615 7.43826C44.6173 8.11368 43.4186 9.10473 41.9838 10.3802C39.1166 12.9288 35.2923 16.6251 31.4636 21.2196C23.8497 30.3563 16 43.3069 16 58C16 75.6725 30.3274 90 48 90C65.6726 90 80 75.6725 80 58V56C80 54.8954 79.1045 54 78 54C76.8954 54 76 54.8954 76 56V58C76 73.4634 63.4634 86 48 86C32.5366 86 20 73.4634 20 58C20 44.6931 27.1503 32.6437 34.5364 23.7804C38.2077 19.3749 41.8834 15.8212 44.6412 13.3698C46.0188 12.1453 47.164 11.1988 47.9603 10.5617C47.9736 10.5511 47.9869 10.5405 48 10.53C48.0864 10.5991 48.1772 10.6719 48.272 10.7484C49.2088 11.5047 50.5458 12.6238 52.1329 14.0655L55.08 16.909Z" fill="#192D68"/>
<path d="M19 58.3673C19 73.0757 31.3127 85 46.5 85C61.6873 85 74 73.0757 74 58.3673C74 58.3673 57.5 63.6939 46.5 58.3673C35.5 53.0408 19 58.3673 19 58.3673Z" fill="#D4EEF8"/>
<path fill-rule="evenodd" clip-rule="evenodd" d="M28.2519 53.7654C34.3707 53.0006 42.3567 52.9423 48.8944 56.2111C54.3567 58.9423 61.3707 59.0006 67.2519 58.2654C70.1537 57.9027 72.6976 57.3578 74.5149 56.9035C75.4222 56.6766 76.1449 56.4733 76.6364 56.328C76.8821 56.2555 77.0698 56.1975 77.1936 56.1584C77.2556 56.1389 77.3015 56.1241 77.3307 56.1147L77.3619 56.1045L77.3675 56.1026C77.9772 55.8996 78.6481 56.0018 79.1694 56.3775C79.6909 56.7534 80 57.3571 80 58C80 75.6726 65.6726 90 48 90C30.3274 90 16 75.6726 16 58C16 57.1391 16.5509 56.3749 17.3675 56.1026L18 58C17.3675 56.1026 17.3681 56.1024 17.3687 56.1022L17.3746 56.1003L17.3881 56.0958L17.4347 56.0806C17.4744 56.0677 17.531 56.0496 17.6038 56.0266C17.7495 55.9807 17.9602 55.9156 18.2302 55.8359C18.7699 55.6764 19.5472 55.4579 20.5149 55.216C22.4477 54.7328 25.1537 54.1527 28.2519 53.7654ZM20.0384 59.4784C20.8071 74.2546 33.0325 86 48 86C62.5575 86 74.521 74.8893 75.8728 60.6858C75.7472 60.718 75.6179 60.7508 75.4851 60.784C73.5523 61.2672 70.8462 61.8473 67.7481 62.2345C61.6293 62.9994 53.6433 63.0577 47.1056 59.7888C41.6433 57.0577 34.6293 56.9994 28.7481 57.7345C25.8463 58.0973 23.3023 58.6422 21.4851 59.0965C20.9303 59.2352 20.4445 59.3652 20.0384 59.4784Z" fill="#192D68"/>
<path fill-rule="evenodd" clip-rule="evenodd" d="M66.7171 15.9087L65.9194 21.052C65.5536 23.4112 63.7075 25.2649 61.3498 25.6405L55.7698 26.5296L55.2195 28.5491L59.5613 31.9811C61.4605 33.4824 62.1548 36.049 61.2713 38.303L59.227 43.5188L60.7102 44.9894L65.9483 42.9365C68.186 42.0595 70.7341 42.737 72.2406 44.6097L75.4897 48.6485L77.8186 48.0245L78.6131 42.9022C78.9814 40.5272 80.8493 38.6663 83.2258 38.307L88.8006 37.464L89.376 35.4218L84.995 31.878C83.1603 30.394 82.4768 27.9049 83.2962 25.6919L83.6245 24.8055C84.008 23.7696 85.1587 23.2409 86.1945 23.6245C87.2304 24.008 87.7591 25.1587 87.3755 26.1945L87.0473 27.081C86.8238 27.6845 87.0102 28.3633 87.5106 28.7681L92.4039 32.7263C93.3365 33.4806 93.7301 34.7178 93.4048 35.8723L92.4757 39.1698C92.1561 40.3042 91.202 41.1464 90.0367 41.3226L83.8238 42.262C83.1757 42.36 82.6663 42.8675 82.5658 43.5153L81.6715 49.2815C81.4894 50.4558 80.6313 51.4119 79.4834 51.7195L75.8955 52.6809C74.7477 52.9884 73.5264 52.5895 72.7816 51.6636L69.124 47.117C68.7131 46.6063 68.0182 46.4215 67.4079 46.6607L61.5633 48.9513C60.4573 49.3847 59.1998 49.1248 58.3563 48.2884L55.9438 45.8962C55.0937 45.0533 54.8261 43.7858 55.263 42.6712L57.5472 36.8433C57.7881 36.2286 57.5988 35.5286 57.0808 35.1192L52.2206 31.2774C51.2774 30.5318 50.8704 29.2952 51.1864 28.1352L52.0802 24.855C52.3902 23.7172 53.3381 22.8665 54.5027 22.681L60.7204 21.6904C61.3634 21.5879 61.8669 21.0823 61.9667 20.4389L62.8643 14.6517C63.0464 13.4774 63.9045 12.5213 65.0524 12.2137L68.6403 11.2523C69.7881 10.9447 71.0093 11.3437 71.7542 12.2696L75.4251 16.8328C75.8333 17.3401 76.5221 17.5262 77.1301 17.2934L82.9893 15.0504C84.1225 14.6166 85.4054 14.9082 86.2398 15.7891L88.452 18.1246C89.2116 18.9266 89.1773 20.1924 88.3754 20.952C87.5734 21.7116 86.3076 21.6773 85.548 20.8754L83.7953 19.025L78.5602 21.029C76.3306 21.8825 73.8049 21.2002 72.3085 19.34L69.046 15.2847L66.7171 15.9087Z" fill="#192D68"/>
<path d="M77.2909 30.5171C78.0432 33.3246 76.4189 36.2484 73.6393 36.9932C70.8597 37.738 67.9752 36.0223 67.223 33.2148C66.4707 30.4073 68.1625 27.672 70.9421 26.9273C73.7217 26.1825 76.5387 27.7096 77.2909 30.5171Z" fill="#D4EEF8"/>
<path fill-rule="evenodd" clip-rule="evenodd" d="M71.4598 28.8591C69.6861 29.3343 68.7045 31.0165 69.1548 32.6972C69.631 34.4742 71.4451 35.5106 73.1217 35.0614C74.7904 34.6142 75.8374 32.8198 75.3591 31.0347C74.9067 29.3463 73.2254 28.386 71.4598 28.8591ZM65.2911 33.7325C64.2369 29.798 66.639 26.0097 70.4245 24.9954C74.2181 23.9789 78.1707 26.0728 79.2228 29.9995C80.2491 33.8295 78.0474 37.8826 74.157 38.9251C70.2743 39.9654 66.3195 37.5704 65.2911 33.7325Z" fill="#192D68"/>
</svg>
