<svg width="100" height="100" viewBox="0 0 100 100" fill="none" xmlns="http://www.w3.org/2000/svg">
<path fill-rule="evenodd" clip-rule="evenodd" d="M18 12C17.4477 12 17 12.4477 17 13V59.2525C17 59.8048 17.4477 60.2525 18 60.2525C18.5523 60.2525 19 59.8048 19 59.2525V22.3808H74.3271V42.5C74.3271 43.0523 74.7748 43.5 75.3271 43.5C75.8794 43.5 76.3271 43.0523 76.3271 42.5V13C76.3271 12.4477 75.8794 12 75.3271 12H18ZM74.3271 14.0423V14H19V14.0423H74.3271ZM58.6501 17.1269C58.6501 16.5746 59.0978 16.1269 59.6501 16.1269H67.0309C67.5831 16.1269 68.0309 16.5746 68.0309 17.1269V19.2962C68.0309 19.8485 67.5831 20.2962 67.0309 20.2962H59.6501C59.0978 20.2962 58.6501 19.8485 58.6501 19.2962V17.1269ZM48.1847 16.1269C47.6324 16.1269 47.1847 16.5746 47.1847 17.1269V19.2962C47.1847 19.8485 47.6324 20.2962 48.1847 20.2962H55.5655C56.1178 20.2962 56.5655 19.8485 56.5655 19.2962V17.1269C56.5655 16.5746 56.1178 16.1269 55.5655 16.1269H48.1847ZM35.7192 17.1269C35.7192 16.5746 36.1669 16.1269 36.7192 16.1269H44.1C44.6523 16.1269 45.1 16.5746 45.1 17.1269V19.2962C45.1 19.8485 44.6523 20.2962 44.1 20.2962H36.7192C36.1669 20.2962 35.7192 19.8485 35.7192 19.2962V17.1269Z" fill="#192D68"/>
<path d="M19 68.503C19 67.9507 18.5523 67.503 18 67.503C17.4477 67.503 17 67.9507 17 68.503V87.004C17 87.5563 17.4477 88.004 18 88.004H51.5C52.0523 88.004 52.5 87.5563 52.5 87.004C52.5 86.4517 52.0523 86.004 51.5 86.004H19V68.503Z" fill="#192D68"/>
<path d="M59.8126 87.8744L66.3119 82.0637L80.6307 56.7631L75.012 53.4539L60.6932 78.7544L59.0101 87.4017C58.9191 87.8694 59.4611 88.1886 59.8126 87.8744Z" fill="#192D68"/>
<path d="M75.6939 52.2491L81.3125 55.5583L82.8687 52.8086C83.139 52.3311 82.9786 51.7205 82.5105 51.4448L78.587 49.1339C78.1189 48.8582 77.5204 49.0218 77.2501 49.4994L75.6939 52.2491Z" fill="#192D68"/>
<path d="M30 33C29.4477 33 29 33.4477 29 34C29 34.5523 29.4477 35 30 35H64C64.5523 35 65 34.5523 65 34C65 33.4477 64.5523 33 64 33H30Z" fill="#D4EEF8"/>
<path d="M30 43C29.4477 43 29 43.4477 29 44C29 44.5523 29.4477 45 30 45H57C57.5523 45 58 44.5523 58 44C58 43.4477 57.5523 43 57 43H30Z" fill="#D4EEF8"/>
<path d="M29 54C29 53.4477 29.4477 53 30 53H49C49.5523 53 50 53.4477 50 54C50 54.5523 49.5523 55 49 55H30C29.4477 55 29 54.5523 29 54Z" fill="#D4EEF8"/>
<path d="M30 62C29.4477 62 29 62.4477 29 63C29 63.5523 29.4477 64 30 64H41C41.5523 64 42 63.5523 42 63C42 62.4477 41.5523 62 41 62H30Z" fill="#D4EEF8"/>
</svg>
