<svg width="100" height="99" viewBox="0 0 100 99" fill="none" xmlns="http://www.w3.org/2000/svg">
<path d="M20 11.88C15.0294 11.88 11 15.8691 11 20.79V49.005C11 49.5518 11.4477 49.995 12 49.995C12.5523 49.995 13 49.5518 13 49.005V20.79C13 16.9627 16.134 13.86 20 13.86H56C59.866 13.86 63 16.9627 63 20.79V23.76C63 24.3068 63.4477 24.75 64 24.75C64.5523 24.75 65 24.3068 65 23.76V20.79C65 15.8691 60.9706 11.88 56 11.88H20Z" fill="#192D68"/>
<path d="M65 32.175C65 31.6282 64.5523 31.185 64 31.185C63.4477 31.185 63 31.6282 63 32.175V53.46C63 54.0068 63.4477 54.45 64 54.45C64.5523 54.45 65 54.0068 65 53.46V32.175Z" fill="#192D68"/>
<path d="M13 58.0387C13 57.492 12.5523 57.0487 12 57.0487C11.4477 57.0487 11 57.492 11 58.0387V83.16C11 84.8003 12.3431 86.13 14 86.13L46.5 86.13C47.0523 86.13 47.5 85.6868 47.5 85.14C47.5 84.5932 47.0523 84.15 46.5 84.15L14 84.15C13.4477 84.15 13 83.7068 13 83.16V58.0387Z" fill="#192D68"/>
<path d="M88.8273 52.0041C89.1374 52.4565 89.0184 53.0722 88.5615 53.3792L70.1498 65.7519L61.1498 62.7279L52.5616 68.4992C52.1047 68.8063 51.4828 68.6885 51.1726 68.2361C50.8624 67.7837 50.9814 67.168 51.4384 66.861L60.8501 60.5363L69.8501 63.5603L87.4382 51.741C87.8952 51.4339 88.5171 51.5517 88.8273 52.0041Z" fill="#192D68"/>
<path d="M82.5455 85.14V62.0761L88.0001 58.4107V85.14C88.0001 86.2336 87.1046 87.12 86.0001 87.12H84.5455C83.441 87.12 82.5455 86.2336 82.5455 85.14Z" fill="#192D68"/>
<path d="M74.9091 67.2078V85.14C74.9091 86.2335 75.8045 87.12 76.9091 87.12H78.3636C79.4682 87.12 80.3636 86.2335 80.3636 85.14V63.5423L74.9091 67.2078Z" fill="#192D68"/>
<path d="M59.6365 68.399V85.14C59.6365 86.2335 60.5319 87.12 61.6365 87.12H63.091C64.1956 87.12 65.091 86.2335 65.091 85.14V68.5276L61.327 67.2629L59.6365 68.399Z" fill="#192D68"/>
<path d="M52 73.5307V85.1399C52 86.2335 52.8954 87.1199 54 87.1199H55.4545C56.5591 87.1199 57.4545 86.2335 57.4545 85.14V69.8652L52 73.5307Z" fill="#192D68"/>
<path d="M67.2728 85.14V69.2608L70.327 70.287L72.7274 68.674V85.14C72.7274 86.2336 71.8319 87.12 70.7274 87.12H69.2728C68.1683 87.12 67.2728 86.2336 67.2728 85.14Z" fill="#192D68"/>
<rect x="20" y="20.79" width="36" height="8.91" rx="2" fill="#D4EEF8"/>
<rect x="20" y="50.49" width="36" height="8.91" rx="2" fill="#D4EEF8"/>
<rect x="20" y="65.34" width="28" height="8.91" rx="2" fill="#D4EEF8"/>
<rect x="20" y="35.64" width="36" height="8.91" rx="2" fill="#D4EEF8"/>
</svg>
