<svg width="92" height="92" viewBox="0 0 92 92" fill="none" xmlns="http://www.w3.org/2000/svg">
<path fill-rule="evenodd" clip-rule="evenodd" d="M53 17L23 17L13 17L13 27.752L13 43.88L13 49.256L13 70.76H41L41 62.2L41 57L41 41.4L41 31L51.75 31H53L53 17Z" fill="#D4EEF8"/>
<path d="M41 22H17C16.4477 22 16 22.4477 16 23C16 23.5523 16.4477 24 17 24H41C41.5523 24 42 23.5523 42 23C42 22.4477 41.5523 22 41 22Z" fill="#192D68"/>
<path d="M36 31H17C16.4477 31 16 31.4477 16 32C16 32.5523 16.4477 33 17 33H36C36.5523 33 37 32.5523 37 32C37 31.4477 36.5523 31 36 31Z" fill="#192D68"/>
<path d="M32 40H17C16.4477 40 16 40.4477 16 41C16 41.5523 16.4477 42 17 42H32C32.5523 42 33 41.5523 33 41C33 40.4477 32.5523 40 32 40Z" fill="#192D68"/>
<path d="M25 49H17C16.4477 49 16 49.4477 16 50C16 50.5523 16.4477 51 17 51H25C25.5523 51 26 50.5523 26 50C26 49.4477 25.5523 49 25 49Z" fill="#192D68"/>
<path fill-rule="evenodd" clip-rule="evenodd" d="M8 7C7.44772 7 7 7.44772 7 8V42V50.5C7 51.0523 7.44772 51.5 8 51.5C8.55228 51.5 9 51.0523 9 50.5V42V13H57V25.5C57 26.0523 57.4477 26.5 58 26.5C58.5523 26.5 59 26.0523 59 25.5V8C59 7.44772 58.5523 7 58 7H8ZM9 59C9 58.4477 8.55228 58 8 58C7.44772 58 7 58.4477 7 59V76C7 76.5523 7.44772 77 8 77H16H35.5C36.0523 77 36.5 76.5523 36.5 76C36.5 75.4477 36.0523 75 35.5 75H16H9V59Z" fill="#192D68"/>
<path d="M69.9592 84L41 84L41 62.8L41 57.5L41 41.6L41 31L51.75 31L67.875 31L84 45.3361L84 67.4918L84 84L78.625 84" stroke="#192D68" stroke-width="2" stroke-linecap="round" stroke-linejoin="round"/>
</svg>
