<svg width="100" height="100" viewBox="0 0 100 100" fill="none" xmlns="http://www.w3.org/2000/svg">
<path d="M28.3333 40.914V66.2388C28.3333 66.2388 38.3455 65.861 50 71.6667C61.6545 65.861 71.6667 66.2388 71.6667 66.2388V40.914C71.6667 40.914 59.8497 40.914 50 46.3418C40.1503 40.914 28.3333 40.914 28.3333 40.914Z" fill="#D4EEF8"/>
<path d="M28.3333 66.2388V40.914C28.3333 40.914 40.1503 40.914 50 46.3418V71.6667C38.3455 65.861 28.3333 66.2388 28.3333 66.2388Z" fill="#192D68"/>
<path d="M50 40.914C53.4741 40.914 56.2904 38.0977 56.2904 34.6236C56.2904 31.1496 53.4741 28.3333 50 28.3333C46.526 28.3333 43.7097 31.1496 43.7097 34.6236C43.7097 38.0977 46.526 40.914 50 40.914Z" fill="#192D68"/>
<path d="M51.2197 10.0186C41.4498 9.72057 31.9089 13.0101 24.3987 19.2661C16.8885 25.5221 11.9289 34.3114 10.4565 43.9743C10.3733 44.5203 10.7485 45.0304 11.2944 45.1136C11.8404 45.1968 12.3505 44.8216 12.4337 44.2756C13.8325 35.0959 18.5441 26.746 25.6788 20.8028C32.8135 14.8596 41.8773 11.7345 51.1587 12.0177C60.4402 12.3008 69.2967 15.9726 76.0558 22.3396C82.8149 28.7067 87.0088 37.3282 87.8455 46.5762C87.8952 47.1262 88.3815 47.5318 88.9315 47.482C89.4816 47.4323 89.8871 46.946 89.8373 46.396C88.9567 36.6613 84.542 27.586 77.4272 20.8838C70.3123 14.1817 60.9896 10.3167 51.2197 10.0186Z" fill="#192D68"/>
<path d="M12.0392 51.7258C12.0141 51.1741 11.5465 50.7472 10.9948 50.7723C10.4431 50.7974 10.0162 51.2649 10.0413 51.8167C10.4995 61.896 14.75 71.4299 21.9409 78.5077C29.1318 85.5854 38.7318 89.6842 48.8172 89.9825C58.9026 90.2809 68.7281 86.7568 76.3249 80.1165C83.9216 73.4762 88.7282 64.2102 89.7815 54.1756C89.8391 53.6263 89.4406 53.1343 88.8913 53.0767C88.342 53.019 87.85 53.4175 87.7924 53.9668C86.7918 63.4997 82.2255 72.3024 75.0086 78.6106C67.7917 84.9189 58.4575 88.2668 48.8764 87.9834C39.2952 87.7 30.1752 83.8062 23.3438 77.0823C16.5125 70.3584 12.4745 61.3012 12.0392 51.7258Z" fill="#192D68"/>
</svg>
