<svg width="100" height="99" viewBox="0 0 100 99" fill="none" xmlns="http://www.w3.org/2000/svg">
<path fill-rule="evenodd" clip-rule="evenodd" d="M32.6667 53.955V78.375H24.6667V53.955H32.6667Z" fill="#D4EEF8"/>
<path fill-rule="evenodd" clip-rule="evenodd" d="M45.1667 45.705V78.375H37.1667V45.705H45.1667Z" fill="#D4EEF8"/>
<path fill-rule="evenodd" clip-rule="evenodd" d="M57.6667 49.83L57.6667 78.375L49.6667 78.375L49.6667 49.83H57.6667Z" fill="#D4EEF8"/>
<path fill-rule="evenodd" clip-rule="evenodd" d="M70.1667 41.58V78.375H62.1667V41.58H70.1667Z" fill="#D4EEF8"/>
<path fill-rule="evenodd" clip-rule="evenodd" d="M82.6667 33.33V53.625H74.6667V33.33H82.6667ZM82.6667 68.3925V78.375H74.6667V68.3925H82.6667Z" fill="#D4EEF8"/>
<path fill-rule="evenodd" clip-rule="evenodd" d="M12 19.8C12.5523 19.8 13 20.2432 13 20.79V45.705C13 46.2518 12.5523 46.695 12 46.695C11.4477 46.695 11 46.2518 11 45.705V20.79C11 20.2432 11.4477 19.8 12 19.8ZM12 52.8C12.5523 52.8 13 53.2432 13 53.79V85.8H87C87.5523 85.8 88 86.2432 88 86.79C88 87.3368 87.5523 87.78 87 87.78H12C11.4477 87.78 11 87.3368 11 86.79V53.79C11 53.2432 11.4477 52.8 12 52.8Z" fill="#192D68"/>
<path fill-rule="evenodd" clip-rule="evenodd" d="M79.4987 20.2408C79.8051 20.6958 79.6809 21.3104 79.2214 21.6137L54.2214 38.1137C53.9646 38.2832 53.6432 38.3258 53.3505 38.2292L41.3144 34.2573L29.2214 42.2387C28.7619 42.542 28.141 42.4191 27.8346 41.9642C27.5283 41.5092 27.6525 40.8946 28.112 40.5913L40.612 32.3413C40.8687 32.1718 41.1902 32.1292 41.4829 32.2258L53.5189 36.1977L78.112 19.9663C78.5715 19.663 79.1924 19.7859 79.4987 20.2408Z" fill="#192D68"/>
<path d="M92 60.885C92 68.2663 85.9558 74.25 78.5 74.25C71.0442 74.25 65 68.2663 65 60.885C65 53.5037 71.0442 47.52 78.5 47.52C85.9558 47.52 92 53.5037 92 60.885Z" fill="#192D68"/>
<path fill-rule="evenodd" clip-rule="evenodd" d="M78.5 52.9452C79.0523 52.9452 79.5 53.3884 79.5 53.9352V54.2088H81.6985C82.2507 54.2088 82.6985 54.652 82.6985 55.1988C82.6985 55.7456 82.2507 56.1888 81.6985 56.1888H79.5V59.895H79.6631C80.1517 59.895 80.6329 59.9997 81.0783 60.2002C81.5235 60.4005 81.9216 60.6912 82.2527 61.0509C82.5836 61.4104 82.8417 61.8323 83.0164 62.2905C83.191 62.7486 83.28 63.2369 83.28 63.7281C83.28 64.2193 83.191 64.7076 83.0164 65.1657C82.8417 65.6239 82.5836 66.0458 82.2527 66.4053C81.9216 66.765 81.5235 67.0557 81.0783 67.256C80.6329 67.4565 80.1517 67.5612 79.6631 67.5612H79.5V67.8348C79.5 68.3816 79.0523 68.8248 78.5 68.8248C77.9477 68.8248 77.5 68.3816 77.5 67.8348V67.5612H75.3015C74.7493 67.5612 74.3015 67.118 74.3015 66.5712C74.3015 66.0244 74.7493 65.5812 75.3015 65.5812H77.5V61.875H77.3369C76.3461 61.875 75.4169 61.4465 74.7473 60.7191C74.0806 59.9947 73.72 59.0303 73.72 58.0419C73.72 57.0535 74.0806 56.0891 74.7473 55.3647C75.4169 54.6373 76.3461 54.2088 77.3369 54.2088H77.5V53.9352C77.5 53.3884 77.9477 52.9452 78.5 52.9452ZM77.5 56.1888H77.3369C76.9397 56.1888 76.5376 56.3594 76.2256 56.6983C75.9109 57.0403 75.72 57.5223 75.72 58.0419C75.72 58.5615 75.9109 59.0435 76.2256 59.3855C76.5376 59.7244 76.9397 59.895 77.3369 59.895H77.5V56.1888ZM79.5 61.875V65.5812H79.6631C79.8618 65.5812 80.0612 65.5388 80.2507 65.4535C80.4406 65.3681 80.6194 65.24 80.7744 65.0717C80.9295 64.9032 81.0569 64.6982 81.1452 64.4665C81.2336 64.2347 81.28 63.9836 81.28 63.7281C81.28 63.4726 81.2336 63.2215 81.1452 62.9897C81.0569 62.758 80.9295 62.5531 80.7744 62.3845C80.6194 62.2162 80.4406 62.0881 80.2507 62.0027C80.0612 61.9174 79.8618 61.875 79.6631 61.875H79.5Z" fill="#D4EEF8"/>
</svg>
