<svg width="100" height="100" viewBox="0 0 100 100" fill="none" xmlns="http://www.w3.org/2000/svg">
<path d="M71 13H15C12.2386 13 10 15.2386 10 18V21C10 23.7614 12.2386 26 15 26H71C73.7614 26 76 23.7614 76 21V18C76 15.2386 73.7614 13 71 13Z" fill="#D4EEF8"/>
<path d="M70 13H85C87.7614 13 90 15.2386 90 18V21C90 23.7614 87.7614 26 85 26H15C12.2386 26 10 23.7614 10 21V18C10 15.2386 12.2386 13 15 13H50H60" stroke="#192D68" stroke-width="2" stroke-linecap="round" stroke-linejoin="round"/>
<path d="M48 65H15C12.2386 65 10 67.2386 10 70V73C10 75.7614 12.2386 78 15 78H48C50.7614 78 53 75.7614 53 73V70C53 67.2386 50.7614 65 48 65Z" fill="#D4EEF8"/>
<path d="M59 78H30M84.5 78H85C87.7614 78 90 75.7614 90 73V70C90 67.2386 87.7614 65 85 65H79.5M64.5 65H15C12.2386 65 10 67.2386 10 70V73C10 75.7614 12.2386 78 15 78H20" stroke="#192D68" stroke-width="2" stroke-linecap="round" stroke-linejoin="round"/>
<path d="M64 39H15C12.2386 39 10 41.2386 10 44V47C10 49.7614 12.2386 52 15 52H64C66.7614 52 69 49.7614 69 47V44C69 41.2386 66.7614 39 64 39Z" fill="#D4EEF8"/>
<path d="M85 39H15C12.2386 39 10 41.2386 10 44V47C10 49.7614 12.2386 52 15 52H50H83H85C87.7614 52 90 49.7614 90 47V44C90 41.2386 87.7614 39 85 39Z" stroke="#192D68" stroke-width="2" stroke-linecap="round" stroke-linejoin="round"/>
<path d="M72 90C78.6272 90 84 84.6272 84 78C84 66.8 72 58 72 58C72 58 60 66.8 60 78C60 84.6272 65.3728 90 72 90Z" stroke="#192D68" stroke-width="2" stroke-linecap="round" stroke-linejoin="round"/>
<path d="M60.4 78.1469C60.4 84.0303 65.325 88.8 71.4 88.8C77.4749 88.8 82.4 84.0303 82.4 78.1469C82.4 78.1469 75.8 80.2776 71.4 78.1469C67 76.0163 60.4 78.1469 60.4 78.1469Z" fill="#D4EEF8"/>
<path d="M60 78C60 84.6272 65.3728 90 72 90C78.6272 90 84 84.6272 84 78C84 78 76.8 80.4 72 78C67.2 75.6 60 78 60 78Z" stroke="#192D68" stroke-width="2" stroke-linejoin="round"/>
</svg>
