<svg width="100" height="100" viewBox="0 0 100 100" fill="none" xmlns="http://www.w3.org/2000/svg">
<path d="M11.0864 30.7716C10.1038 31.2762 9.71629 32.4817 10.2209 33.4643C10.7254 34.4469 11.931 34.8344 12.9136 34.3299L11.0864 30.7716ZM87.2313 34.3299C88.2139 34.8344 89.4195 34.4469 89.9241 33.4643C90.4286 32.4817 90.0411 31.2762 89.0585 30.7716L87.2313 34.3299ZM49.1589 13.4692L48.2452 11.69L49.1589 13.4692ZM50.9861 13.4692L51.8997 11.69L50.9861 13.4692ZM12.9136 34.3299L50.0725 15.2483L48.2452 11.69L11.0864 30.7716L12.9136 34.3299ZM50.0725 15.2483L87.2313 34.3299L89.0585 30.7716L51.8997 11.69L50.0725 15.2483ZM50.0725 15.2483L51.8997 11.69C50.7527 11.101 49.3922 11.101 48.2452 11.69L50.0725 15.2483Z" fill="#192D68"/>
<path d="M79.8841 59.2174C79.8841 58.6651 79.4363 58.2174 78.8841 58.2174C78.3318 58.2174 77.8841 58.6651 77.8841 59.2174H79.8841ZM77.8841 52.7722C77.8841 53.3245 78.3318 53.7722 78.8841 53.7722C79.4363 53.7722 79.8841 53.3245 79.8841 52.7722H77.8841ZM31.0362 88C31.5885 88 32.0362 87.5523 32.0362 87C32.0362 86.4477 31.5885 86 31.0362 86V88ZM37.7246 86C37.1723 86 36.7246 86.4477 36.7246 87C36.7246 87.5523 37.1723 88 37.7246 88V86ZM49.1453 26.7749L48.6818 25.8888L49.1453 26.7749ZM50.9996 26.7749L51.4631 25.8888L50.9996 26.7749ZM77.8112 40.8016L78.2747 39.9156L77.8112 40.8016ZM22.3338 40.8016L22.7973 41.6877L22.3338 40.8016ZM22.2609 85V42.5738H20.2609V85H22.2609ZM22.7973 41.6877L49.6089 27.661L48.6818 25.8888L21.8702 39.9156L22.7973 41.6877ZM50.536 27.661L77.3476 41.6877L78.2747 39.9156L51.4631 25.8888L50.536 27.661ZM77.8841 59.2174V85H79.8841V59.2174H77.8841ZM77.8841 42.5738V52.7722H79.8841V42.5738H77.8841ZM76.8841 86H50.0725V88H76.8841V86ZM31.0362 86H23.2609V88H31.0362V86ZM50.0725 86H37.7246V88H50.0725V86ZM49.6089 27.661C49.8993 27.509 50.2456 27.509 50.536 27.661L51.4631 25.8888C50.592 25.4331 49.5529 25.4331 48.6818 25.8888L49.6089 27.661ZM20.2609 85C20.2609 86.6569 21.604 88 23.2609 88V86C22.7086 86 22.2609 85.5523 22.2609 85H20.2609ZM77.8841 85C77.8841 85.5523 77.4363 86 76.8841 86V88C78.5409 88 79.8841 86.6569 79.8841 85H77.8841ZM77.3476 41.6877C77.6774 41.8602 77.8841 42.2016 77.8841 42.5738H79.8841C79.8841 41.4573 79.264 40.4331 78.2747 39.9156L77.3476 41.6877ZM22.2609 42.5738C22.2609 42.2016 22.4675 41.8602 22.7973 41.6877L21.8702 39.9156C20.8809 40.4331 20.2609 41.4573 20.2609 42.5738H22.2609Z" fill="#192D68"/>
<path d="M52.1304 45.8116C52.1304 45.2593 52.5781 44.8116 53.1304 44.8116H57.2754V52.0145H60.3623H63.4493V44.8116H67.5942C68.1465 44.8116 68.5942 45.2593 68.5942 45.8116V60.2754C68.5942 60.8276 68.1465 61.2754 67.5942 61.2754H53.1304C52.5781 61.2754 52.1304 60.8276 52.1304 60.2754V45.8116Z" fill="#192D68"/>
<path d="M52.1304 66.3913C52.1304 65.839 52.5781 65.3913 53.1304 65.3913H57.2754V72.5942H60.3623H63.4493V65.3913H67.5942C68.1465 65.3913 68.5942 65.839 68.5942 66.3913V80.8551C68.5942 81.4073 68.1465 81.8551 67.5942 81.8551H53.1304C52.5781 81.8551 52.1304 81.4073 52.1304 80.8551V66.3913Z" fill="#D4EEF8"/>
<path d="M31.5507 45.8116C31.5507 45.2593 31.9984 44.8116 32.5507 44.8116H36.6956V52.0145H39.7826H42.8696V44.8116H47.0145C47.5668 44.8116 48.0145 45.2593 48.0145 45.8116V60.2754C48.0145 60.8276 47.5668 61.2754 47.0145 61.2754H32.5507C31.9984 61.2754 31.5507 60.8276 31.5507 60.2754V45.8116Z" fill="#D4EEF8"/>
<path d="M31.5507 66.3913C31.5507 65.839 31.9984 65.3913 32.5507 65.3913H36.6956V72.5942H39.7826H42.8696V65.3913H47.0145C47.5668 65.3913 48.0145 65.839 48.0145 66.3913V80.8551C48.0145 81.4073 47.5668 81.8551 47.0145 81.8551H32.5507C31.9984 81.8551 31.5507 81.4073 31.5507 80.8551V66.3913Z" fill="#192D68"/>
</svg>
