<svg width="99" height="99" viewBox="0 0 99 99" fill="none" xmlns="http://www.w3.org/2000/svg">
<path d="M23.7601 27.72C23.7601 27.1732 24.2033 26.73 24.7501 26.73H26.7301C27.2768 26.73 27.7201 27.1732 27.7201 27.72V29.7C27.7201 30.2468 27.2768 30.69 26.7301 30.69H24.7501C24.2033 30.69 23.7601 30.2468 23.7601 29.7V27.72Z" fill="#D4EEF8"/>
<path d="M30.69 27.72C30.69 27.1732 31.1333 26.73 31.68 26.73H63.36C63.9068 26.73 64.35 27.1732 64.35 27.72V29.7C64.35 30.2468 63.9068 30.69 63.36 30.69H31.68C31.1333 30.69 30.69 30.2468 30.69 29.7V27.72Z" fill="#D4EEF8"/>
<path d="M23.7601 37.62C23.7601 37.0732 24.2033 36.63 24.7501 36.63H26.7301C27.2768 36.63 27.7201 37.0732 27.7201 37.62V39.6C27.7201 40.1468 27.2768 40.59 26.7301 40.59H24.7501C24.2033 40.59 23.7601 40.1468 23.7601 39.6V37.62Z" fill="#D4EEF8"/>
<path d="M30.69 37.62C30.69 37.0732 31.1333 36.63 31.68 36.63H63.36C63.9068 36.63 64.35 37.0732 64.35 37.62V39.6C64.35 40.1468 63.9068 40.59 63.36 40.59H31.68C31.1333 40.59 30.69 40.1468 30.69 39.6V37.62Z" fill="#D4EEF8"/>
<path d="M23.7601 47.52C23.7601 46.9732 24.2033 46.53 24.7501 46.53H26.7301C27.2768 46.53 27.7201 46.9732 27.7201 47.52V49.5C27.7201 50.0468 27.2768 50.49 26.7301 50.49H24.7501C24.2033 50.49 23.7601 50.0468 23.7601 49.5V47.52Z" fill="#D4EEF8"/>
<path d="M30.69 47.52C30.69 46.9732 31.1333 46.53 31.68 46.53H63.36C63.9068 46.53 64.35 46.9732 64.35 47.52V49.5C64.35 50.0468 63.9068 50.49 63.36 50.49H31.68C31.1333 50.49 30.69 50.0468 30.69 49.5V47.52Z" fill="#D4EEF8"/>
<path d="M23.7601 57.42C23.7601 56.8732 24.2033 56.43 24.7501 56.43H26.7301C27.2768 56.43 27.7201 56.8732 27.7201 57.42V59.4C27.7201 59.9468 27.2768 60.39 26.7301 60.39H24.7501C24.2033 60.39 23.7601 59.9468 23.7601 59.4V57.42Z" fill="#D4EEF8"/>
<path d="M59.6565 60.39H63.36C63.9068 60.39 64.35 59.9468 64.35 59.4V58.4836C62.6666 58.864 61.086 59.5155 59.6565 60.39Z" fill="#D4EEF8"/>
<path d="M52.5417 60.39C53.8948 58.845 55.4785 57.5071 57.2392 56.43H31.68C31.1333 56.43 30.69 56.8732 30.69 57.42V59.4C30.69 59.9468 31.1333 60.39 31.68 60.39H52.5417Z" fill="#D4EEF8"/>
<path d="M78.2101 73.755C78.2101 79.496 73.5561 84.15 67.8151 84.15C62.0741 84.15 57.4201 79.496 57.4201 73.755C57.4201 68.014 62.0741 63.36 67.8151 63.36C73.5561 63.36 78.2101 68.014 78.2101 73.755Z" fill="#D4EEF8"/>
<path d="M67.8584 65.1545C66.5011 65.1476 65.1615 65.4621 63.9491 66.0722C62.7367 66.6823 61.6858 67.5707 60.8825 68.6647C60.0792 69.7587 59.5462 71.0273 59.3272 72.3668C59.1081 73.7062 59.2091 75.0786 59.6221 76.3715C59.7884 76.8923 59.501 77.4494 58.9802 77.6157C58.4593 77.7821 57.9022 77.4947 57.7359 76.9738C57.2279 75.3833 57.1036 73.695 57.3731 72.0472C57.6426 70.3993 58.2983 68.8387 59.2866 67.4928C60.2748 66.1469 61.5675 65.054 63.0591 64.3035C64.5506 63.553 66.1986 63.1661 67.8683 63.1745C69.538 63.1829 71.1821 63.5864 72.666 64.3519C74.1499 65.1174 75.4315 66.2233 76.4062 67.5791C77.3808 68.9348 78.0207 70.502 78.2736 72.1525C78.5265 73.803 78.3852 75.4899 77.8612 77.0753C77.6896 77.5944 77.1297 77.8762 76.6105 77.7046C76.0914 77.533 75.8096 76.9731 75.9812 76.4539C76.4071 75.1652 76.522 73.794 76.3164 72.4524C76.1109 71.1108 75.5907 69.8369 74.7985 68.7348C74.0062 67.6327 72.9644 66.7338 71.7582 66.1116C70.552 65.4893 69.2156 65.1613 67.8584 65.1545Z" fill="#192D68"/>
<path d="M66.9647 72.0352C66.9843 72.0255 67.004 72.0161 67.024 72.0071C66.3593 72.3084 65.897 72.9777 65.897 73.755C65.897 74.8144 66.7557 75.6731 67.8151 75.6731C68.8744 75.6731 69.7332 74.8144 69.7332 73.755C69.7332 73.001 69.2982 72.3487 68.6655 72.0352L67.8151 66.0825L66.9647 72.0352Z" fill="#192D68"/>
<path fill-rule="evenodd" clip-rule="evenodd" d="M51.4801 73.755C51.4801 64.7334 58.7935 57.42 67.8151 57.42C76.8367 57.42 84.1501 64.7334 84.1501 73.755C84.1501 82.7766 76.8367 90.09 67.8151 90.09C58.7935 90.09 51.4801 82.7766 51.4801 73.755ZM67.8151 59.4C59.887 59.4 53.4601 65.827 53.4601 73.755C53.4601 81.683 59.887 88.11 67.8151 88.11C75.7431 88.11 82.1701 81.683 82.1701 73.755C82.1701 65.827 75.7431 59.4 67.8151 59.4Z" fill="#192D68"/>
<path d="M16.83 11.88C16.2833 11.88 15.84 12.3232 15.84 12.87V58.0388C15.84 58.5855 16.2833 59.0288 16.83 59.0288C17.3768 59.0288 17.82 58.5855 17.82 58.0388V20.79H70.1511V50.985C70.1511 51.5318 70.5943 51.975 71.1411 51.975C71.6878 51.975 72.1311 51.5318 72.1311 50.985V12.87C72.1311 12.3232 71.6878 11.88 71.1411 11.88H16.83Z" fill="#192D68"/>
<path d="M17.82 67.0725C17.82 66.5257 17.3768 66.0825 16.83 66.0825C16.2833 66.0825 15.84 66.5257 15.84 67.0725V85.14C15.84 85.6868 16.2833 86.13 16.83 86.13H49.005C49.5518 86.13 49.995 85.6868 49.995 85.14C49.995 84.5932 49.5518 84.15 49.005 84.15H17.82V67.0725Z" fill="#192D68"/>
</svg>
