<svg width="100" height="99" viewBox="0 0 100 99" fill="none" xmlns="http://www.w3.org/2000/svg">
<path d="M10 58.3776C10 57.2841 10.8954 56.3976 12 56.3976H16.1699C17.2745 56.3976 18.1699 57.2841 18.1699 58.3776V75.0875C18.1699 76.181 17.2745 77.0675 16.1699 77.0675H12C10.8954 77.0675 10 76.181 10 75.0875V58.3776Z" fill="#D4EEF8"/>
<path d="M31.9727 9.9C29.2112 9.9 26.9727 12.1162 26.9727 14.85V47.5878C26.9727 48.1346 27.4204 48.5778 27.9727 48.5778C28.5249 48.5778 28.9727 48.1346 28.9727 47.5878V14.85C28.9727 13.2097 30.3158 11.88 31.9727 11.88H68.9042C70.561 11.88 71.9042 13.2097 71.9042 14.85V23.1226C71.9042 23.6694 72.3519 24.1126 72.9042 24.1126C73.4565 24.1126 73.9042 23.6694 73.9042 23.1226V14.85C73.9042 12.1162 71.6656 9.9 68.9042 9.9H31.9727Z" fill="#192D68"/>
<path d="M73.9042 32.5751C73.9042 32.0283 73.4565 31.5851 72.9042 31.5851C72.3519 31.5851 71.9042 32.0283 71.9042 32.5751V55.3722C71.9042 55.919 72.3519 56.3622 72.9042 56.3622C73.4565 56.3622 73.9042 55.919 73.9042 55.3722V32.5751Z" fill="#192D68"/>
<path d="M33.5891 19.7864C33.5891 18.5581 34.5949 17.5623 35.8357 17.5623H40.3288C41.5696 17.5623 42.5754 18.5581 42.5754 19.7864V24.2347C42.5754 25.463 41.5696 26.4588 40.3288 26.4588H35.8357C34.5949 26.4588 33.5891 25.463 33.5891 24.2347V19.7864Z" fill="#192D68"/>
<path d="M58.3015 19.7864C58.3015 18.5581 59.3073 17.5623 60.5481 17.5623H65.0412C66.282 17.5623 67.2878 18.5581 67.2878 19.7864V24.2347C67.2878 25.463 66.282 26.4588 65.0412 26.4588H60.5481C59.3073 26.4588 58.3015 25.463 58.3015 24.2347V19.7864Z" fill="#192D68"/>
<path d="M48.1918 17.5623C46.951 17.5623 45.9452 18.5581 45.9452 19.7864V24.2347C45.9452 25.463 46.951 26.4588 48.1918 26.4588H52.6849C53.9257 26.4588 54.9315 25.463 54.9315 24.2347V19.7864C54.9315 18.5581 53.9257 17.5623 52.6849 17.5623H48.1918Z" fill="#192D68"/>
<path d="M33.5891 33.1311C33.5891 31.9028 34.5949 30.907 35.8357 30.907H40.3288C41.5696 30.907 42.5754 31.9028 42.5754 33.1311V37.5793C42.5754 38.8077 41.5696 39.8034 40.3288 39.8034H35.8357C34.5949 39.8034 33.5891 38.8077 33.5891 37.5793V33.1311Z" fill="#192D68"/>
<path d="M60.5481 30.907C59.3073 30.907 58.3015 31.9028 58.3015 33.1311V37.5793C58.3015 38.8077 59.3073 39.8034 60.5481 39.8034H65.0412C66.282 39.8034 67.2878 38.8077 67.2878 37.5793V33.1311C67.2878 31.9028 66.282 30.907 65.0412 30.907H60.5481Z" fill="#192D68"/>
<path d="M58.3015 46.4758C58.3015 45.2474 59.3073 44.2517 60.5481 44.2517H65.0412C66.282 44.2517 67.2878 45.2474 67.2878 46.4758V50.924C67.2878 52.1523 66.282 53.1481 65.0412 53.1481H60.5481C59.3073 53.1481 58.3015 52.1523 58.3015 50.924V46.4758Z" fill="#192D68"/>
<path d="M48.1918 30.907C46.951 30.907 45.9452 31.9028 45.9452 33.1311V37.5793C45.9452 38.8077 46.951 39.8034 48.1918 39.8034H52.6849C53.9257 39.8034 54.9315 38.8077 54.9315 37.5793V33.1311C54.9315 31.9028 53.9257 30.907 52.6849 30.907H48.1918Z" fill="#192D68"/>
<path d="M45.9452 46.4758C45.9452 45.2474 46.951 44.2517 48.1918 44.2517H52.6849C53.9257 44.2517 54.9315 45.2474 54.9315 46.4758V50.924C54.9315 52.1523 53.9257 53.1481 52.6849 53.1481H48.1918C46.951 53.1481 45.9452 52.1523 45.9452 50.924V46.4758Z" fill="#192D68"/>
<path fill-rule="evenodd" clip-rule="evenodd" d="M57.0476 71.3452L82.3401 61.0075C84.9994 59.9206 88.0554 61.0463 89.3503 63.5897L90.2094 65.277C91.6119 68.0316 90.425 71.3884 87.5935 72.6758L57.7029 86.2663C56.5235 86.8026 55.1905 86.9086 53.9397 86.5657L21.3261 77.6246C20.3983 77.3702 19.5817 76.8894 18.9303 76.2525C18.4728 77.3137 17.4091 78.0575 16.1699 78.0575H12C10.3431 78.0575 9 76.7278 9 75.0875V58.3776C9 56.7374 10.3431 55.4076 12 55.4076H16.1699C17.6871 55.4076 18.9412 56.5226 19.1419 57.97C19.9641 57.2464 21.0106 56.7613 22.1764 56.6309L36.1185 55.0712C36.8265 54.992 37.5433 55.0498 38.2291 55.2413L55.084 59.9477C58.2193 60.8232 59.9032 64.1895 58.7062 67.1889L57.0476 71.3452ZM22.401 58.5984C20.6313 58.7964 19.294 60.2784 19.294 62.0415L19.294 72.3771C19.294 73.9346 20.3437 75.3007 21.8599 75.7164L54.4734 84.6575C55.2694 84.8757 56.1177 84.8082 56.8682 84.467L86.7587 70.8765C88.5607 70.0573 89.3159 67.9211 88.4234 66.1682L87.5644 64.4809C86.7403 62.8623 84.7956 62.146 83.1033 62.8377L55.6337 74.0652C55.4137 74.1551 55.1685 74.1644 54.9422 74.0914L37.0212 68.309C36.4961 68.1396 36.2092 67.5808 36.3803 67.0609C36.5514 66.5411 37.1158 66.257 37.6409 66.4264L54.6676 71.9203L56.8461 66.4614C57.6078 64.5527 56.5362 62.4105 54.5411 61.8533L37.6862 57.1469C37.2498 57.0251 36.7936 56.9883 36.3431 57.0387L22.401 58.5984ZM11 58.3776C11 57.8309 11.4477 57.3876 12 57.3876H16.1699C16.7222 57.3876 17.1699 57.8309 17.1699 58.3776V75.0875C17.1699 75.6343 16.7222 76.0775 16.1699 76.0775H12C11.4477 76.0775 11 75.6343 11 75.0875V58.3776Z" fill="#192D68"/>
</svg>
