<svg width="99" height="100" viewBox="0 0 99 100" fill="none" xmlns="http://www.w3.org/2000/svg">
<path d="M31.8522 75.4217H75.4122V29.3392L61.9086 16.5217H31.8522V75.4217Z" fill="#D4EEF8"/>
<path d="M48.1915 46.5284H59.0155V48.4791H60.0715V45.5151H54.1315V43.4884H53.0755V45.5151H47.1355V48.4791H48.1915V46.5284V46.5284Z" fill="#192D68"/>
<path d="M50.9635 49.1884H44.3635C44.0134 49.1884 43.6777 49.3219 43.4301 49.5594C43.1826 49.7969 43.0435 50.1191 43.0435 50.4551V54.2551C43.0435 54.591 43.1826 54.9132 43.4301 55.1507C43.6777 55.3883 44.0134 55.5217 44.3635 55.5217H50.9635C51.3136 55.5217 51.6494 55.3883 51.8969 55.1507C52.1444 54.9132 52.2835 54.591 52.2835 54.2551V50.4551C52.2835 50.1191 52.1444 49.7969 51.8969 49.5594C51.6494 49.3219 51.3136 49.1884 50.9635 49.1884ZM44.3635 54.2551V50.4551H50.9635V54.2551H44.3635Z" fill="#192D68"/>
<path d="M62.8435 49.1884H56.2435C55.8934 49.1884 55.5577 49.3219 55.3101 49.5594C55.0626 49.7969 54.9235 50.1191 54.9235 50.4551V54.2551C54.9235 54.591 55.0626 54.9132 55.3101 55.1507C55.5577 55.3883 55.8934 55.5217 56.2435 55.5217H62.8435C63.1936 55.5217 63.5294 55.3883 63.7769 55.1507C64.0245 54.9132 64.1635 54.591 64.1635 54.2551V50.4551C64.1635 50.1191 64.0245 49.7969 63.7769 49.5594C63.5294 49.3219 63.1936 49.1884 62.8435 49.1884ZM56.2435 54.2551V50.4551H62.8435V54.2551H56.2435Z" fill="#192D68"/>
<path d="M50.3035 42.8551H56.9035C57.2536 42.8551 57.5894 42.7216 57.8369 42.4841C58.0844 42.2465 58.2235 41.9244 58.2235 41.5884V37.7884C58.2235 37.4525 58.0844 37.1303 57.8369 36.8927C57.5894 36.6552 57.2536 36.5217 56.9035 36.5217H50.3035C49.9534 36.5217 49.6177 36.6552 49.3701 36.8927C49.1226 37.1303 48.9835 37.4525 48.9835 37.7884V41.5884C48.9835 41.9244 49.1226 42.2465 49.3701 42.4841C49.6177 42.7216 49.9534 42.8551 50.3035 42.8551ZM50.3035 37.7884H56.9035V41.5884H50.3035V37.7884Z" fill="#192D68"/>
<path d="M28.71 12C28.1632 12 27.72 12.4253 27.72 12.95V20.55H19.8C19.2532 20.55 18.81 20.9753 18.81 21.5V45.25C18.81 45.7747 19.2532 46.2 19.8 46.2C20.3468 46.2 20.79 45.7747 20.79 45.25V22.45H27.72V78.5C27.72 79.0247 28.1632 79.45 28.71 79.45H69.3V86.1H20.79V52.375C20.79 51.8503 20.3468 51.425 19.8 51.425C19.2532 51.425 18.81 51.8503 18.81 52.375V87.05C18.81 87.5747 19.2532 88 19.8 88H70.29C70.8368 88 71.28 87.5747 71.28 87.05V79.45H79.2C79.7468 79.45 80.19 79.0247 80.19 78.5V65.9125C80.19 65.3878 79.7468 64.9625 79.2 64.9625C78.6532 64.9625 78.21 65.3878 78.21 65.9125V77.55H29.7V13.9H63.1346L78.21 28.5402V59.5C78.21 60.0247 78.6532 60.45 79.2 60.45C79.7468 60.45 80.19 60.0247 80.19 59.5V28.15C80.19 27.9 80.0873 27.6601 79.9042 27.4823L64.2523 12.2823C64.0663 12.1016 63.8127 12 63.5481 12H28.71Z" fill="#192D68"/>
</svg>
