<svg width="100" height="100" viewBox="0 0 100 100" fill="none" xmlns="http://www.w3.org/2000/svg">
<path d="M56.1589 86.1866C56.1589 81.9484 59.3524 78.5126 63.2918 78.5126H69.9858C74.5053 78.5126 78.1691 82.4543 78.1691 87.3167C78.1691 87.9035 77.7269 88.3792 77.1815 88.3792H58.1968C57.0713 88.3792 56.1589 87.3976 56.1589 86.1866Z" fill="#D4EEF8"/>
<path d="M62.1463 23.9999H23.1386C22.5098 23.9999 22.0001 24.5096 22.0001 25.1384C22.0001 25.7671 22.5098 26.2768 23.1386 26.2768H61.8616C62.4904 26.2768 63.0001 25.7671 63.0001 25.1384V24.8538C63.0001 24.3822 62.6178 23.9999 62.1463 23.9999Z" fill="#192D68"/>
<path d="M62.1463 34.277H23.1386C22.5098 34.277 22.0001 34.7867 22.0001 35.4154C22.0001 36.0442 22.5098 36.5539 23.1386 36.5539H61.8616C62.4904 36.5539 63.0001 36.0442 63.0001 35.4154V35.1308C63.0001 34.6592 62.6178 34.277 62.1463 34.277Z" fill="#192D68"/>
<path d="M62.1463 44.5538H23.1386C22.5098 44.5538 22.0001 45.0635 22.0001 45.6922C22.0001 46.321 22.5098 46.8307 23.1386 46.8307H61.8616C62.4904 46.8307 63.0001 46.321 63.0001 45.6922V45.4076C63.0001 44.936 62.6178 44.5538 62.1463 44.5538Z" fill="#192D68"/>
<path d="M62.1463 54.8308H23.1386C22.5098 54.8308 22.0001 55.3405 22.0001 55.9693C22.0001 56.598 22.5098 57.1077 23.1386 57.1077H61.8616C62.4904 57.1077 63.0001 56.598 63.0001 55.9693V55.6847C63.0001 55.2131 62.6178 54.8308 62.1463 54.8308Z" fill="#192D68"/>
<path d="M36.6666 9.99985H48.3333C49.868 9.99985 51.2643 11.0035 52.3058 12.3332H60V12.9999H70.2001C70.7524 12.9999 71.2001 13.4477 71.2001 13.9999V50.9999C71.2001 51.5522 70.7524 51.9999 70.2001 51.9999C69.6478 51.9999 69.2001 51.5522 69.2001 50.9999V14.9999H60.0001L60 16.9998H25V14.9999H16.0001V69.4999C16.0001 70.0522 15.5524 70.4999 15.0001 70.4999C14.4478 70.4999 14.0001 70.0522 14.0001 69.4999V13.9999C14.0001 13.4477 14.4478 12.9999 15.0001 12.9999H25V12.3332H32.6942C33.7356 11.0035 35.1319 9.99985 36.6666 9.99985Z" fill="#192D68"/>
<path d="M16.0001 78.7499C16.0001 78.1976 15.5524 77.7499 15.0001 77.7499C14.4478 77.7499 14.0001 78.1976 14.0001 78.7499V87.9999C14.0001 88.5522 14.4478 88.9999 15.0001 88.9999H48.708C49.2602 88.9999 49.708 88.5522 49.708 87.9999C49.708 87.4476 49.2602 86.9999 48.708 86.9999H16.0001V78.7499Z" fill="#192D68"/>
<path d="M70.2 74.3384C72.1626 74.3384 74.0448 73.5588 75.4326 72.171C76.8204 70.7832 77.6 68.901 77.6 66.9384C77.6 64.9758 76.8204 63.0936 75.4326 61.7058C74.0448 60.318 72.1626 59.5384 70.2 59.5384C68.2374 59.5384 66.3552 60.318 64.9674 61.7058C63.5797 63.0936 62.8 64.9758 62.8 66.9384C62.8 68.901 63.5797 70.7832 64.9674 72.171C66.3552 73.5588 68.2374 74.3384 70.2 74.3384ZM75.1334 66.9384C75.1334 68.2468 74.6136 69.5016 73.6884 70.4268C72.7632 71.352 71.5084 71.8717 70.2 71.8717C68.8916 71.8717 67.6368 71.352 66.7116 70.4268C65.7864 69.5016 65.2667 68.2468 65.2667 66.9384C65.2667 65.63 65.7864 64.3752 66.7116 63.45C67.6368 62.5248 68.8916 62.0051 70.2 62.0051C71.5084 62.0051 72.7632 62.5248 73.6884 63.45C74.6136 64.3752 75.1334 65.63 75.1334 66.9384ZM85 86.6717C85 89.1384 82.5333 89.1384 82.5333 89.1384H57.8667C57.8667 89.1384 55.4 89.1384 55.4 86.6717C55.4 84.2051 57.8667 76.8051 70.2 76.8051C82.5333 76.8051 85 84.2051 85 86.6717ZM82.5333 86.6619C82.5309 86.0551 82.1535 84.2297 80.4811 82.5573C78.8728 80.9491 75.8462 79.2717 70.2 79.2717C64.5514 79.2717 61.5272 80.9491 59.919 82.5573C58.2466 84.2297 57.8716 86.0551 57.8667 86.6619H82.5333Z" fill="#192D68"/>
</svg>
