<svg width="99" height="99" viewBox="0 0 99 99" fill="none" xmlns="http://www.w3.org/2000/svg">
<path d="M24.75 27.72C24.2033 27.72 23.76 28.1632 23.76 28.71V30.69C23.76 31.2368 24.2033 31.68 24.75 31.68H26.73C27.2768 31.68 27.72 31.2368 27.72 30.69V28.71C27.72 28.1632 27.2768 27.72 26.73 27.72H24.75Z" fill="#D4EEF8"/>
<path d="M31.68 27.72C31.1333 27.72 30.69 28.1632 30.69 28.71V30.69C30.69 31.2368 31.1333 31.68 31.68 31.68H63.36C63.9068 31.68 64.35 31.2368 64.35 30.69V28.71C64.35 28.1632 63.9068 27.72 63.36 27.72H31.68Z" fill="#D4EEF8"/>
<path d="M23.76 38.61C23.76 38.0632 24.2033 37.62 24.75 37.62H26.73C27.2768 37.62 27.72 38.0632 27.72 38.61V40.59C27.72 41.1368 27.2768 41.58 26.73 41.58H24.75C24.2033 41.58 23.76 41.1368 23.76 40.59V38.61Z" fill="#D4EEF8"/>
<path d="M31.68 37.62C31.1333 37.62 30.69 38.0632 30.69 38.61V40.59C30.69 41.1368 31.1333 41.58 31.68 41.58H63.36C63.9068 41.58 64.35 41.1368 64.35 40.59V38.61C64.35 38.0632 63.9068 37.62 63.36 37.62H31.68Z" fill="#D4EEF8"/>
<path d="M23.76 48.51C23.76 47.9632 24.2033 47.52 24.75 47.52H26.73C27.2768 47.52 27.72 47.9632 27.72 48.51V50.49C27.72 51.0368 27.2768 51.48 26.73 51.48H24.75C24.2033 51.48 23.76 51.0368 23.76 50.49V48.51Z" fill="#D4EEF8"/>
<path d="M31.68 47.52C31.1333 47.52 30.69 47.9632 30.69 48.51V50.49C30.69 51.0368 31.1333 51.48 31.68 51.48H63.36C63.9068 51.48 64.35 51.0368 64.35 50.49V48.51C64.35 47.9632 63.9068 47.52 63.36 47.52H31.68Z" fill="#D4EEF8"/>
<path d="M23.76 58.41C23.76 57.8632 24.2033 57.42 24.75 57.42H26.73C27.2768 57.42 27.72 57.8632 27.72 58.41V60.39C27.72 60.9368 27.2768 61.38 26.73 61.38H24.75C24.2033 61.38 23.76 60.9368 23.76 60.39V58.41Z" fill="#D4EEF8"/>
<path d="M31.68 57.42C31.1333 57.42 30.69 57.8632 30.69 58.41V60.39C30.69 60.9368 31.1333 61.38 31.68 61.38H63.36C63.9068 61.38 64.35 60.9368 64.35 60.39V58.41C64.35 57.8632 63.9068 57.42 63.36 57.42H31.68Z" fill="#D4EEF8"/>
<path d="M72.8891 73.0156C72.8891 75.5734 70.8425 77.6887 68.3102 77.6887C65.7778 77.6887 63.7168 75.5734 63.7168 73.0156C63.7168 70.4579 65.7778 68.5182 68.3102 68.5182C70.8425 68.5182 72.8891 70.4579 72.8891 73.0156Z" fill="#D4EEF8"/>
<path fill-rule="evenodd" clip-rule="evenodd" d="M16.83 11.88C16.2833 11.88 15.84 12.3232 15.84 12.87V56.8013C15.84 57.348 16.2833 57.7913 16.83 57.7913C17.3768 57.7913 17.82 57.348 17.82 56.8013V21.78H70.29V49.995C70.29 50.5418 70.7333 50.985 71.28 50.985C71.8268 50.985 72.27 50.5418 72.27 49.995V12.87C72.27 12.3232 71.8268 11.88 71.28 11.88H16.83ZM55.44 16.83C55.44 16.2832 55.8833 15.84 56.43 15.84H63.36C63.9068 15.84 64.35 16.2832 64.35 16.83V18.81C64.35 19.3568 63.9068 19.8 63.36 19.8H56.43C55.8833 19.8 55.44 19.3568 55.44 18.81V16.83ZM45.54 15.84C44.9933 15.84 44.55 16.2832 44.55 16.83V18.81C44.55 19.3568 44.9933 19.8 45.54 19.8H52.47C53.0168 19.8 53.46 19.3568 53.46 18.81V16.83C53.46 16.2832 53.0168 15.84 52.47 15.84H45.54ZM33.66 16.83C33.66 16.2832 34.1033 15.84 34.65 15.84H41.58C42.1268 15.84 42.57 16.2832 42.57 16.83V18.81C42.57 19.3568 42.1268 19.8 41.58 19.8H34.65C34.1033 19.8 33.66 19.3568 33.66 18.81V16.83Z" fill="#192D68"/>
<path d="M17.82 65.5875C17.82 65.0407 17.3768 64.5975 16.83 64.5975C16.2833 64.5975 15.84 65.0407 15.84 65.5875V83.16C15.84 83.7068 16.2833 84.15 16.83 84.15H46.035C46.5818 84.15 47.025 83.7068 47.025 83.16C47.025 82.6132 46.5818 82.17 46.035 82.17H17.82V65.5875Z" fill="#192D68"/>
<path d="M64.9153 56.6205C65.232 55.903 65.9423 55.44 66.7266 55.44H69.852C70.6363 55.44 71.3467 55.903 71.6634 56.6205L73.6023 61.0132C74.0361 61.996 75.0544 62.5868 76.123 62.4755L81.2622 61.9401C82.0587 61.8571 82.8268 62.2621 83.2083 62.9663L84.5217 65.3907C84.7822 65.8715 84.6036 66.4723 84.1228 66.7328C83.6421 66.9932 83.0412 66.8146 82.7808 66.3339L81.4673 63.9094L76.3281 64.4448C74.4047 64.6452 72.5717 63.5819 71.7909 61.8127L69.852 57.42H66.7266L64.7878 61.8127C64.0069 63.5818 62.1739 64.6452 60.2505 64.4448L55.0892 63.9071L53.6548 66.3676L56.6972 70.4531C57.8685 72.0258 57.8736 74.1795 56.7099 75.7578L53.6531 79.9035L55.0864 82.362L60.2239 81.7856C62.1586 81.5686 64.0102 82.6329 64.7963 84.4139L66.7266 88.7874H69.852L71.7824 84.4139C72.5685 82.6329 74.42 81.5686 76.3547 81.7856L81.4982 82.3627L82.9657 79.8946L79.913 75.6977C78.7887 74.152 78.7757 72.0612 79.8808 70.5016L80.2019 70.0484C80.518 69.6023 81.1359 69.4969 81.582 69.813C82.0281 70.1291 82.1335 70.747 81.8174 71.1931L81.4963 71.6463C80.8824 72.5128 80.8896 73.6743 81.5142 74.5331L84.5669 78.7299C85.0325 79.3701 85.0721 80.2261 84.6676 80.9065L83.2001 83.3746C82.8026 84.0431 82.0504 84.417 81.2775 84.3303L76.134 83.7533C75.0591 83.6327 74.0305 84.224 73.5938 85.2134L71.6634 89.5869C71.3467 90.3044 70.6363 90.7674 69.852 90.7674H66.7266C65.9423 90.7674 65.232 90.3044 64.9153 89.5869L62.9849 85.2134C62.5481 84.224 61.5195 83.6327 60.4447 83.7533L55.3072 84.3296C54.5281 84.4171 53.7708 84.0365 53.3759 83.3592L51.9426 80.9008C51.5446 80.2182 51.5906 79.3644 52.0595 78.7285L55.1162 74.5827C55.7628 73.7059 55.7599 72.5094 55.1092 71.6357L52.0668 67.5502C51.5928 66.9138 51.5446 66.0559 51.9443 65.3704L53.3787 62.9099C53.7707 62.2375 54.5203 61.8571 55.2944 61.9378L60.4557 62.4755C61.5242 62.5868 62.5426 61.996 62.9764 61.0132L64.9153 56.6205Z" fill="#192D68"/>
<path fill-rule="evenodd" clip-rule="evenodd" d="M68.3102 67.5282C65.2623 67.5282 62.7268 69.8804 62.7268 73.0156C62.7268 76.1015 65.2126 78.6787 68.3102 78.6787C71.4118 78.6787 73.8791 76.0974 73.8791 73.0156C73.8791 69.8844 71.3621 67.5282 68.3102 67.5282ZM64.7068 73.0156C64.7068 71.0354 66.2934 69.5082 68.3102 69.5082C70.3229 69.5082 71.8991 71.0314 71.8991 73.0156C71.8991 75.0495 70.2732 76.6987 68.3102 76.6987C66.3431 76.6987 64.7068 75.0453 64.7068 73.0156Z" fill="#192D68"/>
</svg>
