<svg width="100" height="100" viewBox="0 0 100 100" fill="none" xmlns="http://www.w3.org/2000/svg">
<path d="M84 28H44V83H84V28Z" fill="#D4EEF8"/>
<path d="M12 12C11.4477 12 11 12.4477 11 13V86C11 86.5523 11.4477 87 12 87H33C33.5523 87 34 86.5523 34 86C34 85.4477 33.5523 85 33 85H13V14H21C21.5523 14 22 13.5523 22 13C22 12.4477 21.5523 12 21 12H12Z" fill="#192D68"/>
<path d="M29 12C28.4477 12 28 12.4477 28 13C28 13.5523 28.4477 14 29 14H65.8596V18C65.8596 18.5523 66.3074 19 66.8596 19C67.4119 19 67.8596 18.5523 67.8596 18V13C67.8596 12.4477 67.4119 12 66.8596 12H29Z" fill="#192D68"/>
<path d="M19 34C18.4477 34 18 34.4477 18 35C18 35.5523 18.4477 36 19 36H33C33.5523 36 34 35.5523 34 35C34 34.4477 33.5523 34 33 34H19Z" fill="#192D68"/>
<path d="M18 45C18 44.4477 18.4477 44 19 44H33C33.5523 44 34 44.4477 34 45C34 45.5523 33.5523 46 33 46H19C18.4477 46 18 45.5523 18 45Z" fill="#192D68"/>
<path d="M19 24C18.4477 24 18 24.4477 18 25C18 25.5523 18.4477 26 19 26H33C33.5523 26 34 25.5523 34 25C34 24.4477 33.5523 24 33 24H19Z" fill="#192D68"/>
<path d="M40 25C40 24.4477 40.4477 24 41 24H87C87.5523 24 88 24.4477 88 25V40.25C88 40.8023 87.5523 41.25 87 41.25C86.4477 41.25 86 40.8023 86 40.25V26H42V85H86V47.875C86 47.3227 86.4477 46.875 87 46.875C87.5523 46.875 88 47.3227 88 47.875V86C88 86.5523 87.5523 87 87 87H41C40.4477 87 40 86.5523 40 86V25Z" fill="#192D68"/>
<path d="M51 39C53.2091 39 55 37.2091 55 35C55 32.7909 53.2091 31 51 31C48.7909 31 47 32.7909 47 35C47 37.2091 48.7909 39 51 39Z" fill="#192D68"/>
<path d="M47 44.5C47 43.6716 47.6716 43 48.5 43H72.5C73.3284 43 74 43.6716 74 44.5C74 45.3284 73.3284 46 72.5 46H48.5C47.6716 46 47 45.3284 47 44.5Z" fill="#192D68"/>
<path d="M49 73C47.8954 73 47 73.8954 47 75V78C47 79.1046 47.8954 80 49 80H79C80.1046 80 81 79.1046 81 78V75C81 73.8954 80.1046 73 79 73H49Z" fill="#192D68"/>
</svg>
