<svg width="100" height="100" viewBox="0 0 100 100" fill="none" xmlns="http://www.w3.org/2000/svg">
<path fill-rule="evenodd" clip-rule="evenodd" d="M68.5 26C68.5 24.8954 69.3954 24 70.5 24L87 24C88.1046 24 89 24.8954 89 26L89 88C89 89.1046 88.1046 90 87 90L36 90C35.4696 90 34.9609 89.7893 34.5858 89.4142C34.2107 89.0391 34 88.5304 34 88L34 78C34 76.8954 34.8954 76 36 76C37.1046 76 38 76.8954 38 78L38 86L85 86L85 28L70.5 28C69.3954 28 68.5 27.1046 68.5 26Z" fill="#192D68"/>
<path d="M29 18L62 18L62 77L18 77L18 53.4L17.9999 47.5L18 29.8L29 18Z" fill="#D4EEF8"/>
<path fill-rule="evenodd" clip-rule="evenodd" d="M64 12.5C64 11.3954 63.1046 10.5 62 10.5L24.875 10.5C24.331 10.5 23.8104 10.7216 23.4334 11.1138L11.0584 23.9838C10.7001 24.3563 10.5001 24.8531 10.5001 25.37L10.5001 35.666C10.5001 36.7706 11.3955 37.666 12.5001 37.666C13.6046 37.666 14.5001 36.7706 14.5001 35.666L14.5001 26.1755L25.7265 14.5L60 14.5L60 74.85L14.5001 74.85L14.5001 44.675C14.5001 43.5704 13.6046 42.675 12.5001 42.675C11.3955 42.675 10.5001 43.5704 10.5001 44.675L10.5001 76.85C10.5001 77.9545 11.3955 78.85 12.5001 78.85L62 78.85C63.1046 78.85 64 77.9545 64 76.85L64 12.5Z" fill="#192D68"/>
<path fill-rule="evenodd" clip-rule="evenodd" d="M54.1 42.2C54.1 41.0954 53.2045 40.2 52.1 40.2L32.3 40.2C31.1954 40.2 30.3 41.0954 30.3 42.2C30.3 43.3046 31.1954 44.2 32.3 44.2L52.1 44.2C53.2045 44.2 54.1 43.3046 54.1 42.2Z" fill="#192D68"/>
<path fill-rule="evenodd" clip-rule="evenodd" d="M54.1 57.05C54.1 55.9454 53.2045 55.05 52.1 55.05H42.2C41.0954 55.05 40.2 55.9454 40.2 57.05C40.2 58.1545 41.0954 59.05 42.2 59.05H52.1C53.2045 59.05 54.1 58.1545 54.1 57.05Z" fill="#192D68"/>
<path fill-rule="evenodd" clip-rule="evenodd" d="M54.1 27.35C54.1 26.2454 53.2045 25.35 52.1 25.35L42.2 25.35C41.0954 25.35 40.2 26.2454 40.2 27.35C40.2 28.4546 41.0954 29.35 42.2 29.35L52.1 29.35C53.2045 29.35 54.1 28.4546 54.1 27.35Z" fill="#192D68"/>
</svg>
