<svg width="100" height="100" viewBox="0 0 100 100" fill="none" xmlns="http://www.w3.org/2000/svg">
<path d="M9 22C9 19.7909 10.7909 18 13 18H87C89.2091 18 91 19.7909 91 22V30.5C91 31.0523 90.5523 31.5 90 31.5C89.4477 31.5 89 31.0523 89 30.5V22C89 20.8954 88.1046 20 87 20H13C11.8954 20 11 20.8954 11 22V54.5C11 55.0523 10.5523 55.5 10 55.5C9.44772 55.5 9 55.0523 9 54.5V22Z" fill="#192D68"/>
<path fill-rule="evenodd" clip-rule="evenodd" d="M90 37C90.5523 37 91 37.4477 91 38V67C91 69.2091 89.2091 71 87 71H56V77H68C69.1046 77 70 77.8954 70 79V81C70 82.1046 69.1046 83 68 83H32C30.8954 83 30 82.1046 30 81V79C30 77.8954 30.8954 77 32 77H43V71H13C10.7909 71 9 69.2091 9 67V61.5C9 60.9477 9.44772 60.5 10 60.5C10.5523 60.5 11 60.9477 11 61.5V67C11 68.1046 11.8954 69 13 69H87C88.1046 69 89 68.1046 89 67V38C89 37.4477 89.4477 37 90 37ZM45 71V77H54V71H45Z" fill="#192D68"/>
<path fill-rule="evenodd" clip-rule="evenodd" d="M40 24.5C39.7239 24.5 39.5 24.7239 39.5 25V52C39.5 52.2761 39.7239 52.5 40 52.5H83C83.2761 52.5 83.5 52.2761 83.5 52V25C83.5 24.7239 83.2761 24.5 83 24.5H40ZM40.5 51.5V25.5H82.5V51.5H40.5Z" fill="#192D68"/>
<path d="M32.4832 28.9999C33.4722 30.4799 34 32.22 34 34H25V43C23.22 43 21.4799 42.4722 19.9999 41.4832C18.5198 40.4943 17.3663 39.0887 16.6851 37.4442C16.0039 35.7996 15.8257 33.99 16.1729 32.2442C16.5202 30.4984 17.3774 28.8947 18.636 27.636C19.8947 26.3774 21.4984 25.5202 23.2442 25.1729C24.99 24.8257 26.7996 25.0039 28.4442 25.6851C30.0887 26.3663 31.4943 27.5198 32.4832 28.9999Z" fill="#192D68"/>
<path d="M16.5 51C16.5 50.7239 16.7239 50.5 17 50.5H35C35.2761 50.5 35.5 50.7239 35.5 51C35.5 51.2761 35.2761 51.5 35 51.5H17C16.7239 51.5 16.5 51.2761 16.5 51Z" fill="#192D68"/>
<path d="M17 58.5C16.7239 58.5 16.5 58.7239 16.5 59C16.5 59.2761 16.7239 59.5 17 59.5H35C35.2761 59.5 35.5 59.2761 35.5 59C35.5 58.7239 35.2761 58.5 35 58.5H17Z" fill="#192D68"/>
<path d="M79.9403 30.6921C80.072 30.4628 79.9786 30.1778 79.7316 30.0555C79.4846 29.9332 79.1776 30.0199 79.0458 30.2492L75.1342 37.0589H71.1749L68.7855 33.0656C68.697 32.9178 68.5299 32.8254 68.3477 32.8236C68.1656 32.8218 67.9964 32.911 67.9046 33.0571L61.14 43.8238L55.5228 38.6084C55.3374 38.4363 55.0413 38.4239 54.8399 38.5797L52.2087 40.6155L49.4877 37.2471C49.3883 37.124 49.2303 37.0538 49.0647 37.0591C48.8991 37.0645 48.7467 37.1446 48.6567 37.2738L43.0814 45.2737C42.9293 45.4919 42.9965 45.7833 43.2316 45.9244C43.4666 46.0656 43.7804 46.0032 43.9324 45.785L49.1129 38.3517L51.7178 41.5765C51.8012 41.6796 51.9265 41.7465 52.0645 41.7615C52.2025 41.7765 52.3411 41.7382 52.4478 41.6556L55.1333 39.5778L60.8882 44.9209C60.9993 45.0241 61.1557 45.0736 61.3116 45.0549C61.4675 45.0362 61.6052 44.9514 61.6844 44.8253L68.3317 34.2452L70.4336 37.758C70.523 37.9074 70.6926 38 70.8766 38H75.4383C75.6255 38 75.7974 37.9042 75.8855 37.7509L79.9403 30.6921Z" fill="#D4EEF8"/>
<path d="M29.4442 43.3149C28.3522 43.7672 27.1819 44 26 44V35H35C35 36.1819 34.7672 37.3522 34.3149 38.4442C33.8626 39.5361 33.1997 40.5282 32.364 41.364C31.5282 42.1997 30.5361 42.8626 29.4442 43.3149Z" fill="#D4EEF8"/>
<path d="M16.5 55C16.5 54.7239 16.7239 54.5 17 54.5H35C35.2761 54.5 35.5 54.7239 35.5 55C35.5 55.2761 35.2761 55.5 35 55.5H17C16.7239 55.5 16.5 55.2761 16.5 55Z" fill="#D4EEF8"/>
<path d="M17 62.5C16.7239 62.5 16.5 62.7239 16.5 63C16.5 63.2761 16.7239 63.5 17 63.5H35C35.2761 63.5 35.5 63.2761 35.5 63C35.5 62.7239 35.2761 62.5 35 62.5H17Z" fill="#D4EEF8"/>
</svg>
