<svg width="100" height="100" viewBox="0 0 100 100" fill="none" xmlns="http://www.w3.org/2000/svg">
<path fill-rule="evenodd" clip-rule="evenodd" d="M65.118 15.6241L35.5915 15.6241L25.7494 26.6848L25.7493 40.9325H33.0621C33.9367 40.9325 34.7678 41.3142 35.3377 41.9776L43.0495 50.9548C43.6194 51.6183 44.4505 52 45.3251 52H65.118L65.118 15.6241Z" fill="#D4EEF8"/>
<path fill-rule="evenodd" clip-rule="evenodd" d="M61 33.5C61 34.3284 60.1623 35 59.129 35H33.871C32.8377 35 32 34.3284 32 33.5C32 32.6716 32.8377 32 33.871 32L59.129 32C60.1623 32 61 32.6716 61 33.5Z" fill="#192D68"/>
<path fill-rule="evenodd" clip-rule="evenodd" d="M61 24.5C61 25.3284 60.1792 26 59.1667 26L40.8333 26C39.8208 26 39 25.3284 39 24.5C39 23.6716 39.8208 23 40.8333 23L59.1667 23C60.1792 23 61 23.6716 61 24.5Z" fill="#192D68"/>
<path fill-rule="evenodd" clip-rule="evenodd" d="M37.9341 45L59.1291 45C60.1624 45 61 44.3284 61 43.5C61 42.6716 60.1624 42 59.1291 42L35.357 42L37.9341 45Z" fill="#192D68"/>
<path fill-rule="evenodd" clip-rule="evenodd" d="M67.0554 11.8747C67.0554 11.3224 66.6077 10.8747 66.0554 10.8747L33.0138 10.8747C32.7338 10.8747 32.4666 10.9921 32.2772 11.1985L29.5237 14.198C29.1502 14.6048 29.1773 15.2374 29.5841 15.6109C29.991 15.9844 30.6236 15.9573 30.9971 15.5505L33.4533 12.8747L65.0554 12.8747L65.0554 51.8072H44.7921C44.209 51.8072 43.655 51.5528 43.275 51.1105L34.9278 41.3935C34.1679 40.5089 33.0598 40 31.8936 40H23L23 24.2621L25.4901 21.5495C25.8636 21.1426 25.8366 20.51 25.4297 20.1366C25.0229 19.7631 24.3903 19.7901 24.0168 20.197L21.2633 23.1965C21.094 23.381 21 23.6223 21 23.8728L21 40H17C14.7909 40 13 41.7909 13 44V87C13 89.2091 14.7909 91 17 91H51C51.5523 91 52 90.5523 52 90C52 89.4477 51.5523 89 51 89H17C15.8954 89 15 88.1046 15 87V44C15 42.8954 15.8954 42 17 42H31.8936C32.4767 42 33.0308 42.2545 33.4107 42.6968L41.7579 52.4137C42.5178 53.2983 43.6259 53.8072 44.7921 53.8072H82C83.1046 53.8072 84 54.7027 84 55.8072V87C84 88.1046 83.1046 89 82 89H60C59.4477 89 59 89.4477 59 90C59 90.5523 59.4477 91 60 91H82C84.2091 91 86 89.2091 86 87V55.8072C86 53.5981 84.2091 51.8072 82 51.8072H78.3036V36.2457V24.9976C78.3036 24.4453 77.8558 23.9976 77.3036 23.9976H67.0554L67.0554 11.8747ZM76.3036 51.8072H67.0554L67.0554 25.9976H76.3036V36.2457V51.8072ZM78 68C78 67.4477 77.5523 67 77 67C76.4477 67 76 67.4477 76 68V81C76 81.5523 76.4477 82 77 82C77.5523 82 78 81.5523 78 81V68Z" fill="#192D68"/>
</svg>
