<svg width="100" height="100" viewBox="0 0 100 100" fill="none" xmlns="http://www.w3.org/2000/svg">
<path fill-rule="evenodd" clip-rule="evenodd" d="M58.4624 46.278C49.7989 49.6858 43.6667 58.1268 43.6667 68C43.6667 69.7163 43.852 71.3892 44.2036 73H16V34.3333V15H32.985H58.4624V46.278Z" fill="#D4EEF8"/>
<path fill-rule="evenodd" clip-rule="evenodd" d="M8 10C8 8.89543 8.89543 8 10 8H66C67.1046 8 68 8.89543 68 10V39C68 40.1046 67.1046 41 66 41C64.8954 41 64 40.1046 64 39V12H12V18.375C12 19.4796 11.1046 20.375 10 20.375C8.89543 20.375 8 19.4796 8 18.375V10ZM10 25.5C11.1046 25.5 12 26.3954 12 27.5V75H40C41.1046 75 42 75.8954 42 77C42 78.1046 41.1046 79 40 79H10C8.89543 79 8 78.1046 8 77V27.5C8 26.3954 8.89543 25.5 10 25.5Z" fill="#192D68"/>
<path fill-rule="evenodd" clip-rule="evenodd" d="M20 41C20 39.8954 20.8954 39 22 39L47 39C48.1046 39 49 39.8954 49 41C49 42.1046 48.1046 43 47 43L22 43C20.8954 43 20 42.1046 20 41Z" fill="#192D68"/>
<path fill-rule="evenodd" clip-rule="evenodd" d="M20 53C20 51.8954 20.8954 51 22 51L43 51C44.1046 51 45 51.8954 45 53C45 54.1046 44.1046 55 43 55L22 55C20.8954 55 20 54.1046 20 53Z" fill="#192D68"/>
<path fill-rule="evenodd" clip-rule="evenodd" d="M20 28C20 26.8954 20.8954 26 22 26L47 26C48.1046 26 49 26.8954 49 28C49 29.1046 48.1046 30 47 30L22 30C20.8954 30 20 29.1046 20 28Z" fill="#192D68"/>
<path d="M88.0833 68.5C88.0833 57.6844 79.3156 48.9167 68.5 48.9167C57.6844 48.9167 48.9167 57.6844 48.9167 68.5C48.9167 79.3156 57.6844 88.0833 68.5 88.0833C79.3156 88.0833 88.0833 79.3156 88.0833 68.5Z" stroke="#192D68" stroke-width="4"/>
<path d="M74.375 64.5833C74.375 67.828 71.7446 70.4583 68.5 70.4583C65.2554 70.4583 62.625 67.828 62.625 64.5833C62.625 61.3386 65.2554 58.7083 68.5 58.7083C71.7446 58.7083 74.375 61.3386 74.375 64.5833Z" fill="#192D68"/>
<path d="M80.25 84.1666C80.25 79.8404 74.9893 76.3333 68.5 76.3333C62.0107 76.3333 56.75 79.8404 56.75 84.1666" stroke="#192D68" stroke-width="4" stroke-linecap="round"/>
</svg>
