<svg width="100" height="100" viewBox="0 0 100 100" fill="none" xmlns="http://www.w3.org/2000/svg">
<path d="M35 84.7778C35 80.4822 38.4822 77 42.7778 77H50.0769C55.005 77 59 80.995 59 85.9231C59 86.5178 58.5178 87 57.9231 87H37.2222C35.9949 87 35 86.0051 35 84.7778Z" fill="#D4EEF8"/>
<path d="M49.5 72.5C51.5554 72.5 53.5267 71.6835 54.9801 70.2301C56.4335 68.7767 57.25 66.8054 57.25 64.75C57.25 62.6946 56.4335 60.7233 54.9801 59.2699C53.5267 57.8165 51.5554 57 49.5 57C47.4446 57 45.4733 57.8165 44.0199 59.2699C42.5665 60.7233 41.75 62.6946 41.75 64.75C41.75 66.8054 42.5665 68.7767 44.0199 70.2301C45.4733 71.6835 47.4446 72.5 49.5 72.5ZM54.6667 64.75C54.6667 66.1203 54.1223 67.4344 53.1534 68.4034C52.1844 69.3723 50.8703 69.9167 49.5 69.9167C48.1297 69.9167 46.8156 69.3723 45.8466 68.4034C44.8777 67.4344 44.3333 66.1203 44.3333 64.75C44.3333 63.3797 44.8777 62.0656 45.8466 61.0966C46.8156 60.1277 48.1297 59.5833 49.5 59.5833C50.8703 59.5833 52.1844 60.1277 53.1534 61.0966C54.1223 62.0656 54.6667 63.3797 54.6667 64.75ZM65 85.4167C65 88 62.4167 88 62.4167 88H36.5833C36.5833 88 34 88 34 85.4167C34 82.8333 36.5833 75.0833 49.5 75.0833C62.4167 75.0833 65 82.8333 65 85.4167ZM62.4167 85.4063C62.4141 84.7708 62.0188 82.8592 60.2673 81.1077C58.583 79.4233 55.4133 77.6667 49.5 77.6667C43.5842 77.6667 40.417 79.4233 38.7327 81.1077C36.9812 82.8592 36.5885 84.7708 36.5833 85.4063H62.4167Z" fill="#192D68"/>
<path d="M11 49.7778C11 45.4822 14.4822 42 18.7778 42H26C30.4183 42 34 45.5817 34 50C34 51.1046 33.1046 52 32 52H13.2222C11.9949 52 11 51.0051 11 49.7778Z" fill="#D4EEF8"/>
<path d="M25 37C26.9891 37 28.8968 36.2098 30.3033 34.8033C31.7098 33.3968 32.5 31.4891 32.5 29.5C32.5 27.5109 31.7098 25.6032 30.3033 24.1967C28.8968 22.7902 26.9891 22 25 22C23.0109 22 21.1032 22.7902 19.6967 24.1967C18.2902 25.6032 17.5 27.5109 17.5 29.5C17.5 31.4891 18.2902 33.3968 19.6967 34.8033C21.1032 36.2098 23.0109 37 25 37ZM30 29.5C30 30.8261 29.4732 32.0979 28.5355 33.0355C27.5979 33.9732 26.3261 34.5 25 34.5C23.6739 34.5 22.4021 33.9732 21.4645 33.0355C20.5268 32.0979 20 30.8261 20 29.5C20 28.1739 20.5268 26.9021 21.4645 25.9645C22.4021 25.0268 23.6739 24.5 25 24.5C26.3261 24.5 27.5979 25.0268 28.5355 25.9645C29.4732 26.9021 30 28.1739 30 29.5ZM40 49.5C40 52 37.5 52 37.5 52H12.5C12.5 52 10 52 10 49.5C10 47 12.5 39.5 25 39.5C37.5 39.5 40 47 40 49.5ZM37.5 49.49C37.4975 48.875 37.115 47.025 35.42 45.33C33.79 43.7 30.7225 42 25 42C19.275 42 16.21 43.7 14.58 45.33C12.885 47.025 12.505 48.875 12.5 49.49H37.5Z" fill="#192D68"/>
<path d="M61 49.7778C61 45.4822 64.4822 42 68.7778 42H76C80.4183 42 84 45.5817 84 50C84 51.1046 83.1046 52 82 52H63.2222C61.9949 52 61 51.0051 61 49.7778Z" fill="#D4EEF8"/>
<path d="M75 37C76.9891 37 78.8968 36.2098 80.3033 34.8033C81.7098 33.3968 82.5 31.4891 82.5 29.5C82.5 27.5109 81.7098 25.6032 80.3033 24.1967C78.8968 22.7902 76.9891 22 75 22C73.0109 22 71.1032 22.7902 69.6967 24.1967C68.2902 25.6032 67.5 27.5109 67.5 29.5C67.5 31.4891 68.2902 33.3968 69.6967 34.8033C71.1032 36.2098 73.0109 37 75 37ZM80 29.5C80 30.8261 79.4732 32.0979 78.5355 33.0355C77.5979 33.9732 76.3261 34.5 75 34.5C73.6739 34.5 72.4021 33.9732 71.4645 33.0355C70.5268 32.0979 70 30.8261 70 29.5C70 28.1739 70.5268 26.9021 71.4645 25.9645C72.4021 25.0268 73.6739 24.5 75 24.5C76.3261 24.5 77.5979 25.0268 78.5355 25.9645C79.4732 26.9021 80 28.1739 80 29.5ZM90 49.5C90 52 87.5 52 87.5 52H62.5C62.5 52 60 52 60 49.5C60 47 62.5 39.5 75 39.5C87.5 39.5 90 47 90 49.5ZM87.5 49.49C87.4975 48.875 87.115 47.025 85.42 45.33C83.79 43.7 80.7225 42 75 42C69.275 42 66.21 43.7 64.58 45.33C62.885 47.025 62.505 48.875 62.5 49.49H87.5Z" fill="#192D68"/>
<path d="M28.8493 67.7279L32.0312 70.9099C32.2188 71.0974 32.3241 71.3518 32.3241 71.617C32.3241 71.8822 32.2188 72.1366 32.0312 72.3241L28.8493 75.5061C28.6617 75.6936 28.4074 75.799 28.1422 75.799C27.8769 75.799 27.6226 75.6936 27.435 75.5061C27.2475 75.3186 27.1422 75.0642 27.1422 74.799C27.1422 74.5338 27.2475 74.2794 27.435 74.0919L29.9099 71.617L27.435 69.1421C27.2475 68.9546 27.1422 68.7002 27.1422 68.435C27.1422 68.1698 27.2475 67.9155 27.435 67.7279C27.6226 67.5404 27.8769 67.435 28.1422 67.435C28.4074 67.435 28.6617 67.5404 28.8493 67.7279Z" fill="#192D68"/>
<path d="M21.0711 69.8492C19.1987 67.9723 18.1471 65.4294 18.1471 62.7782C18.1471 60.127 19.1987 57.584 21.0711 55.7071C21.2586 55.5196 21.513 55.4142 21.7782 55.4142C22.0434 55.4142 22.2978 55.5196 22.4853 55.7071C22.6728 55.8946 22.7782 56.149 22.7782 56.4142C22.7782 56.6794 22.6728 56.9338 22.4853 57.1213C21.2399 58.3656 20.4401 59.9862 20.2098 61.7315C19.9796 63.4769 20.3319 65.2494 21.212 66.7741C22.0921 68.2987 23.4509 69.4903 25.0774 70.1638C26.7039 70.8373 28.5073 70.9552 30.2076 70.4991C30.3345 70.4652 30.4668 70.4567 30.597 70.474C30.7272 70.4913 30.8527 70.534 30.9664 70.5998C31.08 70.6656 31.1796 70.7532 31.2594 70.8574C31.3393 70.9617 31.3978 71.0807 31.4316 71.2076C31.4655 71.3345 31.474 71.4668 31.4567 71.597C31.4394 71.7272 31.3966 71.8527 31.3309 71.9663C31.2651 72.08 31.1775 72.1796 31.0733 72.2594C30.969 72.3392 30.85 72.3977 30.7231 72.4316C29.0289 72.882 27.2462 72.8806 25.5527 72.4275C23.8592 71.9744 22.314 71.0855 21.0711 69.8492Z" fill="#192D68"/>
<path d="M75.4641 61.7631L77.7141 57.866C77.8467 57.6363 78.0651 57.4687 78.3213 57.4001C78.5775 57.3314 78.8504 57.3674 79.0801 57.5L82.9772 59.75C83.2069 59.8826 83.3745 60.101 83.4432 60.3572C83.5118 60.6134 83.4759 60.8863 83.3433 61.116C83.2107 61.3457 82.9922 61.5133 82.7361 61.5819C82.4799 61.6506 82.2069 61.6146 81.9772 61.482L78.9461 59.732L77.1961 62.7631C77.0635 62.9928 76.8451 63.1604 76.5889 63.229C76.3328 63.2977 76.0598 63.2617 75.8301 63.1291C75.6004 62.9965 75.4328 62.7781 75.3642 62.5219C75.2956 62.2657 75.3315 61.9928 75.4641 61.7631Z" fill="#192D68"/>
<path d="M79.5263 68.7272C78.1979 71.0216 76.0138 72.6955 73.4529 73.3817C70.8921 74.0678 68.1636 73.7103 65.866 72.3875C65.6363 72.2548 65.4687 72.0364 65.4001 71.7802C65.3315 71.5241 65.3674 71.2511 65.5 71.0214C65.6326 70.7917 65.851 70.6241 66.1072 70.5555C66.3634 70.4869 66.6363 70.5228 66.866 70.6554C68.3903 71.5363 70.1626 71.8895 71.9081 71.6601C73.6535 71.4308 75.2745 70.6317 76.5194 69.387C77.7643 68.1423 78.5636 66.5214 78.7932 64.776C79.0228 63.0306 78.6699 61.2582 77.7893 59.7338C77.7237 59.62 77.6812 59.4944 77.6643 59.3642C77.6473 59.2339 77.6561 59.1016 77.6902 58.9748C77.7243 58.848 77.7831 58.7292 77.8632 58.6251C77.9433 58.521 78.043 58.4337 78.1568 58.3681C78.2707 58.3026 78.3963 58.2601 78.5265 58.2431C78.6567 58.2261 78.789 58.2349 78.9158 58.2691C79.0426 58.3032 79.1615 58.362 79.2656 58.4421C79.3697 58.5221 79.457 58.6219 79.5225 58.7357C80.3961 60.2556 80.8561 61.9779 80.8568 63.731C80.8574 65.484 80.3987 67.2066 79.5263 68.7272Z" fill="#192D68"/>
<path d="M46.1243 21.385L41.7776 22.5496C41.5215 22.6183 41.2485 22.5823 41.0188 22.4497C40.7891 22.3171 40.6215 22.0987 40.5529 21.8425L39.3882 17.4959C39.3196 17.2397 39.3555 16.9667 39.4881 16.737C39.6207 16.5074 39.8391 16.3398 40.0953 16.2711C40.3515 16.2025 40.6245 16.2384 40.8541 16.371C41.0838 16.5036 41.2514 16.722 41.3201 16.9782L42.2259 20.359L45.6067 19.4531C45.8629 19.3845 46.1358 19.4204 46.3655 19.553C46.5952 19.6856 46.7628 19.904 46.8314 20.1602C46.9001 20.4164 46.8641 20.6893 46.7315 20.919C46.5989 21.1487 46.3805 21.3163 46.1243 21.385Z" fill="#192D68"/>
<path d="M48.1762 13.5882C50.7379 12.9051 53.4659 13.2659 55.7619 14.5915C58.0579 15.9171 59.7344 18.0992 60.4237 20.6593C60.4923 20.9154 60.4564 21.1884 60.3238 21.4181C60.1912 21.6478 59.9727 21.8154 59.7166 21.884C59.4604 21.9526 59.1874 21.9167 58.9578 21.7841C58.7281 21.6515 58.5605 21.4331 58.4918 21.1769C58.0369 19.4762 57.0334 17.9732 55.637 16.9012C54.2406 15.8291 52.5294 15.2479 50.769 15.2478C49.0085 15.2477 47.2972 15.8286 45.9006 16.9005C44.5041 17.9723 43.5004 19.4751 43.0452 21.1757C43.0111 21.3026 42.9523 21.4214 42.8722 21.5255C42.7922 21.6296 42.6924 21.7169 42.5786 21.7824C42.4648 21.848 42.3392 21.8905 42.2089 21.9075C42.0787 21.9245 41.9464 21.9156 41.8196 21.8815C41.6928 21.8474 41.5739 21.7886 41.4698 21.7085C41.3657 21.6285 41.2784 21.5287 41.2129 21.4149C41.1474 21.3011 41.1049 21.1755 41.0879 21.0452C41.0709 20.915 41.0797 20.7827 41.1138 20.6559C41.5709 18.9635 42.4634 17.4203 43.7026 16.1803C44.9417 14.9402 46.4841 14.0465 48.1762 13.5882Z" fill="#192D68"/>
</svg>
