<svg width="100" height="99" viewBox="0 0 100 99" fill="none" xmlns="http://www.w3.org/2000/svg">
<path d="M35 83.93C35 79.6774 38.4822 76.23 42.7778 76.23H50.0769C55.005 76.23 59 80.185 59 85.0638C59 85.6527 58.5178 86.13 57.9231 86.13H37.2222C35.9949 86.13 35 85.145 35 83.93Z" fill="#D4EEF8"/>
<path d="M11 49.28C11 45.0274 14.4822 41.58 18.7778 41.58H26C30.4183 41.58 34 45.1259 34 49.5C34 50.5935 33.1046 51.48 32 51.48H13.2222C11.9949 51.48 11 50.495 11 49.28Z" fill="#D4EEF8"/>
<path d="M61 49.28C61 45.0274 64.4822 41.58 68.7778 41.58H76C80.4183 41.58 84 45.1259 84 49.5C84 50.5935 83.1046 51.48 82 51.48H63.2222C61.9949 51.48 61 50.495 61 49.28Z" fill="#D4EEF8"/>
<path d="M48.1762 13.4523C50.7379 12.776 53.4659 13.1332 55.7619 14.4456C58.0579 15.7579 59.7344 17.9182 60.4237 20.4527C60.4923 20.7063 60.4564 20.9765 60.3238 21.2039C60.1912 21.4313 59.9727 21.5972 59.7166 21.6652C59.4604 21.7331 59.1874 21.6975 58.9577 21.5663C58.7281 21.435 58.5605 21.2187 58.4918 20.9651C58.0369 19.2815 57.0334 17.7935 55.637 16.7322C54.2406 15.6708 52.5294 15.0955 50.7689 15.0953C49.0085 15.0952 47.2972 15.6703 45.9006 16.7315C44.8266 17.5475 43.985 18.6159 43.4464 19.8316L45.6067 19.2586C45.8628 19.1906 46.1358 19.2262 46.3655 19.3575C46.5952 19.4887 46.7628 19.705 46.8314 19.9586C46.9 20.2122 46.8641 20.4824 46.7315 20.7098C46.5989 20.9372 46.3805 21.1031 46.1243 21.1711L41.7776 22.3241C41.5215 22.3921 41.2485 22.3565 41.0188 22.2252C40.7891 22.094 40.6215 21.8777 40.5529 21.6241L39.3882 17.3209C39.3196 17.0673 39.3555 16.7971 39.4881 16.5697C39.6207 16.3423 39.8391 16.1764 40.0953 16.1084C40.3515 16.0404 40.6244 16.076 40.8541 16.2073C41.0838 16.3386 41.2514 16.5548 41.3201 16.8084L41.8118 18.6253C42.2932 17.6644 42.9306 16.7832 43.7025 16.0185C44.9417 14.7908 46.4841 13.906 48.1762 13.4523Z" fill="#192D68"/>
<path fill-rule="evenodd" clip-rule="evenodd" d="M30.3033 34.4553C28.8968 35.8477 26.9891 36.63 25 36.63C23.0109 36.63 21.1032 35.8477 19.6967 34.4553C18.2902 33.0628 17.5 31.1742 17.5 29.205C17.5 27.2358 18.2902 25.3472 19.6967 23.9547C21.1032 22.5623 23.0109 21.78 25 21.78C26.9891 21.78 28.8968 22.5623 30.3033 23.9547C31.7098 25.3472 32.5 27.2358 32.5 29.205C32.5 31.1742 31.7098 33.0628 30.3033 34.4553ZM28.5355 32.7052C29.4732 31.7769 30 30.5178 30 29.205C30 27.8922 29.4732 26.6331 28.5355 25.7048C27.5979 24.7765 26.3261 24.255 25 24.255C23.6739 24.255 22.4021 24.7765 21.4645 25.7048C20.5268 26.6331 20 27.8922 20 29.205C20 30.5178 20.5268 31.7769 21.4645 32.7052C22.4021 33.6335 23.6739 34.155 25 34.155C26.3261 34.155 27.5979 33.6335 28.5355 32.7052Z" fill="#192D68"/>
<path fill-rule="evenodd" clip-rule="evenodd" d="M37.5 51.48C37.5 51.48 40 51.48 40 49.005C40 46.53 37.5 39.105 25 39.105C12.5 39.105 10 46.53 10 49.005C10 51.48 12.5 51.48 12.5 51.48H37.5ZM35.42 44.8767C37.115 46.5548 37.4975 48.3863 37.5 48.9951H12.5C12.505 48.3863 12.885 46.5548 14.58 44.8767C16.21 43.263 19.275 41.58 25 41.58C30.7225 41.58 33.79 43.263 35.42 44.8767Z" fill="#192D68"/>
<path fill-rule="evenodd" clip-rule="evenodd" d="M54.9801 69.5278C53.5267 70.9667 51.5554 71.775 49.5 71.775C47.4446 71.775 45.4733 70.9667 44.0199 69.5278C42.5665 68.0889 41.75 66.1374 41.75 64.1025C41.75 62.0676 42.5665 60.1161 44.0199 58.6772C45.4733 57.2384 47.4446 56.43 49.5 56.43C51.5554 56.43 53.5267 57.2384 54.9801 58.6772C56.4335 60.1161 57.25 62.0676 57.25 64.1025C57.25 66.1374 56.4335 68.0889 54.9801 69.5278ZM53.1534 67.7193C54.1223 66.7601 54.6667 65.4591 54.6667 64.1025C54.6667 62.7459 54.1223 61.4449 53.1534 60.4857C52.1844 59.5264 50.8703 58.9875 49.5 58.9875C48.1297 58.9875 46.8156 59.5264 45.8466 60.4857C44.8777 61.4449 44.3333 62.7459 44.3333 64.1025C44.3333 65.4591 44.8777 66.7601 45.8466 67.7193C46.8156 68.6786 48.1297 69.2175 49.5 69.2175C50.8703 69.2175 52.1844 68.6786 53.1534 67.7193Z" fill="#192D68"/>
<path fill-rule="evenodd" clip-rule="evenodd" d="M62.4167 87.12C62.4167 87.12 65 87.12 65 84.5625C65 82.005 62.4167 74.3325 49.5 74.3325C36.5833 74.3325 34 82.005 34 84.5625C34 87.12 36.5833 87.12 36.5833 87.12H62.4167ZM60.2673 80.2966C62.0188 82.0306 62.4141 83.9231 62.4167 84.5523H36.5833C36.5885 83.9231 36.9812 82.0306 38.7327 80.2966C40.417 78.6291 43.5842 76.89 49.5 76.89C55.4132 76.89 58.583 78.6291 60.2673 80.2966Z" fill="#192D68"/>
<path fill-rule="evenodd" clip-rule="evenodd" d="M75 36.63C76.9891 36.63 78.8968 35.8477 80.3033 34.4553C81.7098 33.0628 82.5 31.1742 82.5 29.205C82.5 27.2358 81.7098 25.3472 80.3033 23.9547C78.8968 22.5623 76.9891 21.78 75 21.78C73.0109 21.78 71.1032 22.5623 69.6967 23.9547C68.2902 25.3472 67.5 27.2358 67.5 29.205C67.5 31.1742 68.2902 33.0628 69.6967 34.4553C71.1032 35.8477 73.0109 36.63 75 36.63ZM80 29.205C80 30.5178 79.4732 31.7769 78.5355 32.7052C77.5979 33.6335 76.3261 34.155 75 34.155C73.6739 34.155 72.4021 33.6335 71.4645 32.7052C70.5268 31.7769 70 30.5178 70 29.205C70 27.8922 70.5268 26.6331 71.4645 25.7048C72.4021 24.7765 73.6739 24.255 75 24.255C76.3261 24.255 77.5979 24.7765 78.5355 25.7048C79.4732 26.6331 80 27.8922 80 29.205Z" fill="#192D68"/>
<path fill-rule="evenodd" clip-rule="evenodd" d="M90 49.005C90 51.48 87.5 51.48 87.5 51.48H62.5C62.5 51.48 60 51.48 60 49.005C60 46.53 62.5 39.105 75 39.105C87.5 39.105 90 46.53 90 49.005ZM87.5 48.9951C87.4975 48.3863 87.115 46.5548 85.42 44.8767C83.79 43.263 80.7225 41.58 75 41.58C69.275 41.58 66.21 43.263 64.58 44.8767C62.885 46.5548 62.505 48.3863 62.5 48.9951H87.5Z" fill="#192D68"/>
<path d="M21.0711 69.1508C19.1986 67.2926 18.1471 64.7751 18.1471 62.1504C18.1471 59.5257 19.1986 57.0082 21.0711 55.15C21.2586 54.9644 21.513 54.8601 21.7782 54.8601C22.0434 54.8601 22.2977 54.9644 22.4853 55.15C22.6728 55.3357 22.7782 55.5875 22.7782 55.8501C22.7782 56.1126 22.6728 56.3644 22.4853 56.5501C21.2399 57.782 20.44 59.3863 20.2098 61.1142C19.9796 62.8421 20.3319 64.5969 21.212 66.1063C22.0921 67.6158 23.4508 68.7954 25.0774 69.4622C26.3282 69.975 27.6836 70.1624 29.0164 70.0163L27.435 68.4507C27.2475 68.265 27.1421 68.0132 27.1421 67.7507C27.1421 67.4881 27.2475 67.2363 27.435 67.0506C27.6226 66.865 27.8769 66.7607 28.1421 66.7607C28.4073 66.7607 28.6617 66.865 28.8492 67.0506L32.0312 70.2008C32.2188 70.3865 32.3241 70.6383 32.3241 70.9008C32.3241 71.1634 32.2188 71.4152 32.0312 71.6009L28.8492 74.751C28.6617 74.9367 28.4073 75.041 28.1421 75.041C27.8769 75.041 27.6226 74.9367 27.435 74.751C27.2475 74.5654 27.1421 74.3136 27.1421 74.051C27.1421 73.7884 27.2475 73.5366 27.435 73.351L28.7785 72.0209C27.6973 72.0886 26.6077 71.9827 25.5527 71.7032C23.8592 71.2547 22.314 70.3746 21.0711 69.1508Z" fill="#192D68"/>
<path d="M77.7141 57.2873L75.4641 61.1455C75.3315 61.3729 75.2956 61.6431 75.3642 61.8967C75.4328 62.1503 75.6004 62.3666 75.8301 62.4978C76.0598 62.6291 76.3328 62.6647 76.5889 62.5967C76.8451 62.5288 77.0635 62.3629 77.1961 62.1355L78.3143 60.2181C78.8019 61.4547 78.9698 62.7994 78.7932 64.1282C78.5636 65.8562 77.7643 67.4608 76.5194 68.6931C75.2745 69.9254 73.6535 70.7165 71.9081 70.9435C70.1626 71.1706 68.3903 70.8209 66.866 69.9489C66.6363 69.8176 66.3634 69.782 66.1072 69.85C65.851 69.9179 65.6326 70.0838 65.5 70.3112C65.3674 70.5386 65.3315 70.8088 65.4001 71.0624C65.4687 71.3161 65.6363 71.5323 65.866 71.6636C68.1636 72.9732 70.8921 73.3272 73.4529 72.6479C76.0138 71.9685 78.1979 70.3114 79.5263 68.0399C80.3987 66.5346 80.8574 64.8292 80.8568 63.0936C80.8564 62.0125 80.6777 60.9432 80.3318 59.9267L81.9772 60.8672C82.2069 60.9985 82.4799 61.0341 82.7361 60.9661C82.9922 60.8982 83.2107 60.7322 83.3433 60.5048C83.4759 60.2775 83.5118 60.0072 83.4432 59.7536C83.3745 59.5 83.2069 59.2838 82.9772 59.1525L79.0801 56.925C78.8504 56.7937 78.5775 56.7581 78.3213 56.8261C78.0651 56.894 77.8467 57.06 77.7141 57.2873Z" fill="#192D68"/>
</svg>
