<svg width="100" height="100" viewBox="0 0 100 100" fill="none" xmlns="http://www.w3.org/2000/svg">
<path fill-rule="evenodd" clip-rule="evenodd" d="M62 16H27V41H31.8936C32.7682 41 33.5993 41.3817 34.1692 42.0451L42.5165 51.7621C43.0864 52.4255 43.9175 52.8072 44.7921 52.8072H62V16Z" fill="#D4EEF8"/>
<path d="M57.5 22H32" stroke="#192D68" stroke-width="2" stroke-linecap="round"/>
<path d="M57.5 28H32" stroke="#192D68" stroke-width="2" stroke-linecap="round"/>
<path d="M57.5 34H32" stroke="#192D68" stroke-width="2" stroke-linecap="round"/>
<path fill-rule="evenodd" clip-rule="evenodd" d="M22 10C21.4477 10 21 10.4477 21 11V40H17C14.7909 40 13 41.7909 13 44V87C13 89.2091 14.7909 91 17 91H51C51.5523 91 52 90.5523 52 90C52 89.4477 51.5523 89 51 89H17C15.8954 89 15 88.1046 15 87V44C15 42.8954 15.8954 42 17 42H22H31.8936C32.4038 42 32.8918 42.1948 33.2603 42.5398C33.313 42.5891 33.3632 42.6415 33.4107 42.6968L41.7579 52.4137C42.5178 53.2983 43.6259 53.8072 44.7921 53.8072H67H82C83.1046 53.8072 84 54.7027 84 55.8072V87C84 88.1046 83.1046 89 82 89H60C59.4477 89 59 89.4477 59 90C59 90.5523 59.4477 91 60 91H82C84.2091 91 86 89.2091 86 87V55.8072C86 53.5981 84.2091 51.8072 82 51.8072H68.2345C69.4869 46.0056 70.8757 41.8036 72.8657 37.7457C74.9647 33.4657 77.7482 29.3122 81.8156 23.5786C82.032 23.2736 82.0601 22.8733 81.8884 22.541C81.7168 22.2087 81.374 22 81 22H68V11C68 10.4477 67.5523 10 67 10H22ZM31.8936 40H23V12H66V51.8072H44.7921C44.209 51.8072 43.655 51.5528 43.275 51.1105L34.9278 41.3935C34.1679 40.5089 33.0598 40 31.8936 40ZM68.0656 44.4599V24H79.0693C75.5836 28.9593 73.0427 32.8425 71.07 36.8651C69.8906 39.2701 68.9188 41.7151 68.0656 44.4599ZM78 68C78 67.4477 77.5523 67 77 67C76.4477 67 76 67.4477 76 68V81C76 81.5523 76.4477 82 77 82C77.5523 82 78 81.5523 78 81V68Z" fill="#192D68"/>
</svg>
