<svg width="99" height="100" viewBox="0 0 99 100" fill="none" xmlns="http://www.w3.org/2000/svg">
<path d="M58.1561 84.1082C58.1561 79.9559 61.2536 76.5897 65.0746 76.5897H71.5673C75.9509 76.5897 79.5046 80.4516 79.5046 85.2154C79.5046 85.7903 79.0757 86.2564 78.5466 86.2564H60.1328C59.0411 86.2564 58.1561 85.2946 58.1561 84.1082Z" fill="#D4EEF8"/>
<path d="M71.775 72.5C73.6786 72.5 75.5042 71.7362 76.8502 70.3765C78.1963 69.0169 78.9525 67.1728 78.9525 65.25C78.9525 63.3272 78.1963 61.4831 76.8502 60.1235C75.5042 58.7638 73.6786 58 71.775 58C69.8714 58 68.0458 58.7638 66.6997 60.1235C65.3537 61.4831 64.5975 63.3272 64.5975 65.25C64.5975 67.1728 65.3537 69.0169 66.6997 70.3765C68.0458 71.7362 69.8714 72.5 71.775 72.5ZM76.56 65.25C76.56 66.5319 76.0558 67.7613 75.1585 68.6677C74.2611 69.5741 73.044 70.0833 71.775 70.0833C70.5059 70.0833 69.2888 69.5741 68.3915 68.6677C67.4941 67.7613 66.99 66.5319 66.99 65.25C66.99 63.9681 67.4941 62.7387 68.3915 61.8323C69.2888 60.9259 70.5059 60.4167 71.775 60.4167C73.044 60.4167 74.2611 60.9259 75.1585 61.8323C76.0558 62.7387 76.56 63.9681 76.56 65.25ZM86.13 84.5833C86.13 87 83.7375 87 83.7375 87H59.8125C59.8125 87 57.42 87 57.42 84.5833C57.42 82.1667 59.8125 74.9167 71.775 74.9167C83.7375 74.9167 86.13 82.1667 86.13 84.5833ZM83.7375 84.5737C83.7351 83.9792 83.369 82.1908 81.7469 80.5523C80.187 78.9767 77.2514 77.3333 71.775 77.3333C66.2961 77.3333 63.3629 78.9767 61.803 80.5523C60.1809 82.1908 59.8173 83.9792 59.8125 84.5737H83.7375Z" fill="#192D68"/>
<path d="M49.995 14C50.8151 14 51.48 14.6716 51.48 15.5V16H89.1C89.6467 16 90.09 16.4477 90.09 17V65C90.09 65.5523 89.6467 66 89.1 66H85.635C85.0882 66 84.645 65.5523 84.645 65C84.645 64.4477 85.0882 64 85.635 64H88.11V18H10.89V64H58.41C58.9567 64 59.4 64.4477 59.4 65C59.4 65.5523 58.9567 66 58.41 66H49.2763C49.2411 66.049 49.201 66.0955 49.1559 66.1387L30.7914 83.7612C30.395 84.1416 29.7684 84.1254 29.3918 83.725C29.0153 83.3246 29.0313 82.6916 29.4277 82.3112L46.4258 66H9.89997C9.35321 66 8.90997 65.5523 8.90997 65V17C8.90997 16.4477 9.35321 16 9.89997 16H48.51V15.5C48.51 14.6716 49.1748 14 49.995 14Z" fill="#192D68"/>
<path d="M18.81 27C18.81 26.4477 19.2532 26 19.8 26H53.46C54.0067 26 54.45 26.4477 54.45 27C54.45 27.5523 54.0067 28 53.46 28H19.8C19.2532 28 18.81 27.5523 18.81 27Z" fill="#192D68"/>
<path d="M18.81 37C18.81 36.4477 19.2532 36 19.8 36H48.51C49.0567 36 49.5 36.4477 49.5 37C49.5 37.5523 49.0567 38 48.51 38H19.8C19.2532 38 18.81 37.5523 18.81 37Z" fill="#192D68"/>
<path d="M19.8 46C19.2532 46 18.81 46.4477 18.81 47C18.81 47.5523 19.2532 48 19.8 48H43.56C44.1067 48 44.55 47.5523 44.55 47C44.55 46.4477 44.1067 46 43.56 46H19.8Z" fill="#192D68"/>
</svg>
