<svg width="100" height="100" viewBox="0 0 100 100" fill="none" xmlns="http://www.w3.org/2000/svg">
<path fill-rule="evenodd" clip-rule="evenodd" d="M9 14C9.55228 14 10 14.4477 10 15V41.8025C10 42.3548 9.55228 42.8025 9 42.8025C8.44772 42.8025 8 42.3548 8 41.8025V15C8 14.4477 8.44772 14 9 14ZM9 49.5C9.55228 49.5 10 49.9477 10 50.5V85H88.875C89.4273 85 89.875 85.4477 89.875 86C89.875 86.5523 89.4273 87 88.875 87H9C8.44772 87 8 86.5523 8 86V50.5C8 49.9477 8.44772 49.5 9 49.5Z" fill="#192D68"/>
<path fill-rule="evenodd" clip-rule="evenodd" d="M80.8321 14.4453C81.1384 14.9048 81.0143 15.5257 80.5547 15.832L53.9297 33.5821C53.673 33.7532 53.3516 33.7963 53.0588 33.6987L40.2103 29.4158L27.3047 38.0196C26.8452 38.3259 26.2243 38.2017 25.918 37.7422C25.6116 37.2827 25.7358 36.6618 26.1953 36.3555L39.5078 27.4805C39.7646 27.3093 40.086 27.2662 40.3788 27.3638L53.2273 31.6467L79.4453 14.1679C79.9049 13.8616 80.5257 13.9858 80.8321 14.4453Z" fill="#192D68"/>
<path fill-rule="evenodd" clip-rule="evenodd" d="M31.01 50.6775V76.9475H22.49V50.6775H31.01Z" fill="#D4EEF8"/>
<path fill-rule="evenodd" clip-rule="evenodd" d="M44.3225 41.8025V76.9475H35.8025V41.8025H44.3225Z" fill="#D4EEF8"/>
<path fill-rule="evenodd" clip-rule="evenodd" d="M57.635 46.24L57.635 76.9475H49.115L49.115 46.24H57.635Z" fill="#D4EEF8"/>
<path fill-rule="evenodd" clip-rule="evenodd" d="M70.9475 37.365V76.9475H62.4275V37.365H70.9475Z" fill="#D4EEF8"/>
<path fill-rule="evenodd" clip-rule="evenodd" d="M84.26 28.49V50C81.1447 47.787 79.2646 47.1516 75.74 49.21V28.49H84.26ZM84.26 64V76.9475H75.74V65C79.2482 67.0283 81.1361 66.2814 84.26 64Z" fill="#D4EEF8"/>
<path fill-rule="evenodd" clip-rule="evenodd" d="M86.9063 63.1231L93.631 69.8479C93.8674 70.0845 94.0001 70.4052 94 70.7396C93.9999 71.074 93.8669 71.3946 93.6304 71.631C93.3939 71.8674 93.0731 72.0001 92.7388 72C92.4044 71.9999 92.0837 71.8669 91.8474 71.6304L85.1227 64.9055C83.1124 66.4626 80.5845 67.1953 78.0532 66.9547C75.5218 66.714 73.1773 65.5181 71.4964 63.6101C69.8156 61.7021 68.9247 59.2254 69.005 56.6839C69.0853 54.1424 70.1308 51.7269 71.9288 49.9289C73.7268 48.1308 76.1422 47.0853 78.6837 47.005C81.2251 46.9247 83.7017 47.8156 85.6097 49.4965C87.5176 51.1774 88.7135 53.522 88.9542 56.0534C89.1948 58.5848 88.4621 61.1128 86.9051 63.1231H86.9063ZM79.0005 64.4993C80.9895 64.4993 82.8971 63.7091 84.3035 62.3026C85.71 60.8962 86.5001 58.9885 86.5001 56.9995C86.5001 55.0104 85.71 53.1028 84.3035 51.6963C82.8971 50.2898 80.9895 49.4996 79.0005 49.4996C77.0114 49.4996 75.1039 50.2898 73.6974 51.6963C72.291 53.1028 71.5008 55.0104 71.5008 56.9995C71.5008 58.9885 72.291 60.8962 73.6974 62.3026C75.1039 63.7091 77.0114 64.4993 79.0005 64.4993Z" fill="#192D68"/>
</svg>
