<svg width="99" height="100" viewBox="0 0 99 100" fill="none" xmlns="http://www.w3.org/2000/svg">
<path d="M31.68 43H60.39V67C60.39 69.7614 58.1738 72 55.44 72H36.63C33.8962 72 31.68 69.7614 31.68 67V43Z" fill="#D4EEF8"/>
<path fill-rule="evenodd" clip-rule="evenodd" d="M24.75 42C22.5629 42 20.79 43.7909 20.79 46V62C20.79 64.2091 22.5629 66 24.75 66C26.937 66 28.71 64.2091 28.71 62V42H24.75ZM22.77 46C22.77 44.8954 23.6565 44 24.75 44H26.73V62C26.73 63.1046 25.8435 64 24.75 64C23.6565 64 22.77 63.1046 22.77 62V46Z" fill="#192D68"/>
<path fill-rule="evenodd" clip-rule="evenodd" d="M30.69 42H68.31V67C68.31 70.3137 65.6505 73 62.37 73H61.38V86C61.38 88.2091 59.607 90 57.42 90C55.2329 90 53.46 88.2091 53.46 86V73H45.54V86C45.54 88.2091 43.767 90 41.58 90C39.3929 90 37.62 88.2091 37.62 86V73H36.63C33.3494 73 30.69 70.3137 30.69 67V42ZM62.37 71C64.557 71 66.33 69.2091 66.33 67V44H32.67V67C32.67 69.2091 34.4429 71 36.63 71H62.37ZM55.44 73V86C55.44 87.1046 56.3265 88 57.42 88C58.5135 88 59.4 87.1046 59.4 86V73H55.44ZM39.6 73H43.56V86C43.56 87.1046 42.6735 88 41.58 88C40.4865 88 39.6 87.1046 39.6 86V73Z" fill="#192D68"/>
<path fill-rule="evenodd" clip-rule="evenodd" d="M70.29 42H74.25C76.437 42 78.21 43.7909 78.21 46V62C78.21 64.2091 76.437 66 74.25 66C72.0629 66 70.29 64.2091 70.29 62V42ZM72.27 44V62C72.27 63.1046 73.1565 64 74.25 64C75.3435 64 76.23 63.1046 76.23 62V46C76.23 44.8954 75.3435 44 74.25 44H72.27Z" fill="#192D68"/>
<path d="M60.39 38.5C60.39 36.2019 60.0187 33.9263 59.2973 31.8031C58.5759 29.6799 57.5185 27.7507 56.1855 26.1256C54.8525 24.5006 53.27 23.2116 51.5284 22.3321C49.7868 21.4527 47.9201 21 46.035 21C44.1499 21 42.2832 21.4527 40.5416 22.3321C38.7999 23.2116 37.2174 24.5006 35.8845 26.1256C34.5515 27.7507 33.4941 29.6799 32.7727 31.8031C32.0513 33.9263 31.68 36.2019 31.68 38.5L60.39 38.5Z" fill="#D4EEF8"/>
<path fill-rule="evenodd" clip-rule="evenodd" d="M33.9499 11.2929C34.3366 10.9024 34.9634 10.9024 35.35 11.2929L42.775 18.7929C42.8904 18.9094 42.9713 19.0476 43.0178 19.1944C45.0917 18.4052 47.2859 18 49.5 18C51.7141 18 53.9083 18.4052 55.9821 19.1944C56.0286 19.0476 56.1096 18.9094 56.2249 18.7929L63.6499 11.2929C64.0366 10.9024 64.6634 10.9024 65.05 11.2929C65.4366 11.6834 65.4366 12.3166 65.05 12.7071L57.8193 20.0109C59.6661 20.955 61.3526 22.2079 62.8102 23.7212C64.5555 25.5331 65.9386 27.6827 66.8817 30.0466C67.8249 32.4104 68.31 34.943 68.31 37.5V38.5L30.69 38.5V37.5C30.69 34.943 31.1751 32.4104 32.1182 30.0466C33.0614 27.6827 34.4444 25.5331 36.1898 23.7212C37.6474 22.2079 39.3338 20.955 41.1807 20.0109L33.9499 12.7071C33.5633 12.3166 33.5633 11.6834 33.9499 11.2929ZM43.0683 21.3283C45.1083 20.4511 47.2937 20 49.5 20C51.7063 20 53.8917 20.4511 55.9316 21.3283C57.9716 22.2056 59.827 23.4921 61.3911 25.1159C62.9552 26.7397 64.1973 28.669 65.0453 30.7942C65.7702 32.6111 66.1946 34.5402 66.3025 36.5L32.6975 36.5C32.8054 34.5402 33.2298 32.6111 33.9547 30.7942C34.8026 28.669 36.0447 26.7397 37.6089 25.1159C39.173 23.4921 41.0284 22.2056 43.0683 21.3283Z" fill="#192D68"/>
</svg>
