<svg width="100" height="100" viewBox="0 0 100 100" fill="none" xmlns="http://www.w3.org/2000/svg">
<rect x="23.5" y="24" width="4" height="4" rx="1" fill="#D4EEF8"/>
<rect x="30.5" y="24" width="34" height="4" rx="1" fill="#D4EEF8"/>
<rect x="23.5" y="34" width="4" height="4" rx="1" fill="#D4EEF8"/>
<rect x="30.5" y="34" width="34" height="4" rx="1" fill="#D4EEF8"/>
<rect x="23.5" y="44" width="4" height="4" rx="1" fill="#D4EEF8"/>
<rect x="30.5" y="44" width="34" height="4" rx="1" fill="#D4EEF8"/>
<rect x="23.5" y="54" width="4" height="4" rx="1" fill="#D4EEF8"/>
<rect x="30.5" y="54" width="34" height="4" rx="1" fill="#D4EEF8"/>
<path d="M45.5 88H17.5V52V43.6M71.5 51V16H17.5V34" stroke="#192D68" stroke-width="2" stroke-linecap="round" stroke-linejoin="round"/>
<path d="M27.5 12V16H60.5V12H27.5Z" fill="#D4EEF8"/>
<path d="M49.5 10H38.5C35.8803 10 33.6884 12.8196 33.1349 15.0125C32.9997 15.548 33.4477 16 34 16H54C54.5523 16 55.0003 15.548 54.8651 15.0125C54.3116 12.8196 52.1197 10 49.5 10Z" fill="#D4EEF8"/>
<rect x="56.0876" y="70.7482" width="3.05352" height="3.05352" fill="#D4EEF8"/>
<rect x="56.0876" y="82.9623" width="3.05352" height="3.05352" fill="#D4EEF8"/>
<rect x="62.6308" y="76.8552" width="3.05352" height="3.05352" fill="#D4EEF8"/>
<rect x="69.1742" y="70.7482" width="3.05352" height="3.05352" fill="#D4EEF8"/>
<rect x="69.1742" y="82.9623" width="3.05352" height="3.05352" fill="#D4EEF8"/>
<rect x="75.7174" y="64.6412" width="3.05352" height="3.05352" fill="#D4EEF8"/>
<rect x="75.7174" y="76.8552" width="3.05352" height="3.05352" fill="#D4EEF8"/>
<path fill-rule="evenodd" clip-rule="evenodd" d="M55.6514 69.8758C55.6514 69.6349 55.8467 69.4396 56.0876 69.4396H60.0136C60.2545 69.4396 60.4498 69.6349 60.4498 69.8758V73.8017C60.4498 74.0427 60.2545 74.238 60.0136 74.238H56.0876C55.8467 74.238 55.6514 74.0427 55.6514 73.8017V69.8758ZM56.5239 70.312V73.3655H59.5774V70.312H56.5239Z" fill="#192D68"/>
<path fill-rule="evenodd" clip-rule="evenodd" d="M55.6514 75.9828C55.6514 75.7419 55.8467 75.5466 56.0876 75.5466H60.0136C60.2545 75.5466 60.4498 75.7419 60.4498 75.9828V79.9088C60.4498 80.1497 60.2545 80.345 60.0136 80.345H56.0876C55.8467 80.345 55.6514 80.1497 55.6514 79.9088V75.9828ZM56.5239 76.419V79.4726H59.5774V76.419H56.5239Z" fill="#192D68"/>
<path fill-rule="evenodd" clip-rule="evenodd" d="M55.6514 82.0898C55.6514 81.8489 55.8467 81.6536 56.0876 81.6536H60.0136C60.2545 81.6536 60.4498 81.8489 60.4498 82.0898V86.0158C60.4498 86.2567 60.2545 86.452 60.0136 86.452H56.0876C55.8467 86.452 55.6514 86.2567 55.6514 86.0158V82.0898ZM56.5239 82.5261V85.5796H59.5774V82.5261H56.5239Z" fill="#192D68"/>
<path fill-rule="evenodd" clip-rule="evenodd" d="M62.1948 69.8758C62.1948 69.6349 62.3901 69.4396 62.631 69.4396H66.557C66.7979 69.4396 66.9932 69.6349 66.9932 69.8758V73.8017C66.9932 74.0427 66.7979 74.238 66.557 74.238H62.631C62.3901 74.238 62.1948 74.0427 62.1948 73.8017V69.8758ZM63.0673 70.312V73.3655H66.1208V70.312H63.0673Z" fill="#192D68"/>
<path fill-rule="evenodd" clip-rule="evenodd" d="M62.1948 75.9828C62.1948 75.7419 62.3901 75.5466 62.631 75.5466H66.557C66.7979 75.5466 66.9932 75.7419 66.9932 75.9828V79.9088C66.9932 80.1497 66.7979 80.345 66.557 80.345H62.631C62.3901 80.345 62.1948 80.1497 62.1948 79.9088V75.9828ZM63.0673 76.419V79.4726H66.1208V76.419H63.0673Z" fill="#192D68"/>
<path fill-rule="evenodd" clip-rule="evenodd" d="M62.1948 82.0898C62.1948 81.8489 62.3901 81.6536 62.631 81.6536H66.557C66.7979 81.6536 66.9932 81.8489 66.9932 82.0898V86.0158C66.9932 86.2567 66.7979 86.452 66.557 86.452H62.631C62.3901 86.452 62.1948 86.2567 62.1948 86.0158V82.0898ZM63.0673 82.5261V85.5796H66.1208V82.5261H63.0673Z" fill="#192D68"/>
<path fill-rule="evenodd" clip-rule="evenodd" d="M68.738 63.7687C68.738 63.5278 68.9333 63.3325 69.1742 63.3325H73.1001C73.3411 63.3325 73.5364 63.5278 73.5364 63.7687V67.6947C73.5364 67.9356 73.3411 68.1309 73.1001 68.1309H69.1742C68.9333 68.1309 68.738 67.9356 68.738 67.6947V63.7687ZM69.6104 64.205V67.2585H72.6639V64.205H69.6104Z" fill="#192D68"/>
<path fill-rule="evenodd" clip-rule="evenodd" d="M68.738 69.8758C68.738 69.6349 68.9333 69.4396 69.1742 69.4396H73.1001C73.3411 69.4396 73.5364 69.6349 73.5364 69.8758V73.8017C73.5364 74.0427 73.3411 74.238 73.1001 74.238H69.1742C68.9333 74.238 68.738 74.0427 68.738 73.8017V69.8758ZM69.6104 70.312V73.3655H72.6639V70.312H69.6104Z" fill="#192D68"/>
<path fill-rule="evenodd" clip-rule="evenodd" d="M68.738 75.9828C68.738 75.7419 68.9333 75.5466 69.1742 75.5466H73.1001C73.3411 75.5466 73.5364 75.7419 73.5364 75.9828V79.9088C73.5364 80.1497 73.3411 80.345 73.1001 80.345H69.1742C68.9333 80.345 68.738 80.1497 68.738 79.9088V75.9828ZM69.6104 76.419V79.4726H72.6639V76.419H69.6104Z" fill="#192D68"/>
<path fill-rule="evenodd" clip-rule="evenodd" d="M68.738 82.0898C68.738 81.8489 68.9333 81.6536 69.1742 81.6536H73.1001C73.3411 81.6536 73.5364 81.8489 73.5364 82.0898V86.0158C73.5364 86.2567 73.3411 86.452 73.1001 86.452H69.1742C68.9333 86.452 68.738 86.2567 68.738 86.0158V82.0898ZM69.6104 82.5261V85.5796H72.6639V82.5261H69.6104Z" fill="#192D68"/>
<path fill-rule="evenodd" clip-rule="evenodd" d="M75.2812 63.7687C75.2812 63.5278 75.4765 63.3325 75.7174 63.3325H79.6434C79.8843 63.3325 80.0796 63.5278 80.0796 63.7687V67.6947C80.0796 67.9356 79.8843 68.1309 79.6434 68.1309H75.7174C75.4765 68.1309 75.2812 67.9356 75.2812 67.6947V63.7687ZM76.1536 64.205V67.2585H79.2071V64.205H76.1536Z" fill="#192D68"/>
<path fill-rule="evenodd" clip-rule="evenodd" d="M75.2812 69.8758C75.2812 69.6349 75.4765 69.4396 75.7174 69.4396H79.6434C79.8843 69.4396 80.0796 69.6349 80.0796 69.8758V73.8017C80.0796 74.0427 79.8843 74.238 79.6434 74.238H75.7174C75.4765 74.238 75.2812 74.0427 75.2812 73.8017V69.8758ZM76.1536 70.312V73.3655H79.2071V70.312H76.1536Z" fill="#192D68"/>
<path fill-rule="evenodd" clip-rule="evenodd" d="M75.2812 75.9828C75.2812 75.7419 75.4765 75.5466 75.7174 75.5466H79.6434C79.8843 75.5466 80.0796 75.7419 80.0796 75.9828V79.9088C80.0796 80.1497 79.8843 80.345 79.6434 80.345H75.7174C75.4765 80.345 75.2812 80.1497 75.2812 79.9088V75.9828ZM76.1536 76.419V79.4726H79.2071V76.419H76.1536Z" fill="#192D68"/>
<path fill-rule="evenodd" clip-rule="evenodd" d="M75.2812 82.0898C75.2812 81.8489 75.4765 81.6536 75.7174 81.6536H79.6434C79.8843 81.6536 80.0796 81.8489 80.0796 82.0898V86.0158C80.0796 86.2567 79.8843 86.452 79.6434 86.452H75.7174C75.4765 86.452 75.2812 86.2567 75.2812 86.0158V82.0898ZM76.1536 82.5261V85.5796H79.2071V82.5261H76.1536Z" fill="#192D68"/>
<path fill-rule="evenodd" clip-rule="evenodd" d="M52.5979 57.348C52.1837 57.348 51.8479 57.6837 51.8479 58.098V73.5389V79.8845V88.9799C51.8479 89.3941 52.1837 89.7299 52.5979 89.7299H67.8212H83.0444C83.4586 89.7299 83.7944 89.3941 83.7944 88.9799V69.9431C83.7944 69.5289 83.4586 69.1931 83.0444 69.1931C82.6302 69.1931 82.2944 69.5289 82.2944 69.9431V88.2299H67.8212H53.3479V79.8845V73.5389V61.4823H82.2944V65.7318C82.2944 66.146 82.6302 66.4818 83.0444 66.4818C83.4586 66.4818 83.7944 66.146 83.7944 65.7318V58.098C83.7944 57.6837 83.4586 57.348 83.0444 57.348H52.5979Z" fill="#192D68"/>
</svg>
