<svg width="99" height="100" viewBox="0 0 99 100" fill="none" xmlns="http://www.w3.org/2000/svg">
<path d="M61.38 16H26.73V41H31.5747C32.4406 41 33.2633 41.3817 33.8275 42.0451L42.0913 51.7621C42.6555 52.4255 43.4783 52.8072 44.3442 52.8072H61.38V16Z" fill="#D4EEF8"/>
<path d="M30.69 22C30.69 21.4477 31.1332 21 31.68 21H56.925C57.4718 21 57.915 21.4477 57.915 22C57.915 22.5523 57.4718 23 56.925 23H31.68C31.1332 23 30.69 22.5523 30.69 22Z" fill="#192D68"/>
<path d="M30.69 28C30.69 27.4477 31.1332 27 31.68 27H56.925C57.4718 27 57.915 27.4477 57.915 28C57.915 28.5523 57.4718 29 56.925 29H31.68C31.1332 29 30.69 28.5523 30.69 28Z" fill="#192D68"/>
<path d="M31.68 33C31.1332 33 30.69 33.4477 30.69 34C30.69 34.5523 31.1332 35 31.68 35H56.925C57.4718 35 57.915 34.5523 57.915 34C57.915 33.4477 57.4718 33 56.925 33H31.68Z" fill="#192D68"/>
<path fill-rule="evenodd" clip-rule="evenodd" d="M21.78 10C21.2332 10 20.79 10.4477 20.79 11V40H16.83C14.6429 40 12.87 41.7909 12.87 44V87C12.87 89.2091 14.6429 91 16.83 91H50.49C51.0368 91 51.48 90.5523 51.48 90C51.48 89.4477 51.0368 89 50.49 89H16.83C15.7365 89 14.85 88.1046 14.85 87V44C14.85 42.8954 15.7365 42 16.83 42H31.5747C32.0798 42 32.5629 42.1948 32.9277 42.5398C32.9799 42.5891 33.0296 42.6415 33.0766 42.6968L41.3403 52.4137C42.0926 53.2983 43.1897 53.8072 44.3442 53.8072H81.18C82.2735 53.8072 83.16 54.7027 83.16 55.8072V87C83.16 88.1046 82.2735 89 81.18 89H59.4C58.8532 89 58.41 89.4477 58.41 90C58.41 90.5523 58.8532 91 59.4 91H81.18C83.367 91 85.14 89.2091 85.14 87V55.8072C85.14 53.5981 83.367 51.8072 81.18 51.8072H67.5521C68.792 46.0056 70.1669 41.8036 72.137 37.7457C74.215 33.4657 76.9707 29.3122 80.9975 23.5786C81.2117 23.2736 81.2395 22.8733 81.0696 22.541C80.8996 22.2087 80.5603 22 80.19 22H67.32V11C67.32 10.4477 66.8768 10 66.33 10H21.78ZM31.5747 40H22.77V12H65.34V51.8072H44.3442C43.7669 51.8072 43.2184 51.5528 42.8423 51.1105L34.5785 41.3935C33.8262 40.5089 32.7292 40 31.5747 40ZM67.3849 44.4599V24H78.2786C74.8278 28.9593 72.3123 32.8425 70.3593 36.8651C69.1917 39.2701 68.2296 41.7151 67.3849 44.4599Z" fill="#192D68"/>
<path d="M77.22 68C77.22 67.4477 76.7768 67 76.23 67C75.6832 67 75.24 67.4477 75.24 68V81C75.24 81.5523 75.6832 82 76.23 82C76.7768 82 77.22 81.5523 77.22 81V68Z" fill="#192D68"/>
</svg>
