<svg width="100" height="100" viewBox="0 0 100 100" fill="none" xmlns="http://www.w3.org/2000/svg">
<path fill-rule="evenodd" clip-rule="evenodd" d="M17 12C16.4477 12 16 12.4477 16 13V48.5V57.375C16 57.9273 16.4477 58.375 17 58.375C17.5523 58.375 18 57.9273 18 57.375V48.5V22H71V50.5C71 51.0523 71.4477 51.5 72 51.5C72.5523 51.5 73 51.0523 73 50.5V13C73 12.4477 72.5523 12 72 12H17ZM18 66.25C18 65.6977 17.5523 65.25 17 65.25C16.4477 65.25 16 65.6977 16 66.25V84C16 84.5523 16.4477 85 17 85H46.5C47.0523 85 47.5 84.5523 47.5 84C47.5 83.4477 47.0523 83 46.5 83H18V66.25ZM56 17C56 16.4477 56.4477 16 57 16H64C64.5523 16 65 16.4477 65 17V19C65 19.5523 64.5523 20 64 20H57C56.4477 20 56 19.5523 56 19V17ZM46 16C45.4477 16 45 16.4477 45 17V19C45 19.5523 45.4477 20 46 20H53C53.5523 20 54 19.5523 54 19V17C54 16.4477 53.5523 16 53 16H46ZM34 17C34 16.4477 34.4477 16 35 16H42C42.5523 16 43 16.4477 43 17V19C43 19.5523 42.5523 20 42 20H35C34.4477 20 34 19.5523 34 19V17Z" fill="#192D68"/>
<rect x="24" y="28" width="4" height="4" rx="1" fill="#D4EEF8"/>
<rect x="31" y="28" width="34" height="4" rx="1" fill="#D4EEF8"/>
<rect x="24" y="38" width="4" height="4" rx="1" fill="#D4EEF8"/>
<rect x="31" y="38" width="34" height="4" rx="1" fill="#D4EEF8"/>
<rect x="24" y="48" width="4" height="4" rx="1" fill="#D4EEF8"/>
<rect x="31" y="48" width="34" height="4" rx="1" fill="#D4EEF8"/>
<rect x="24" y="58" width="4" height="4" rx="1" fill="#D4EEF8"/>
<rect x="31" y="58" width="34" height="4" rx="1" fill="#D4EEF8"/>
<path d="M84.4962 66.5276L83.1695 64.0786C82.9768 63.723 82.5889 63.5185 82.1866 63.5604L76.9955 64.1012C75.4844 64.2586 74.0443 63.4232 73.4309 62.0333L71.4724 57.5962C71.3124 57.2338 70.9537 57 70.5575 57H67.4006C67.0045 57 66.6457 57.2338 66.4858 57.5962L64.5273 62.0333C63.9138 63.4232 62.4738 64.2586 60.9627 64.1012L55.7493 63.558C55.3583 63.5173 54.9797 63.7094 54.7818 64.049L53.3328 66.5344C53.131 66.8806 53.1553 67.3139 53.3947 67.6353L56.4679 71.762C57.388 72.9976 57.3921 74.6896 56.4778 75.9295L53.3902 80.1171C53.1534 80.4383 53.1301 80.8695 53.3311 81.2143L54.7789 83.6976C54.9783 84.0396 55.3608 84.2318 55.7543 84.1877L60.9437 83.6055C62.4637 83.435 63.9183 84.2711 64.5359 85.6704L66.4858 90.088C66.6457 90.4504 67.0045 90.6842 67.4006 90.6842H70.5575C70.9537 90.6842 71.3124 90.4504 71.4724 90.088L73.4223 85.6704C74.0399 84.2711 75.4945 83.435 77.0144 83.6055L82.2099 84.1884C82.6003 84.2322 82.9802 84.0433 83.181 83.7057L84.6632 81.2127C84.8676 80.869 84.8476 80.4367 84.6124 80.1134L81.5289 75.8741C80.6456 74.6597 80.6354 73.0172 81.5035 71.7919L81.8279 71.3341" stroke="#192D68" stroke-width="2" stroke-miterlimit="10" stroke-linecap="round"/>
<path d="M73.6254 73.7532C73.6254 76.3368 71.5581 78.4735 69.0002 78.4735C66.4422 78.4735 64.3604 76.3368 64.3604 73.7532C64.3604 71.1695 66.4422 69.2103 69.0002 69.2103C71.5581 69.2103 73.6254 71.1695 73.6254 73.7532Z" fill="#D4EEF8" stroke="#192D68" stroke-width="2"/>
</svg>
