<svg width="100" height="99" viewBox="0 0 100 99" fill="none" xmlns="http://www.w3.org/2000/svg">
<path d="M47.696 63.8226C47.696 66.1336 49.1361 68.0072 50.9125 68.0072C52.6888 68.0072 54.129 66.1336 54.129 63.8226C54.129 63.8226 52.1991 64.6595 50.9125 63.8226C49.6259 62.9857 47.696 63.8226 47.696 63.8226Z" fill="#D4EEF8"/>
<path d="M41.3779 68.8365C41.3779 70.6523 42.5094 72.1244 43.9051 72.1244C45.3009 72.1244 46.4324 70.6523 46.4324 68.8365C46.4324 68.8365 44.916 69.4941 43.9051 68.8365C42.8942 68.1789 41.3779 68.8365 41.3779 68.8365Z" fill="#D4EEF8"/>
<path d="M54.0141 71.3425C54.0141 73.1583 55.1456 74.6305 56.5413 74.6305C57.937 74.6305 59.0686 73.1583 59.0686 71.3425C59.0686 71.3425 57.5522 72.0001 56.5413 71.3425C55.5304 70.685 54.0141 71.3425 54.0141 71.3425Z" fill="#D4EEF8"/>
<path fill-rule="evenodd" clip-rule="evenodd" d="M51.3144 57.5215L50.9125 57.9827L50.5105 57.5215C50.7413 57.3236 51.0836 57.3236 51.3144 57.5215ZM50.9125 58.8295C50.8937 58.8487 50.8743 58.8686 50.8546 58.8892C50.5688 59.186 50.1871 59.6172 49.8062 60.1516C49.0364 61.2312 48.3107 62.6734 48.3107 64.248C48.3107 66.0852 49.5664 67.3976 50.9125 67.3976C52.2585 67.3976 53.5142 66.0852 53.5142 64.248C53.5142 62.6734 52.7886 61.2312 52.0188 60.1516C51.6378 59.6172 51.2561 59.186 50.9704 58.8892C50.9506 58.8686 50.9313 58.8487 50.9125 58.8295ZM50.5105 57.5215C50.5105 57.5215 50.5105 57.5215 50.9125 57.9827C51.3144 57.5215 51.3144 57.5215 51.3144 57.5215L51.3162 57.523L51.3191 57.5255L51.3283 57.5335L51.3601 57.5616C51.3869 57.5856 51.4249 57.62 51.4724 57.6645C51.5674 57.7533 51.7008 57.8822 51.8597 58.0473C52.1771 58.377 52.5995 58.8543 53.0227 59.4477C53.8611 60.6236 54.7437 62.314 54.7437 64.248C54.7437 66.563 53.1192 68.6168 50.9125 68.6168C48.7058 68.6168 47.0812 66.563 47.0812 64.248C47.0812 62.314 47.9638 60.6236 48.8023 59.4477C49.2254 58.8543 49.6479 58.377 49.9652 58.0473C50.1242 57.8822 50.2576 57.7533 50.3525 57.6645C50.4001 57.62 50.438 57.5856 50.4649 57.5616L50.4966 57.5335L50.5058 57.5255L50.5088 57.523L50.5105 57.5215Z" fill="#192D68"/>
<path fill-rule="evenodd" clip-rule="evenodd" d="M44.3071 63.7868L43.9051 64.248L43.5032 63.7868C43.734 63.5889 44.0763 63.5889 44.3071 63.7868ZM43.9051 65.1026C43.6905 65.3295 43.4167 65.6443 43.1435 66.0275C42.546 66.8654 41.9926 67.972 41.9926 69.1707C41.9926 70.563 42.9398 71.5148 43.9051 71.5148C44.8705 71.5148 45.8177 70.563 45.8177 69.1707C45.8177 67.972 45.2643 66.8654 44.6668 66.0275C44.3936 65.6443 44.1198 65.3295 43.9051 65.1026ZM43.5032 63.7868C43.5032 63.7868 43.5032 63.7868 43.9051 64.248C44.3071 63.7868 44.3071 63.7868 44.3071 63.7868L44.3087 63.7881L44.3113 63.7903L44.319 63.7971L44.345 63.8201C44.3668 63.8395 44.3974 63.8673 44.4355 63.9029C44.5116 63.9741 44.618 64.077 44.7447 64.2086C44.9974 64.4711 45.3337 64.851 45.6707 65.3236C46.3369 66.2579 47.0471 67.6127 47.0471 69.1707C47.0471 71.0408 45.7312 72.734 43.9051 72.734C42.0791 72.734 40.7632 71.0408 40.7632 69.1707C40.7632 67.6127 41.4734 66.2579 42.1396 65.3236C42.4766 64.851 42.8129 64.4711 43.0656 64.2086C43.1922 64.077 43.2987 63.9741 43.3748 63.9029C43.4129 63.8673 43.4435 63.8395 43.4653 63.8201L43.4913 63.7971L43.499 63.7903L43.5016 63.7881L43.5032 63.7868Z" fill="#192D68"/>
<path fill-rule="evenodd" clip-rule="evenodd" d="M56.9433 66.2928L56.5413 66.754L56.1394 66.2928C56.3702 66.0949 56.7125 66.0949 56.9433 66.2928ZM56.5413 67.6086C56.3267 67.8355 56.0529 68.1503 55.7796 68.5335C55.1822 69.3715 54.6288 70.4781 54.6288 71.6767C54.6288 73.069 55.5759 74.0208 56.5413 74.0208C57.5067 74.0208 58.4538 73.069 58.4538 71.6767C58.4538 70.4781 57.9005 69.3715 57.303 68.5335C57.0298 68.1503 56.756 67.8355 56.5413 67.6086ZM56.1394 66.2928C56.1394 66.2928 56.1394 66.2928 56.5413 66.754C56.9433 66.2928 56.9433 66.2928 56.9433 66.2928L56.9449 66.2942L56.9474 66.2964L56.9552 66.3031L56.9812 66.3261C57.003 66.3456 57.0336 66.3733 57.0716 66.4089C57.1478 66.4801 57.2542 66.583 57.3809 66.7146C57.6336 66.9771 57.9699 67.3571 58.3069 67.8297C58.973 68.7639 59.6833 70.1187 59.6833 71.6767C59.6833 73.5469 58.3674 75.24 56.5413 75.24C54.7153 75.24 53.3993 73.5469 53.3993 71.6767C53.3993 70.1187 54.1096 68.7639 54.7758 67.8297C55.1127 67.3571 55.449 66.9771 55.7018 66.7146C55.8284 66.583 55.9349 66.4801 56.011 66.4089C56.0491 66.3733 56.0797 66.3456 56.1015 66.3261L56.1274 66.3031L56.1352 66.2964L56.1377 66.2942L56.1394 66.2928Z" fill="#192D68"/>
<path fill-rule="evenodd" clip-rule="evenodd" d="M37.7941 24.8055C37.7941 23.6813 38.7131 22.77 39.8468 22.77H61.5094C62.643 22.77 63.562 23.6813 63.562 24.8055V26.114C63.562 27.2381 62.643 28.1495 61.5094 28.1495H59.1636V39.2355L73.0555 39.2355V38.2542C73.0555 37.1301 73.9745 36.2188 75.1081 36.2188H76.4276C77.5613 36.2188 78.4803 37.1301 78.4803 38.2542V39.2355H85.9211C87.6215 39.2355 89 40.6025 89 42.2887V44.2878C89 44.8499 88.5405 45.3056 87.9737 45.3056C87.4069 45.3056 86.9474 44.8499 86.9474 44.2878V42.2887C86.9474 41.7266 86.4879 41.271 85.9211 41.271H78.4803V54.0291H85.9211C86.4879 54.0291 86.9474 53.5734 86.9474 53.0113V51.0122C86.9474 50.4501 87.4069 49.9944 87.9737 49.9944C88.5405 49.9944 89 50.4501 89 51.0122V53.0113C89 54.6976 87.6215 56.0645 85.9211 56.0645H78.4803V57.046C78.4803 58.1702 77.5613 59.0815 76.4276 59.0815H75.1081C73.9745 59.0815 73.0555 58.1702 73.0555 57.046V56.0645H26.9446V57.046C26.9446 58.1702 26.0256 59.0815 24.8919 59.0815H23.5724C22.4387 59.0815 21.5197 58.1702 21.5197 57.046V56.0645H14.0789C12.3785 56.0645 11 54.6976 11 53.0113V42.2887C11 40.6025 12.3785 39.2355 14.0789 39.2355H21.5197V38.2542C21.5197 37.1301 22.4387 36.2188 23.5724 36.2188H24.8919C26.0256 36.2188 26.9446 37.1301 26.9446 38.2542V39.2355L42.1927 39.2355V36.2186C42.1927 35.6565 42.6522 35.2009 43.219 35.2009C43.7859 35.2009 44.2453 35.6565 44.2453 36.2186V39.2355L57.111 39.2355V28.1495H44.2453V30.8392C44.2453 31.4012 43.7859 31.8569 43.219 31.8569C42.6522 31.8569 42.1927 31.4012 42.1927 30.8392L42.1927 28.1495H39.8468C38.7131 28.1495 37.7941 27.2381 37.7941 26.114V24.8055ZM73.0555 41.271V54.0291H52.4238L52.7124 53.4739L51.0371 50.6087L52.7124 47.9482L49.3618 45.9017L50.5584 48.1529L48.6438 50.6087L50.5584 53.4739L50.1977 54.0291L26.9446 54.0291L26.9446 41.271L73.0555 41.271ZM14.0789 41.271H21.5197L21.5197 54.0291H14.0789C13.5121 54.0291 13.0526 53.5734 13.0526 53.0113L13.0526 42.2887C13.0526 41.7266 13.5121 41.271 14.0789 41.271Z" fill="#192D68"/>
</svg>
