<svg width="100" height="100" viewBox="0 0 100 100" fill="none" xmlns="http://www.w3.org/2000/svg">
<path d="M9 22C9 19.7909 10.7909 18 13 18H87C89.2091 18 91 19.7909 91 22V57.25C91 57.8023 90.5523 58.25 90 58.25C89.4477 58.25 89 57.8023 89 57.25V22C89 20.8954 88.1046 20 87 20H13C11.8954 20 11 20.8954 11 22V31.75C11 32.3023 10.5523 32.75 10 32.75C9.44772 32.75 9 32.3023 9 31.75V22Z" fill="#192D68"/>
<path fill-rule="evenodd" clip-rule="evenodd" d="M10 38.5C10.5523 38.5 11 38.9477 11 39.5V67C11 68.1046 11.8954 69 13 69H87C88.1046 69 89 68.1046 89 67V65C89 64.4477 89.4477 64 90 64C90.5523 64 91 64.4477 91 65V67C91 69.2091 89.2091 71 87 71H56V77H68C69.1046 77 70 77.8954 70 79V81C70 82.1046 69.1046 83 68 83H32C30.8954 83 30 82.1046 30 81V79C30 77.8954 30.8954 77 32 77H43V71H13C10.7909 71 9 69.2091 9 67V39.5C9 38.9477 9.44772 38.5 10 38.5ZM45 71V77H54V71H45Z" fill="#192D68"/>
<path fill-rule="evenodd" clip-rule="evenodd" d="M70.6535 34.226C70.9832 33.9601 71.4462 33.9256 71.8126 34.1397L85.5027 42.1397C85.9846 42.4213 86.1437 43.0347 85.8582 43.5098C85.5726 43.9849 84.9506 44.1418 84.4688 43.8603L71.3889 36.2169L49.628 53.7739C49.324 54.0193 48.9036 54.0693 48.5491 53.9025L26.8395 43.685L15.6795 53.2546C15.2569 53.617 14.6164 53.5729 14.2489 53.1562C13.8814 52.7394 13.9261 52.1078 14.3487 51.7454L26.0106 41.7454C26.3154 41.4841 26.7484 41.426 27.1128 41.5975L48.8418 51.8241L70.6535 34.226Z" fill="#192D68"/>
<path d="M83 36.5C83 42.299 78.299 47 72.5 47C66.701 47 62 42.299 62 36.5C62 30.701 66.701 26 72.5 26C78.299 26 83 30.701 83 36.5Z" fill="#D4EEF8"/>
<path d="M70.0932 30.1674C70.3996 29.9121 70.855 29.9535 71.1104 30.2599C71.3657 30.5663 71.3243 31.0217 71.0179 31.2771L67.3504 34.3333L71.0179 37.3896C71.3243 37.645 71.3657 38.1004 71.1104 38.4068C70.855 38.7132 70.3996 38.7546 70.0932 38.4993L65.7599 34.8882C65.5952 34.7509 65.5 34.5477 65.5 34.3333C65.5 34.119 65.5952 33.9157 65.7599 33.7785L70.0932 30.1674Z" fill="#192D68"/>
<path d="M73.9068 34.5007C73.6004 34.2454 73.145 34.2868 72.8896 34.5932C72.6343 34.8996 72.6757 35.355 72.9821 35.6104L76.6496 38.6667L72.9821 41.7229C72.6757 41.9783 72.6343 42.4337 72.8896 42.7401C73.145 43.0465 73.6004 43.0879 73.9068 42.8326L78.2401 39.2215C78.4048 39.0843 78.5 38.881 78.5 38.6667C78.5 38.4523 78.4048 38.2491 78.2401 38.1118L73.9068 34.5007Z" fill="#192D68"/>
<path d="M36 42C36 46.4183 32.4183 50 28 50C23.5817 50 20 46.4183 20 42C20 37.5817 23.5817 34 28 34C32.4183 34 36 37.5817 36 42Z" fill="#D4EEF8"/>
<path fill-rule="evenodd" clip-rule="evenodd" d="M28.0008 40.3927C27.1573 40.3927 26.4423 41.0692 26.4423 41.9793C26.4423 42.8629 27.1314 43.6072 28.0008 43.6072C28.8722 43.6072 29.556 42.8607 29.556 41.9793C29.556 41.0714 28.8464 40.3927 28.0008 40.3927ZM27.471 41.9793C27.471 41.6888 27.693 41.4549 28.0008 41.4549C28.3064 41.4549 28.5272 41.6867 28.5272 41.9793C28.5272 42.2986 28.2806 42.545 28.0008 42.545C27.7188 42.545 27.471 42.2964 27.471 41.9793Z" fill="#192D68"/>
<path fill-rule="evenodd" clip-rule="evenodd" d="M27.863 37.5556C27.435 37.5556 27.0474 37.8164 26.8746 38.2206C26.6175 38.822 26.014 39.1835 25.3808 39.1154L25.3092 39.1077C24.8758 39.0611 24.4561 39.281 24.2366 39.6697L24.1491 39.8248C23.928 40.2163 23.9547 40.7063 24.2168 41.0697C24.6144 41.621 24.614 42.3865 24.2158 42.9442C23.9568 43.3069 23.9274 43.7982 24.1495 44.1917L24.2364 44.3455C24.4566 44.7355 24.8789 44.9546 25.3134 44.9043L25.3836 44.8962C26.0149 44.823 26.6191 45.1816 26.8756 45.7817C27.0478 46.1845 27.4341 46.4444 27.8606 46.4444H28.1314C28.5579 46.4444 28.9442 46.1845 29.1164 45.7817C29.3729 45.1816 29.9771 44.823 30.6084 44.8962L30.6815 44.9046C31.113 44.9546 31.5328 44.7391 31.7547 44.3537L31.8452 44.1966C32.0718 43.8032 32.0458 43.3091 31.7878 42.9428C31.3944 42.3845 31.394 41.623 31.7868 41.071C32.0479 40.704 32.0711 40.2113 31.8457 39.8199L31.7545 39.6615C31.5333 39.2774 31.1161 39.0611 30.6856 39.1074L30.6112 39.1154C29.978 39.1835 29.3745 38.822 29.1174 38.2206C28.9446 37.8164 28.5569 37.5556 28.129 37.5556H27.863ZM27.8157 38.6496C27.824 38.6302 27.8425 38.6178 27.863 38.6178H28.129C28.1494 38.6178 28.168 38.6302 28.1762 38.6496C28.6136 39.6728 29.6404 40.2878 30.7178 40.1719L30.7922 40.1639C30.8236 40.1605 30.8541 40.1763 30.8702 40.2043L30.9615 40.3628C30.9758 40.3876 30.9743 40.4188 30.9577 40.4421C30.2967 41.3712 30.3022 42.6397 30.9559 43.5677C30.9747 43.5943 30.9749 43.6295 30.961 43.6537L30.8705 43.8109C30.8551 43.8376 30.826 43.8525 30.7962 43.849L30.7231 43.8406C29.645 43.7157 28.6133 44.328 28.1753 45.3527C28.1676 45.3707 28.1504 45.3822 28.1314 45.3822H27.8606C27.8416 45.3822 27.8244 45.3707 27.8167 45.3527C27.3787 44.328 26.347 43.7157 25.2689 43.8406L25.1987 43.8487C25.169 43.8522 25.1402 43.8372 25.1251 43.8105L25.0382 43.6567C25.0252 43.6335 25.0256 43.5999 25.0438 43.5745C25.7076 42.645 25.7132 41.366 25.0419 40.4353C25.026 40.4133 25.0244 40.3835 25.0378 40.3598L25.1254 40.2047C25.1412 40.1767 25.1714 40.1608 25.2026 40.1642L25.2742 40.1719C26.3516 40.2878 27.3783 39.6728 27.8157 38.6496Z" fill="#192D68"/>
<path d="M55 52C55 55.3137 52.3137 58 49 58C45.6863 58 43 55.3137 43 52C43 48.6863 45.6863 46 49 46C52.3137 46 55 48.6863 55 52Z" fill="#D4EEF8"/>
<path fill-rule="evenodd" clip-rule="evenodd" d="M49 49.3C47.5088 49.3 46.3 50.5088 46.3 52C46.3 53.4911 47.5088 54.7 49 54.7C50.4911 54.7 51.7 53.4911 51.7 52C51.7 50.5088 50.4911 49.3 49 49.3ZM48.8117 49.9083C48.8737 49.9028 48.9365 49.9 49 49.9C49.0598 49.9 49.119 49.9025 49.1776 49.9074C49.1805 49.9128 49.1837 49.9181 49.187 49.9234C49.3302 50.1489 49.4448 50.4281 49.5281 50.74H48.4616C48.545 50.4281 48.6596 50.1489 48.8027 49.9234C48.8059 49.9184 48.8088 49.9134 48.8117 49.9083ZM48.3448 51.34H49.645C49.6714 51.5442 49.6862 51.7555 49.6889 51.9694C49.6918 52.203 49.6802 52.4352 49.6547 52.66H48.3351C48.3095 52.4352 48.2979 52.203 48.3009 51.9694C48.3036 51.7555 48.3184 51.5442 48.3448 51.34ZM47.7316 52.66C47.7081 52.4286 47.698 52.1941 47.7009 51.9619C47.7035 51.7545 47.7165 51.5459 47.7404 51.34H47.0058C46.9371 51.5476 46.9 51.7694 46.9 52C46.9 52.2306 46.9371 52.4525 47.0058 52.66H47.7316ZM47.3199 53.26H47.8254C47.8687 53.4616 47.9235 53.6569 47.9901 53.8416C47.7273 53.6973 47.4988 53.4983 47.3199 53.26ZM48.4411 53.26H49.5487C49.4743 53.5622 49.3713 53.837 49.2416 54.0657C49.2375 54.0729 49.2338 54.0801 49.2304 54.0875C49.1547 54.0957 49.0778 54.1 49 54.1C48.9184 54.1 48.838 54.0953 48.7588 54.0863C48.7556 54.0794 48.752 54.0725 48.7482 54.0657C48.6184 53.837 48.5154 53.5622 48.4411 53.26ZM50.1643 53.26C50.1205 53.4642 50.0649 53.6617 49.9972 53.8486C50.2652 53.7037 50.4982 53.5021 50.6801 53.26H50.1643ZM50.9942 52.66C51.0628 52.4525 51.1 52.2306 51.1 52C51.1 51.7694 51.0628 51.5476 50.9942 51.34H50.2494C50.2732 51.5459 50.2862 51.7545 50.2888 51.9619C50.2917 52.1941 50.2817 52.4286 50.2581 52.66H50.9942ZM48.0278 50.1381C47.9533 50.3281 47.8919 50.5304 47.8433 50.74H47.3198C47.5073 50.4904 47.7492 50.2839 48.0278 50.1381ZM50.1464 50.74H50.6802C50.4898 50.4865 50.2434 50.2775 49.9593 50.1314C50.0351 50.3234 50.0973 50.5279 50.1464 50.74Z" fill="#192D68"/>
</svg>
