<svg width="100" height="100" viewBox="0 0 100 100" fill="none" xmlns="http://www.w3.org/2000/svg">
<path fill-rule="evenodd" clip-rule="evenodd" d="M17 12C16.4477 12 16 12.4477 16 13V49.5V58.625C16 59.1773 16.4477 59.625 17 59.625C17.5523 59.625 18 59.1773 18 58.625V49.5V21H70.8597V51.5C70.8597 52.0523 71.3074 52.5 71.8597 52.5C72.412 52.5 72.8597 52.0523 72.8597 51.5V13C72.8597 12.4477 72.412 12 71.8597 12H17ZM18 67.75C18 67.1977 17.5523 66.75 17 66.75C16.4477 66.75 16 67.1977 16 67.75V86C16 86.5523 16.4477 87 17 87H44.4299H49.5C50.0523 87 50.5 86.5523 50.5 86C50.5 85.4477 50.0523 85 49.5 85H44.4299H18V67.75Z" fill="#192D68"/>
<rect x="24" y="27" width="4" height="4" rx="1" fill="#D4EEF8"/>
<rect x="31" y="27" width="34" height="4" rx="1" fill="#D4EEF8"/>
<rect x="24" y="37" width="4" height="4" rx="1" fill="#D4EEF8"/>
<rect x="31" y="37" width="34" height="4" rx="1" fill="#D4EEF8"/>
<rect x="24" y="47" width="4" height="4" rx="1" fill="#D4EEF8"/>
<rect x="31" y="47" width="34" height="4" rx="1" fill="#D4EEF8"/>
<rect x="24" y="57" width="4" height="4" rx="1" fill="#D4EEF8"/>
<path fill-rule="evenodd" clip-rule="evenodd" d="M60.2591 61H64C64.5523 61 65 60.5523 65 60V59.0744C63.2996 59.4585 61.703 60.1167 60.2591 61ZM53.0724 61C54.4392 59.4394 56.0389 58.0879 57.8173 57H32C31.4477 57 31 57.4477 31 58V60C31 60.5523 31.4477 61 32 61H53.0724Z" fill="#D4EEF8"/>
<circle cx="68.5001" cy="74.5" r="10.5" fill="#D4EEF8"/>
<circle cx="68.5" cy="74.5" r="15.5" stroke="#192D68" stroke-width="2"/>
<path d="M59.2717 77.4471C58.8066 75.9908 58.6928 74.4451 58.9396 72.9363C59.1863 71.4276 59.7866 69.9987 60.6915 68.7664C61.5963 67.5341 62.7799 66.5335 64.1455 65.8463C65.5112 65.1591 67.0201 64.8049 68.5488 64.8126C70.0776 64.8203 71.5829 65.1897 72.9415 65.8906C74.3001 66.5915 75.4736 67.6041 76.366 68.8454C77.2583 70.0867 77.8442 71.5216 78.0758 73.0328C78.3073 74.5439 78.1779 76.0884 77.6982 77.54" stroke="#192D68" stroke-width="2" stroke-linecap="round"/>
<path fill-rule="evenodd" clip-rule="evenodd" d="M68.1486 72.5943C67.9696 72.6271 67.7992 72.6845 67.6411 72.7628L68.5 66.75L69.359 72.7628C69.9981 73.0795 70.4375 73.7384 70.4375 74.5C70.4375 75.5701 69.5701 76.4375 68.5 76.4375C67.43 76.4375 66.5625 75.5701 66.5625 74.5C66.5625 73.55 67.2463 72.7596 68.1486 72.5943Z" fill="#192D68"/>
</svg>
