<svg width="100" height="100" viewBox="0 0 100 100" fill="none" xmlns="http://www.w3.org/2000/svg">
<path d="M47.75 62.828C47.75 64.4417 48.7472 65.7501 49.9773 65.7501C51.2073 65.7501 52.2045 64.4417 52.2045 62.828C52.2045 62.828 50.8682 63.4124 49.9773 62.828C49.0864 62.2436 47.75 62.828 47.75 62.828Z" fill="#D4EEF8"/>
<path d="M49.9773 65.7501C51.2073 65.7501 52.2045 64.5748 52.2045 63.1251C52.2045 60.6751 49.9773 58.7501 49.9773 58.7501C49.9773 58.7501 47.75 60.6751 47.75 63.1251C47.75 64.5748 48.7472 65.7501 49.9773 65.7501Z" stroke="#192D68" stroke-linecap="round" stroke-linejoin="round"/>
<path d="M43.375 66.3291C43.375 67.5971 44.1585 68.6251 45.125 68.6251C46.0915 68.6251 46.875 67.5971 46.875 66.3291C46.875 66.3291 45.825 66.7883 45.125 66.3291C44.425 65.87 43.375 66.3291 43.375 66.3291Z" fill="#D4EEF8"/>
<path d="M45.125 68.625C46.0915 68.625 46.875 67.7016 46.875 66.5625C46.875 64.6375 45.125 63.125 45.125 63.125C45.125 63.125 43.375 64.6375 43.375 66.5625C43.375 67.7016 44.1585 68.625 45.125 68.625Z" stroke="#192D68" stroke-linecap="round" stroke-linejoin="round"/>
<path d="M52.125 68.0791C52.125 69.347 52.9085 70.375 53.875 70.375C54.8415 70.375 55.625 69.347 55.625 68.0791C55.625 68.0791 54.575 68.5383 53.875 68.0791C53.175 67.6199 52.125 68.0791 52.125 68.0791Z" fill="#D4EEF8"/>
<path d="M53.875 70.3749C54.8415 70.3749 55.625 69.4515 55.625 68.3124C55.625 66.3874 53.875 64.8749 53.875 64.8749C53.875 64.8749 52.125 66.3874 52.125 68.3124C52.125 69.4515 52.9085 70.3749 53.875 70.3749Z" stroke="#192D68" stroke-linecap="round" stroke-linejoin="round"/>
<path d="M52.02 56L52.02 57L52.02 56ZM82 52.625C82 52.0727 81.5523 51.625 81 51.625C80.4477 51.625 80 52.0727 80 52.625L82 52.625ZM80 47C80 47.5523 80.4477 48 81 48C81.5523 48 82 47.5523 82 47L80 47ZM20 56L20 55L20 56ZM79 56L79 55L79 56ZM19 54L19 45.625L17 45.625L17 54L19 54ZM20 44.625L79 44.625L79 42.625L20 42.625L20 44.625ZM52.02 55L20 55L20 57L52.02 57L52.02 55ZM79 55L52.02 55L52.02 57L79 57L79 55ZM80 52.625L80 54L82 54L82 52.625L80 52.625ZM80 45.625L80 47L82 47L82 45.625L80 45.625ZM19 45.625C19 45.0727 19.4477 44.625 20 44.625L20 42.625C18.3431 42.625 17 43.9681 17 45.625L19 45.625ZM17 54C17 55.6568 18.3431 57 20 57L20 55C19.4477 55 19 54.5523 19 54L17 54ZM79 57C80.6569 57 82 55.6568 82 54L80 54C80 54.5523 79.5523 55 79 55L79 57ZM79 44.625C79.5523 44.625 80 45.0727 80 45.625L82 45.625C82 43.9681 80.6569 42.625 79 42.625L79 44.625Z" fill="#192D68"/>
<path d="M43.875 35.75L43.875 32.375L56.25 32.375L56.25 38L56.25 43.625L43.875 43.625L43.875 40.25" stroke="#192D68" stroke-width="2" stroke-linecap="round"/>
<rect x="25.875" y="59.3751" width="19.125" height="4.5" rx="2" transform="rotate(-90 25.875 59.3751)" fill="#192D68"/>
<rect x="68.625" y="59.3751" width="19.125" height="4.5" rx="2" transform="rotate(-90 68.625 59.3751)" fill="#192D68"/>
<rect x="39.375" y="29" width="21.375" height="4.5" rx="2" fill="#192D68"/>
<path d="M51.75 50.0619L48.9706 48.35L49.9632 50.2331L48.375 52.2875L49.9632 54.6842L48.9706 56.225L50.9559 56.225L51.75 54.6842L50.3603 52.2875L51.75 50.0619Z" fill="#192D68"/>
<path d="M10.1251 46.3585C10.9224 36.3651 15.4898 27.0487 22.9013 20.2979C30.3129 13.5471 40.014 9.86706 50.0383 10.0037C60.0625 10.1403 69.6598 14.0834 76.8846 21.0336C84.1094 27.9839 88.4212 37.4213 88.9459 47.4327" stroke="#192D68" stroke-width="2" stroke-linecap="round"/>
<path d="M88.8863 52.4953C88.126 62.4917 83.5933 71.8249 76.2068 78.6032C68.8204 85.3814 59.133 89.0975 49.1083 88.9981C39.0836 88.8986 29.4718 84.9912 22.2212 78.0678C14.9707 71.1444 10.6239 61.723 10.0621 51.7136" stroke="#192D68" stroke-width="2" stroke-linecap="round"/>
</svg>
