<svg width="100" height="100" viewBox="0 0 100 100" fill="none" xmlns="http://www.w3.org/2000/svg">
<path d="M31.1827 76.3441H76.344V29.8512L62.344 16.129H31.1827V76.3441Z" fill="#D4EEF8"/>
<path d="M31.343 10.7527C30.7955 10.7527 30.3517 11.2032 30.3517 11.759V76.5562C30.3517 77.112 30.7955 77.5625 31.343 77.5625H80.7291C81.2766 77.5625 81.7204 77.112 81.7204 76.5562V43.0777C81.7204 42.5219 81.2766 42.0713 80.7291 42.0713C80.1817 42.0713 79.7379 42.5219 79.7379 43.0777V75.5499H32.3342V12.7654H65.0186L79.7379 27.2113V35.518C79.7379 36.0738 80.1817 36.5243 80.7291 36.5243C81.2766 36.5243 81.7204 36.0738 81.7204 35.518V26.7845C81.7204 26.5117 81.6113 26.2505 81.4181 26.0609L66.1084 11.0355C65.9236 10.8541 65.6765 10.7527 65.4194 10.7527H31.343Z" fill="#192D68"/>
<path d="M19.2708 19.2507C18.7233 19.2507 18.2795 19.7012 18.2795 20.257V44.8889C18.2795 45.4447 18.7233 45.8952 19.2708 45.8952C19.8183 45.8952 20.2621 45.4447 20.2621 44.8889V21.2634H26.599C27.1465 21.2634 27.5903 20.8128 27.5903 20.257C27.5903 19.7012 27.1465 19.2507 26.599 19.2507H19.2708Z" fill="#192D68"/>
<path d="M20.2621 52.2784C20.2621 51.7227 19.8183 51.2721 19.2708 51.2721C18.7233 51.2721 18.2795 51.7227 18.2795 52.2784V88.241C18.2795 88.7968 18.7233 89.2473 19.2708 89.2473H70.8519C71.3994 89.2473 71.8432 88.7968 71.8432 88.241V81.0502C71.8432 80.4944 71.3994 80.0438 70.8519 80.0438C70.3045 80.0438 69.8607 80.4944 69.8607 81.0502V87.2346H20.2621V52.2784Z" fill="#192D68"/>
<path d="M39.7849 27.9081C39.7849 27.3412 40.2319 26.8817 40.7834 26.8817H57.7573C58.3087 26.8817 58.7557 27.3412 58.7557 27.9081C58.7557 28.475 58.3087 28.9345 57.7573 28.9345H40.7834C40.2319 28.9345 39.7849 28.475 39.7849 27.9081Z" fill="#192D68"/>
<path d="M39.7849 38.172C39.7849 37.6052 40.2319 37.1456 40.7834 37.1456H66.7434C67.2949 37.1456 67.7419 37.6052 67.7419 38.172C67.7419 38.7389 67.2949 39.1984 66.7434 39.1984H40.7834C40.2319 39.1984 39.7849 38.7389 39.7849 38.172Z" fill="#192D68"/>
<path d="M40.7834 47.4096C40.2319 47.4096 39.7849 47.8691 39.7849 48.436C39.7849 49.0028 40.2319 49.4624 40.7834 49.4624H53.7634C54.3148 49.4624 54.7619 49.0028 54.7619 48.436C54.7619 47.8691 54.3148 47.4096 53.7634 47.4096H40.7834Z" fill="#192D68"/>
</svg>
