<svg width="100" height="100" viewBox="0 0 100 100" fill="none" xmlns="http://www.w3.org/2000/svg">
<path fill-rule="evenodd" clip-rule="evenodd" d="M17 17.6129C17 16.5083 17.8954 15.6129 19 15.6129H26.9273V19.6129H21V42.757C21 43.8615 20.1046 44.757 19 44.757C17.8954 44.757 17 43.8615 17 42.757V17.6129ZM19 50.7547C20.1046 50.7547 21 51.6502 21 52.7547V85.8966H72.1239V79.2466C72.1239 78.1421 73.0193 77.2466 74.1239 77.2466C75.2284 77.2466 76.1239 78.1421 76.1239 79.2466V87.8966C76.1239 89.0011 75.2284 89.8966 74.1239 89.8966H19C17.8954 89.8966 17 89.0011 17 87.8966V52.7547C17 51.6502 17.8954 50.7547 19 50.7547Z" fill="#192D68"/>
<path d="M63.8966 16.2759H28.6207V77.2069H75.6552V28.4621L63.8966 16.2759Z" fill="#D4EEF8"/>
<path fill-rule="evenodd" clip-rule="evenodd" d="M26.6207 12C26.6207 10.8954 27.5161 10 28.6207 10H67.9052C68.4398 10 68.9522 10.2141 69.328 10.5944L82.4228 23.8496C82.7926 24.2239 83 24.729 83 25.2552V55.3916C83 56.4962 82.1046 57.3916 81 57.3916C79.8954 57.3916 79 56.4962 79 55.3916V26.0765L67.0696 14H30.6207V76.2759H79V65.0207C79 63.9161 79.8954 63.0207 81 63.0207C82.1046 63.0207 83 63.9161 83 65.0207V78.2759C83 79.3804 82.1046 80.2759 81 80.2759H28.6207C27.5161 80.2759 26.6207 79.3804 26.6207 78.2759V12Z" fill="#192D68"/>
<path d="M45.0901 47.3876H62.0999V50.5821H63.7594V45.7281H54.4247V42.4091H52.7652V45.7281H43.4306V50.5821H45.0901V47.3876Z" fill="#192D68"/>
<path d="M49.4462 51.7437H39.0744C38.5242 51.7437 37.9966 51.9623 37.6076 52.3513C37.2185 52.7403 37 53.2679 37 53.8181V60.0412C37 60.5914 37.2185 61.119 37.6076 61.508C37.9966 61.897 38.5242 62.1156 39.0744 62.1156H49.4462C49.9964 62.1156 50.524 61.897 50.913 61.508C51.3021 61.119 51.5206 60.5914 51.5206 60.0412V53.8181C51.5206 53.2679 51.3021 52.7403 50.913 52.3513C50.524 51.9623 49.9964 51.7437 49.4462 51.7437ZM39.0744 60.0412V53.8181H49.4462V60.0412H39.0744Z" fill="#192D68"/>
<path d="M68.1155 51.7437H57.7437C57.1935 51.7437 56.6659 51.9623 56.2769 52.3513C55.8878 52.7403 55.6693 53.2679 55.6693 53.8181V60.0412C55.6693 60.5914 55.8878 61.119 56.2769 61.508C56.6659 61.897 57.1935 62.1156 57.7437 62.1156H68.1155C68.6657 62.1156 69.1933 61.897 69.5823 61.508C69.9714 61.119 70.1899 60.5914 70.1899 60.0412V53.8181C70.1899 53.2679 69.9714 52.7403 69.5823 52.3513C69.1933 51.9623 68.6657 51.7437 68.1155 51.7437ZM57.7437 60.0412V53.8181H68.1155V60.0412H57.7437Z" fill="#192D68"/>
<path d="M48.409 41.3719H58.7809C59.331 41.3719 59.8587 41.1533 60.2477 40.7643C60.6367 40.3753 60.8553 39.8476 60.8553 39.2975V33.0744C60.8553 32.5242 60.6367 31.9966 60.2477 31.6076C59.8587 31.2185 59.331 31 58.7809 31H48.409C47.8589 31 47.3312 31.2185 46.9422 31.6076C46.5532 31.9966 46.3347 32.5242 46.3347 33.0744V39.2975C46.3347 39.8476 46.5532 40.3753 46.9422 40.7643C47.3312 41.1533 47.8589 41.3719 48.409 41.3719ZM48.409 33.0744H58.7809V39.2975H48.409V33.0744Z" fill="#192D68"/>
</svg>
