<svg width="99" height="99" viewBox="0 0 99 99" fill="none" xmlns="http://www.w3.org/2000/svg">
<path d="M59.4 49.5C59.4 46.8744 58.3569 44.3563 56.5003 42.4997C54.6437 40.6431 52.1256 39.6 49.5 39.6C46.8743 39.6 44.3562 40.6431 42.4996 42.4997C40.643 44.3563 39.6 46.8744 39.6 49.5H59.4Z" fill="#D4EEF8"/>
<path d="M49.4307 14.8501C55.5131 14.8379 61.4915 16.427 66.765 19.4576C72.0385 22.4883 76.4214 26.8537 79.4731 32.115C79.7474 32.588 79.5864 33.1938 79.1135 33.4681C78.6405 33.7425 78.0347 33.5814 77.7604 33.1085C74.883 28.1477 70.7506 24.0318 65.7784 21.1744C60.8062 18.3169 55.1695 16.8186 49.4347 16.8301C43.6999 16.8415 38.0692 18.3624 33.1085 21.2397C28.8665 23.7001 25.2423 27.0783 22.4944 31.1145L28.6596 29.4493C29.1875 29.3067 29.731 29.6191 29.8735 30.1469C30.0161 30.6748 29.7038 31.2182 29.1759 31.3608L20.5742 33.6841C20.0463 33.8267 19.5028 33.5143 19.3603 32.9865L17.037 24.3847C16.8944 23.8569 17.2067 23.3134 17.7346 23.1708C18.2624 23.0282 18.8059 23.3406 18.9485 23.8684L20.677 30.2683C23.6125 25.8689 27.5224 22.1908 32.1151 19.5269C37.3764 16.4752 43.3484 14.8622 49.4307 14.8501Z" fill="#192D68"/>
<path fill-rule="evenodd" clip-rule="evenodd" d="M22.0743 43.56V55.44H10.89C10.3432 55.44 9.89998 54.9968 9.89998 54.45V52.0419C9.89998 51.4951 9.45674 51.0519 8.90998 51.0519C8.36322 51.0519 7.91998 51.4951 7.91998 52.0419V54.45C7.91998 56.0903 9.2497 57.42 10.89 57.42H22.0743V59.1726C22.0743 60.6872 23.3022 61.9151 24.8169 61.9151C26.3316 61.9151 27.5594 60.6873 27.5594 59.1726V57.42H34.6463C37.4793 62.7222 43.0684 66.33 49.5 66.33C55.9317 66.33 61.5208 62.7222 64.3538 57.42H71.4405V59.1726C71.4405 60.6872 72.6684 61.9151 74.183 61.9151C75.6977 61.9151 76.9256 60.6873 76.9256 59.1726V57.42H88.11C89.7503 57.42 91.08 56.0903 91.08 54.45V52.0419C91.08 51.4951 90.6368 51.0519 90.09 51.0519C89.5432 51.0519 89.1 51.4951 89.1 52.0419V54.45C89.1 54.9968 88.6568 55.44 88.11 55.44H76.9256V43.56H88.11C88.6568 43.56 89.1 44.0033 89.1 44.55V47.6538C89.1 48.2005 89.5432 48.6438 90.09 48.6438C90.6368 48.6438 91.08 48.2005 91.08 47.6538V44.55C91.08 42.9098 89.7503 41.58 88.11 41.58H76.9256V39.4261C76.9256 37.9114 75.6977 36.6835 74.183 36.6835C72.6684 36.6835 71.4405 37.9114 71.4405 39.4261V41.58H64.3538C61.8483 36.8908 57.1872 33.5269 51.6941 32.8117V34.811C58.8552 35.8715 64.3501 42.044 64.3501 49.5C64.3501 57.7015 57.7015 64.35 49.5 64.35C41.2986 64.35 34.65 57.7015 34.65 49.5C34.65 42.0441 40.1449 35.8715 47.306 34.811V32.8117C41.8128 33.5269 37.1518 36.8908 34.6463 41.58H27.5594V39.4261C27.5594 37.9114 26.3316 36.6835 24.8169 36.6835C23.3022 36.6835 22.0743 37.9114 22.0743 39.4261V41.58H10.89C9.2497 41.58 7.91998 42.9098 7.91998 44.55V47.6538C7.91998 48.2005 8.36322 48.6438 8.90998 48.6438C9.45674 48.6438 9.89998 48.2005 9.89998 47.6538V44.55C9.89998 44.0033 10.3432 43.56 10.89 43.56H22.0743ZM33.7483 43.56C33.0514 45.4071 32.67 47.4091 32.67 49.5C32.67 51.591 33.0514 53.5929 33.7483 55.44H27.5594V43.56H33.7483ZM71.4405 43.56V55.44H65.2518C65.9487 53.5929 66.3301 51.591 66.3301 49.5C66.3301 47.4091 65.9487 45.4071 65.2518 43.56H71.4405Z" fill="#192D68"/>
<path d="M58.6554 43.5926C59.7863 45.319 60.3887 47.3324 60.39 49.39H58.8343C58.8343 47.7408 58.3844 46.1223 57.5321 44.7053L58.6554 43.5926Z" fill="#192D68"/>
<path fill-rule="evenodd" clip-rule="evenodd" d="M57.7344 40.15L58.8343 41.2388L52.1704 47.8346C52.4562 48.3042 52.6086 48.8416 52.6114 49.39C52.6114 49.9991 52.4289 50.5946 52.0871 51.1011C51.7452 51.6076 51.2592 52.0024 50.6907 52.2355C50.1221 52.4686 49.4965 52.5296 48.893 52.4108C48.2894 52.2919 47.735 51.9986 47.2999 51.5678C46.8647 51.1371 46.5684 50.5883 46.4484 49.9908C46.3283 49.3934 46.3899 48.7741 46.6254 48.2113C46.8609 47.6485 47.2597 47.1675 47.7714 46.829C48.283 46.4906 48.8846 46.31 49.5 46.31C50.0537 46.3128 50.5963 46.4637 51.0705 46.7465L57.7344 40.15ZM48.6357 50.6704C48.8915 50.8396 49.1923 50.93 49.5 50.93C49.9125 50.9295 50.3079 50.7672 50.5996 50.4784C50.8913 50.1897 51.0553 49.7983 51.0557 49.39C51.0557 49.0854 50.9645 48.7876 50.7935 48.5344C50.6226 48.2811 50.3796 48.0837 50.0953 47.9672C49.8111 47.8506 49.4983 47.8201 49.1965 47.8795C48.8947 47.939 48.6175 48.0856 48.3999 48.301C48.1824 48.5164 48.0342 48.7908 47.9742 49.0895C47.9141 49.3882 47.945 49.6979 48.0627 49.9793C48.1805 50.2607 48.3798 50.5012 48.6357 50.6704Z" fill="#192D68"/>
<path d="M54.2317 41.439C52.8002 40.596 51.1656 40.1507 49.5 40.15C47.0253 40.1528 44.6527 41.1272 42.9028 42.8595C41.153 44.5917 40.1686 46.9402 40.1657 49.39H38.61C38.6068 47.4556 39.1303 45.5561 40.1255 43.8913C41.1207 42.2266 42.5507 40.8581 44.2652 39.9299C45.9797 39.0017 47.9152 38.5481 49.8681 38.6167C51.821 38.6854 53.7191 39.2738 55.3627 40.3201L54.2317 41.439Z" fill="#192D68"/>
<path d="M44.55 55.44H42.57V58.41H44.55V55.44Z" fill="#192D68"/>
<path d="M45.54 55.44H47.52V58.41H45.54V55.44Z" fill="#192D68"/>
<path d="M50.49 55.44H48.51V58.41H50.49V55.44Z" fill="#192D68"/>
<path d="M51.48 55.44H53.46V58.41H51.48V55.44Z" fill="#192D68"/>
<path d="M56.43 55.44H54.45V58.41H56.43V55.44Z" fill="#192D68"/>
<path d="M32.235 79.5424C37.5085 82.573 43.4869 84.1621 49.5692 84.15C55.6516 84.1378 61.6235 82.5248 66.8849 79.4731C71.4776 76.8093 75.3875 73.1312 78.3229 68.7318L80.0515 75.1316C80.1941 75.6595 80.7375 75.9718 81.2654 75.8292C81.7932 75.6867 82.1056 75.1432 81.963 74.6153L79.6397 66.0136C79.4971 65.4857 78.9537 65.1734 78.4258 65.316L69.824 67.6392C69.2962 67.7818 68.9839 68.3253 69.1264 68.8531C69.269 69.381 69.8125 69.6933 70.3403 69.5508L76.5055 67.8856C73.7577 71.9218 70.1334 75.3 65.8915 77.7604C60.9308 80.6377 55.3 82.1585 49.5653 82.17C43.8305 82.1814 38.1937 80.6832 33.2215 77.8257C28.2494 74.9682 24.1169 70.8523 21.2396 65.8916C20.9653 65.4186 20.3595 65.2576 19.8865 65.5319C19.4136 65.8062 19.2525 66.412 19.5269 66.885C22.5786 72.1464 26.9614 76.5118 32.235 79.5424Z" fill="#192D68"/>
</svg>
