<svg width="100" height="100" viewBox="0 0 100 100" fill="none" xmlns="http://www.w3.org/2000/svg">
<path fill-rule="evenodd" clip-rule="evenodd" d="M39.6786 14C39.6786 12.8954 40.574 12 41.6786 12H57.3214C58.426 12 59.3214 12.8954 59.3214 14V23.1925L62.1408 24.6022L68.9429 17.8001C69.724 17.019 70.9903 17.019 71.7714 17.8001L74.3785 20.4072C75.1595 21.1883 75.1595 22.4546 74.3785 23.2356C73.5974 24.0167 72.3311 24.0167 71.5501 23.2356L70.3571 22.0427L63.9499 28.4499C63.3412 29.0586 62.4113 29.2096 61.6413 28.8246L56.427 26.2174C55.7494 25.8786 55.3214 25.1861 55.3214 24.4286V16H43.6786V24.4286C43.6786 25.1861 43.2506 25.8786 42.573 26.2174L37.3587 28.8246C36.5887 29.2096 35.6588 29.0586 35.0501 28.4499L28.6429 22.0427L21.0427 29.6429L27.4499 36.0501C28.0586 36.6588 28.2096 37.5887 27.8246 38.3587L25.2174 43.573C24.8786 44.2506 24.1861 44.6786 23.4286 44.6786H15V47C15 48.1046 14.1046 49 13 49C11.8954 49 11 48.1046 11 47V42.6786C11 41.574 11.8954 40.6786 13 40.6786H22.1925L23.6022 37.8592L16.8001 31.0571C16.425 30.682 16.2143 30.1733 16.2143 29.6429C16.2143 29.1124 16.425 28.6037 16.8001 28.2286L27.2286 17.8001C27.6037 17.425 28.1124 17.2143 28.6429 17.2143C29.1733 17.2143 29.682 17.425 30.0571 17.8001L36.8592 24.6022L39.6786 23.1925V14ZM76.7644 25.6215C77.5454 24.8405 78.8117 24.8405 79.5928 25.6215L82.1999 28.2286C82.981 29.0097 82.981 30.276 82.1999 31.0571L75.3978 37.8592L76.8075 40.6786H86C87.1046 40.6786 88 41.574 88 42.6786V58.3214C88 59.426 87.1046 60.3214 86 60.3214H76.8075L75.3978 63.1408L82.1999 69.9429C82.981 70.724 82.981 71.9903 82.1999 72.7714L71.7714 83.1999C70.9903 83.981 69.724 83.981 68.9429 83.1999L62.1408 76.3978L59.3214 77.8075V87C59.3214 88.1046 58.426 89 57.3214 89H52C50.8954 89 50 88.1046 50 87C50 85.8954 50.8954 85 52 85H55.3214V76.5714C55.3214 75.8139 55.7494 75.1214 56.427 74.7826L61.6413 72.1754C62.4113 71.7904 63.3412 71.9413 63.9499 72.5501L70.3571 78.9573L77.9573 71.3571L71.5501 64.9499C70.9413 64.3412 70.7904 63.4113 71.1754 62.6413L73.7826 57.427C74.1214 56.7494 74.8139 56.3214 75.5714 56.3214H84V44.6786H75.5714C74.8139 44.6786 74.1214 44.2506 73.7826 43.573L71.1754 38.3587C70.7904 37.5887 70.9413 36.6588 71.5501 36.0501L77.9573 29.6429L76.7644 28.4499C75.9833 27.6689 75.9833 26.4025 76.7644 25.6215ZM13 52.5C14.1046 52.5 15 53.3954 15 54.5V56.3214H23.4286C24.1861 56.3214 24.8786 56.7494 25.2174 57.427L27.8246 62.6413C28.2096 63.4113 28.0586 64.3412 27.4499 64.9499L21.0427 71.3571L28.6429 78.9573L35.0501 72.5501C35.6588 71.9413 36.5887 71.7904 37.3587 72.1754L42.573 74.7826C43.2506 75.1214 43.6786 75.8139 43.6786 76.5714V85H47C48.1046 85 49 85.8954 49 87C49 88.1046 48.1046 89 47 89H41.6786C40.574 89 39.6786 88.1046 39.6786 87V77.8075L36.8592 76.3978L30.0571 83.1999C29.682 83.575 29.1733 83.7857 28.6429 83.7857C28.1124 83.7857 27.6037 83.575 27.2286 83.1999L16.8001 72.7714C16.019 71.9903 16.019 70.724 16.8001 69.9429L23.6022 63.1408L22.1925 60.3214H13C11.8954 60.3214 11 59.426 11 58.3214V54.5C11 53.3954 11.8954 52.5 13 52.5Z" fill="#192D68"/>
<path d="M60.0001 50.5C60.0001 56.299 55.2991 61 49.5001 61C43.7011 61 39.0001 56.299 39.0001 50.5C39.0001 44.701 43.7011 40 49.5001 40C55.2991 40 60.0001 44.701 60.0001 50.5Z" fill="#D4EEF8"/>
<path fill-rule="evenodd" clip-rule="evenodd" d="M49.5 37C42.0442 37 36 43.0442 36 50.5C36 57.9558 42.0442 64 49.5 64C56.9558 64 63 57.9558 63 50.5C63 43.0442 56.9558 37 49.5 37ZM32 50.5C32 40.835 39.835 33 49.5 33C59.165 33 67 40.835 67 50.5C67 60.165 59.165 68 49.5 68C39.835 68 32 60.165 32 50.5Z" fill="#192D68"/>
<path fill-rule="evenodd" clip-rule="evenodd" d="M49.5387 42.8126C48.3256 42.8065 47.1282 43.0876 46.0445 43.6329C44.9608 44.1782 44.0215 44.9723 43.3035 45.9501C42.5855 46.928 42.1091 48.0619 41.9133 49.2592C41.7175 50.4564 41.8078 51.683 42.1769 52.8387C42.5129 53.8909 41.9323 55.0163 40.8801 55.3523C39.8279 55.6884 38.7025 55.1078 38.3665 54.0556C37.8054 52.2986 37.668 50.4338 37.9658 48.6135C38.2635 46.7933 38.9877 45.0694 40.0793 43.5827C41.171 42.096 42.5989 40.8888 44.2465 40.0598C45.8941 39.2307 47.7145 38.8034 49.5589 38.8126C51.4033 38.8219 53.2193 39.2676 54.8584 40.1132C56.4976 40.9588 57.9133 42.1804 58.9899 43.678C60.0665 45.1756 60.7733 46.9067 61.0527 48.7299C61.332 50.553 61.1759 52.4164 60.5971 54.1676C60.2505 55.2164 59.1193 55.7856 58.0705 55.439C57.0218 55.0923 56.4526 53.9612 56.7992 52.9124C57.1799 51.7605 57.2826 50.5349 57.0988 49.3357C56.9151 48.1365 56.4501 46.9979 55.742 46.0128C55.0339 45.0277 54.1027 44.2243 53.0245 43.6681C51.9464 43.1119 50.7519 42.8187 49.5387 42.8126Z" fill="#192D68"/>
<path fill-rule="evenodd" clip-rule="evenodd" d="M49.2809 48.5747C49.0534 48.6003 48.8377 48.6654 48.641 48.7628L49.5 42.75L50.3589 48.7628C50.9981 49.0794 51.4375 49.7384 51.4375 50.5C51.4375 51.5701 50.5701 52.4375 49.5 52.4375C48.4299 52.4375 47.5625 51.5701 47.5625 50.5C47.5625 49.504 48.314 48.6835 49.2809 48.5747Z" fill="#192D68"/>
</svg>
