<svg width="93" height="93" viewBox="0 0 93 93" fill="none" xmlns="http://www.w3.org/2000/svg">
<path d="M53.5761 17.1848L13.1413 17.1848L13.1413 71.5291H41.4456L41.4456 31.337L53.5761 31.337L53.5761 17.1848Z" fill="#D4EEF8"/>
<path d="M8.08698 7.0761C7.52869 7.0761 7.07611 7.52868 7.07611 8.08697V51.0489C7.07611 51.6072 7.52869 52.0598 8.08698 52.0598C8.64527 52.0598 9.09785 51.6072 9.09785 51.0489V13.1413H57.6196V25.7772C57.6196 26.3355 58.0722 26.7881 58.6305 26.7881C59.1887 26.7881 59.6413 26.3355 59.6413 25.7772V8.08697C59.6413 7.52868 59.1887 7.0761 58.6305 7.0761H8.08698Z" fill="#192D68"/>
<path d="M9.09785 59.6413C9.09785 59.083 8.64527 58.6304 8.08698 58.6304C7.52869 58.6304 7.07611 59.083 7.07611 59.6413V76.8261C7.07611 77.3844 7.52869 77.837 8.08698 77.837H35.8859C36.4442 77.837 36.8968 77.3844 36.8968 76.8261C36.8968 76.2678 36.4442 75.8152 35.8859 75.8152H9.09785V59.6413Z" fill="#192D68"/>
<path d="M17.1848 22.2391H41.4457C42.004 22.2391 42.4565 22.6917 42.4565 23.25C42.4565 23.8083 42.004 24.2609 41.4457 24.2609H17.1848C16.6265 24.2609 16.1739 23.8083 16.1739 23.25C16.1739 22.6917 16.6265 22.2391 17.1848 22.2391Z" fill="#192D68"/>
<path d="M17.1848 31.3369H36.3913C36.9496 31.3369 37.4022 31.7895 37.4022 32.3478C37.4022 32.9061 36.9496 33.3587 36.3913 33.3587H17.1848C16.6265 33.3587 16.1739 32.9061 16.1739 32.3478C16.1739 31.7895 16.6265 31.3369 17.1848 31.3369Z" fill="#192D68"/>
<path d="M32.3478 40.4348H17.1848C16.6265 40.4348 16.1739 40.8874 16.1739 41.4456C16.1739 42.0039 16.6265 42.4565 17.1848 42.4565H32.3478C32.9061 42.4565 33.3587 42.0039 33.3587 41.4456C33.3587 40.8874 32.9061 40.4348 32.3478 40.4348Z" fill="#192D68"/>
<path d="M17.1848 49.5326H25.2718C25.83 49.5326 26.2826 49.9852 26.2826 50.5435C26.2826 51.1018 25.83 51.5543 25.2718 51.5543H17.1848C16.6265 51.5543 16.1739 51.1018 16.1739 50.5435C16.1739 49.9852 16.6265 49.5326 17.1848 49.5326Z" fill="#192D68"/>
<path d="M41.4456 30.3261C40.8873 30.3261 40.4348 30.7787 40.4348 31.337L40.4347 84.913C40.4347 85.1811 40.5412 85.4383 40.7308 85.6278C40.9204 85.8174 41.1775 85.9239 41.4456 85.9239H70.7196C71.2779 85.9239 71.7304 85.4713 71.7304 84.913C71.7304 84.3548 71.2779 83.9022 70.7196 83.9022H42.4565L42.4565 32.3478L68.2283 32.3478L83.9021 46.2827L83.9021 83.9022H79.4796C78.9213 83.9022 78.4687 84.3548 78.4687 84.913C78.4687 85.4713 78.9213 85.9239 79.4796 85.9239H84.913C85.1811 85.9239 85.4382 85.8174 85.6278 85.6278C85.8174 85.4383 85.9239 85.1811 85.9239 84.913L85.9239 45.8289C85.9239 45.5401 85.8004 45.2652 85.5847 45.0734L69.2844 30.5815C69.0993 30.417 68.8603 30.3261 68.6127 30.3261L41.4456 30.3261Z" fill="#192D68"/>
</svg>
