<svg width="100" height="100" viewBox="0 0 100 100" fill="none" xmlns="http://www.w3.org/2000/svg">
<path fill-rule="evenodd" clip-rule="evenodd" d="M21 12C20.4477 12 20 12.4477 20 13V50.002V59.2525C20 59.8048 20.4477 60.2525 21 60.2525C21.5523 60.2525 22 59.8048 22 59.2525V50.002V22.3808H77.3271V31.501C77.3271 32.0533 77.7748 32.501 78.3271 32.501C78.8794 32.501 79.3271 32.0533 79.3271 31.501V13C79.3271 12.4477 78.8794 12 78.3271 12H21ZM77.3271 14.0423V14H22V14.0423H77.3271ZM79.3271 40C79.3271 39.4477 78.8794 39 78.3271 39C77.7748 39 77.3271 39.4477 77.3271 40V86.004H54.5H22V68.503C22 67.9507 21.5523 67.503 21 67.503C20.4477 67.503 20 67.9507 20 68.503V87.004C20 87.5563 20.4477 88.004 21 88.004H54.5H78.3271C78.8794 88.004 79.3271 87.5563 79.3271 87.004V40ZM61.6501 17.1269C61.6501 16.5746 62.0978 16.1269 62.6501 16.1269H70.0309C70.5831 16.1269 71.0309 16.5746 71.0309 17.1269V19.2962C71.0309 19.8485 70.5831 20.2962 70.0309 20.2962H62.6501C62.0978 20.2962 61.6501 19.8485 61.6501 19.2962V17.1269ZM51.1847 16.1269C50.6324 16.1269 50.1847 16.5746 50.1847 17.1269V19.2962C50.1847 19.8485 50.6324 20.2962 51.1847 20.2962H58.5655C59.1178 20.2962 59.5655 19.8485 59.5655 19.2962V17.1269C59.5655 16.5746 59.1178 16.1269 58.5655 16.1269H51.1847ZM38.7192 17.1269C38.7192 16.5746 39.1669 16.1269 39.7192 16.1269H47.1C47.6523 16.1269 48.1 16.5746 48.1 17.1269V19.2962C48.1 19.8485 47.6523 20.2962 47.1 20.2962H39.7192C39.1669 20.2962 38.7192 19.8485 38.7192 19.2962V17.1269Z" fill="#192D68"/>
<path d="M70.6321 53.6555L65.9501 50.9523L67.1547 48.866C67.4308 48.3877 68.0424 48.2239 68.5207 48.5L71.4706 50.2031C71.9489 50.4793 72.1128 51.0909 71.8366 51.5692L70.6321 53.6555Z" fill="#192D68"/>
<path fill-rule="evenodd" clip-rule="evenodd" d="M58.1322 75.3059L52.9206 79.8734C52.5614 80.1881 52.0076 79.8684 52.1006 79.4L53.4503 72.6028L53.4503 72.6028L65.382 51.9365L70.0639 54.6396L58.1322 75.3059L58.1322 75.3059Z" fill="#192D68"/>
<rect x="28" y="27" width="37" height="3" rx="1.5" fill="#D4EEF8"/>
<rect x="28" y="36" width="31" height="3" rx="1.5" fill="#D4EEF8"/>
<rect x="28" y="45" width="26" height="3" rx="1.5" fill="#D4EEF8"/>
<rect x="28" y="54" width="21" height="3" rx="1.5" fill="#D4EEF8"/>
</svg>
