<svg width="100" height="100" viewBox="0 0 100 100" fill="none" xmlns="http://www.w3.org/2000/svg">
<path d="M72.9042 55.9315V32.9041M72.9042 23.3562V15C72.9042 12.7909 71.1133 11 68.9042 11H31.9727C29.7635 11 27.9727 12.7909 27.9727 15V48.0685" stroke="#192D68" stroke-width="2" stroke-linecap="round" stroke-linejoin="round"/>
<path d="M33.5891 19.9863C33.5891 18.7455 34.5949 17.7397 35.8356 17.7397H40.3288C41.5695 17.7397 42.5754 18.7455 42.5754 19.9863V24.4794C42.5754 25.7202 41.5695 26.726 40.3288 26.726H35.8356C34.5949 26.726 33.5891 25.7202 33.5891 24.4794V19.9863Z" fill="#192D68"/>
<path d="M58.3015 19.9863C58.3015 18.7455 59.3073 17.7397 60.548 17.7397H65.0412C66.2819 17.7397 67.2878 18.7455 67.2878 19.9863V24.4794C67.2878 25.7202 66.2819 26.726 65.0412 26.726H60.548C59.3073 26.726 58.3015 25.7202 58.3015 24.4794V19.9863Z" fill="#192D68"/>
<path d="M45.9452 19.9863C45.9452 18.7455 46.951 17.7397 48.1918 17.7397H52.6849C53.9257 17.7397 54.9315 18.7455 54.9315 19.9863V24.4794C54.9315 25.7202 53.9257 26.726 52.6849 26.726H48.1918C46.951 26.726 45.9452 25.7202 45.9452 24.4794V19.9863Z" fill="#192D68"/>
<path d="M33.5891 33.4658C33.5891 32.225 34.5949 31.2192 35.8356 31.2192H40.3288C41.5695 31.2192 42.5754 32.225 42.5754 33.4658V37.9589C42.5754 39.1997 41.5695 40.2055 40.3288 40.2055H35.8356C34.5949 40.2055 33.5891 39.1997 33.5891 37.9589V33.4658Z" fill="#192D68"/>
<path d="M58.3015 33.4658C58.3015 32.225 59.3073 31.2192 60.548 31.2192H65.0412C66.2819 31.2192 67.2878 32.225 67.2878 33.4658V37.9589C67.2878 39.1997 66.2819 40.2055 65.0412 40.2055H60.548C59.3073 40.2055 58.3015 39.1997 58.3015 37.9589V33.4658Z" fill="#192D68"/>
<path d="M58.3015 46.9452C58.3015 45.7045 59.3073 44.6987 60.548 44.6987H65.0412C66.2819 44.6987 67.2878 45.7045 67.2878 46.9452V51.4384C67.2878 52.6791 66.2819 53.685 65.0412 53.685H60.548C59.3073 53.685 58.3015 52.6791 58.3015 51.4384V46.9452Z" fill="#192D68"/>
<path d="M45.9452 33.4658C45.9452 32.225 46.951 31.2192 48.1918 31.2192H52.6849C53.9257 31.2192 54.9315 32.225 54.9315 33.4658V37.9589C54.9315 39.1997 53.9257 40.2055 52.6849 40.2055H48.1918C46.951 40.2055 45.9452 39.1997 45.9452 37.9589V33.4658Z" fill="#192D68"/>
<path d="M45.9452 46.9452C45.9452 45.7045 46.951 44.6987 48.1918 44.6987H52.6849C53.9257 44.6987 54.9315 45.7045 54.9315 46.9452V51.4384C54.9315 52.6791 53.9257 53.685 52.6849 53.685H48.1918C46.951 53.685 45.9452 52.6791 45.9452 51.4384V46.9452Z" fill="#192D68"/>
<path d="M55.2521 73.889L54.9422 74.8398C55.1685 74.9135 55.4137 74.9042 55.6337 74.8133L55.2521 73.889ZM37.6409 67.0974C37.1158 66.9263 36.5514 67.2132 36.3803 67.7383C36.2092 68.2634 36.4961 68.8278 37.0212 68.999L37.6409 67.0974ZM54.8125 61.5157L54.5411 62.4781L54.8125 61.5157ZM57.7762 67.5002L56.8461 67.1327L57.7762 67.5002ZM57.2856 86.2289L56.8682 85.3202L57.2856 86.2289ZM54.2065 86.4764L53.9397 87.4401L54.2065 86.4764ZM89.3164 66.3864L90.2094 65.9363L89.3164 66.3864ZM87.1761 72.5012L87.5935 73.4099L87.1761 72.5012ZM88.4574 64.6821L89.3503 64.232L88.4574 64.6821ZM87.5644 65.1322L88.4234 66.8365L90.2094 65.9363L89.3503 64.232L87.5644 65.1322ZM86.7587 71.5925L56.8682 85.3202L57.7029 87.1377L87.5935 73.4099L86.7587 71.5925ZM54.4734 85.5126L21.8599 76.4812L21.3261 78.4087L53.9397 87.4401L54.4734 85.5126ZM19.294 73.1081L19.294 62.6682L17.294 62.6682L17.294 73.1081L19.294 73.1081ZM22.401 59.1903L36.3431 57.6149L36.1185 55.6275L22.1764 57.2029L22.401 59.1903ZM37.6862 57.7242L54.5411 62.4781L55.084 60.5532L38.2291 55.7993L37.6862 57.7242ZM61.8991 72.2266L83.1033 63.4724L82.3401 61.6237L61.1359 70.378L61.8991 72.2266ZM55.6337 74.8133L61.8991 72.2266L61.1359 70.378L54.8705 72.9647L55.6337 74.8133ZM55.562 72.9382L37.6409 67.0974L37.0212 68.999L54.9422 74.8398L55.562 72.9382ZM56.8461 67.1327L54.322 73.5216L56.1821 74.2564L58.7062 67.8676L56.8461 67.1327ZM54.5411 62.4781C56.5362 63.0409 57.6078 65.2047 56.8461 67.1327L58.7062 67.8676C59.9032 64.8379 58.2193 61.4375 55.084 60.5532L54.5411 62.4781ZM36.3431 57.6149C36.7936 57.564 37.2498 57.6011 37.6862 57.7242L38.2291 55.7993C37.5433 55.6058 36.8265 55.5475 36.1185 55.6275L36.3431 57.6149ZM19.294 62.6682C19.294 60.8872 20.6313 59.3903 22.401 59.1903L22.1764 57.2029C19.3955 57.5172 17.294 59.8696 17.294 62.6682L19.294 62.6682ZM21.8599 76.4812C20.3437 76.0613 19.294 74.6814 19.294 73.1081L17.294 73.1081C17.294 75.5804 18.9435 77.7489 21.3261 78.4087L21.8599 76.4812ZM56.8682 85.3202C56.1177 85.6649 55.2694 85.7331 54.4734 85.5126L53.9397 87.4401C55.1905 87.7865 56.5235 87.6793 57.7029 87.1377L56.8682 85.3202ZM88.4234 66.8365C89.3159 68.6072 88.5607 70.7649 86.7587 71.5925L87.5935 73.4099C90.425 72.1095 91.6119 68.7188 90.2094 65.9363L88.4234 66.8365ZM89.3503 64.232C88.0554 61.6629 84.9994 60.5258 82.3401 61.6237L83.1033 63.4724C84.7956 62.7737 86.7403 63.4973 87.5644 65.1322L89.3503 64.232Z" fill="#192D68"/>
<rect x="10" y="56.9673" width="8.16991" height="20.8787" rx="2" fill="#D4EEF8" stroke="#192D68" stroke-width="2"/>
</svg>
