<svg width="68" height="68" viewBox="0 0 68 68" fill="none" xmlns="http://www.w3.org/2000/svg">
<path d="M32.4702 42.723C32.4702 43.8204 33.1483 44.71 33.9847 44.71C34.8212 44.71 35.4993 43.8204 35.4993 42.723C35.4993 42.723 34.5905 43.1204 33.9847 42.723C33.3789 42.3256 32.4702 42.723 32.4702 42.723Z" fill="#D4EEF8"/>
<path d="M33.9847 44.71C34.8212 44.71 35.4993 43.9108 35.4993 42.925C35.4993 41.259 33.9847 39.95 33.9847 39.95C33.9847 39.95 32.4702 41.259 32.4702 42.925C32.4702 43.9108 33.1483 44.71 33.9847 44.71Z" stroke="#192D68" stroke-linecap="round" stroke-linejoin="round"/>
<path d="M29.4952 45.1038C29.4952 45.966 30.028 46.665 30.6852 46.665C31.3424 46.665 31.8752 45.966 31.8752 45.1038C31.8752 45.1038 31.1612 45.416 30.6852 45.1038C30.2092 44.7916 29.4952 45.1038 29.4952 45.1038Z" fill="#D4EEF8"/>
<path d="M30.6852 46.665C31.3424 46.665 31.8752 46.037 31.8752 45.2625C31.8752 43.9535 30.6852 42.925 30.6852 42.925C30.6852 42.925 29.4952 43.9535 29.4952 45.2625C29.4952 46.037 30.028 46.665 30.6852 46.665Z" stroke="#192D68" stroke-linecap="round" stroke-linejoin="round"/>
<path d="M35.4452 46.2937C35.4452 47.156 35.978 47.855 36.6352 47.855C37.2924 47.855 37.8252 47.156 37.8252 46.2937C37.8252 46.2937 37.1112 46.606 36.6352 46.2937C36.1592 45.9815 35.4452 46.2937 35.4452 46.2937Z" fill="#D4EEF8"/>
<path d="M36.6352 47.8549C37.2924 47.8549 37.8252 47.227 37.8252 46.4524C37.8252 45.1434 36.6352 44.1149 36.6352 44.1149C36.6352 44.1149 35.4452 45.1434 35.4452 46.4524C35.4452 47.227 35.978 47.8549 36.6352 47.8549Z" stroke="#192D68" stroke-linecap="round" stroke-linejoin="round"/>
<path d="M35.3738 38.08L35.3738 39.08L35.3738 38.08ZM56.0802 35.785C56.0802 35.2327 55.6325 34.785 55.0802 34.785C54.5279 34.785 54.0802 35.2327 54.0802 35.785L56.0802 35.785ZM54.0802 31.96C54.0802 32.5123 54.5279 32.96 55.0802 32.96C55.6325 32.96 56.0802 32.5123 56.0802 31.96L54.0802 31.96ZM55.0802 31.665L54.0802 31.665L55.0802 31.665ZM13.2402 36.08L13.2402 31.665L11.2402 31.665L11.2402 36.08L13.2402 36.08ZM14.2402 30.665L53.0802 30.665L53.0802 28.665L14.2402 28.665L14.2402 30.665ZM35.3738 37.08L14.2402 37.08L14.2402 39.08L35.3738 39.08L35.3738 37.08ZM53.0802 37.08L35.3738 37.08L35.3738 39.08L53.0802 39.08L53.0802 37.08ZM54.0802 35.785L54.0802 36.08L56.0802 36.08L56.0802 35.785L54.0802 35.785ZM54.0802 31.665L54.0802 31.96L56.0802 31.96L56.0802 31.665L54.0802 31.665ZM13.2402 31.665C13.2402 31.1127 13.6879 30.665 14.2402 30.665L14.2402 28.665C12.5833 28.665 11.2402 30.0081 11.2402 31.665L13.2402 31.665ZM11.2402 36.08C11.2402 37.7368 12.5833 39.08 14.2402 39.08L14.2402 37.08C13.6879 37.08 13.2402 36.6323 13.2402 36.08L11.2402 36.08ZM53.0802 39.08C54.737 39.08 56.0802 37.7368 56.0802 36.08L54.0802 36.08C54.0802 36.6323 53.6325 37.08 53.0802 37.08L53.0802 39.08ZM53.0802 30.665C53.6325 30.665 54.0802 31.1127 54.0802 31.665L56.0802 31.665C56.0802 30.0081 54.737 28.665 53.0802 28.665L53.0802 30.665Z" fill="#192D68"/>
<path d="M29.8352 24.31L29.8352 22.015L38.2502 22.015L38.2502 25.84L38.2502 29.665L29.8352 29.665L29.8352 27.37" stroke="#192D68" stroke-width="2" stroke-linecap="round"/>
<rect x="17.5952" y="40.375" width="13.005" height="3.06" rx="1.53" transform="rotate(-90 17.5952 40.375)" fill="#192D68"/>
<rect x="46.6652" y="40.375" width="13.005" height="3.06" rx="1.53" transform="rotate(-90 46.6652 40.375)" fill="#192D68"/>
<rect x="26.7751" y="19.72" width="14.535" height="3.06" rx="1.53" fill="#192D68"/>
<path d="M35.1902 34.0421L33.3002 32.8779L33.9752 34.1585L32.8952 35.5554L33.9752 37.1852L33.3002 38.2329L34.6502 38.2329L35.1902 37.1852L34.2452 35.5554L35.1902 34.0421Z" fill="#192D68"/>
<path d="M6.88525 31.5238C7.42743 24.7283 10.5332 18.3931 15.5731 13.8026C20.6129 9.21205 27.2097 6.70959 34.0262 6.80248C40.8427 6.89538 47.3688 9.57669 52.2817 14.3029C57.1946 19.029 60.1266 25.4465 60.4834 32.2542" stroke="#192D68" stroke-width="2" stroke-linecap="round"/>
<path d="M60.4429 35.6969C59.9259 42.4943 56.8436 48.841 51.8209 53.4502C46.7981 58.0594 40.2106 60.5863 33.3938 60.5187C26.577 60.4511 20.041 57.794 15.1106 53.0861C10.1802 48.3782 7.22445 41.9717 6.84241 35.1653" stroke="#192D68" stroke-width="2" stroke-linecap="round"/>
</svg>
