<svg width="100" height="100" viewBox="0 0 100 100" fill="none" xmlns="http://www.w3.org/2000/svg">
<path d="M21.6825 59.2418C21.6825 72.6813 32.933 83.5769 46.8102 83.5769C60.6873 83.5769 71.9378 72.6813 71.9378 59.2418C71.9378 59.2418 56.8612 64.1088 46.8102 59.2418C36.7591 54.3748 21.6825 59.2418 21.6825 59.2418Z" fill="#D4EEF8"/>
<path d="M68.9932 31.6844C69.9639 33.3657 69.4214 35.5328 67.7568 36.4938C66.0923 37.4549 63.9348 36.8466 62.9641 35.1653C61.9934 33.4841 62.6121 31.4269 64.2766 30.4659C65.9412 29.5049 68.0225 30.0031 68.9932 31.6844Z" fill="#D4EEF8"/>
<path fill-rule="evenodd" clip-rule="evenodd" d="M48.8678 12.2294L48.8749 12.2348L48.8919 12.2475L48.9544 12.295C49.0086 12.3363 49.0876 12.3971 49.1898 12.4767C49.3941 12.6359 49.6911 12.8709 50.0675 13.1779C50.8202 13.7919 51.8911 14.6947 53.1743 15.8576C54.1699 16.76 55.2946 17.8201 56.4983 19.0245L54.5845 20.1511L54.5735 20.1577C54.5189 20.1906 54.4677 20.2277 54.42 20.2683C53.4164 19.2779 52.4757 18.395 51.6302 17.6287C50.3803 16.496 49.3404 15.6196 48.6156 15.0284C48.4546 14.8971 48.3092 14.7799 48.1806 14.6771C48.0519 14.7799 47.9065 14.8971 47.7456 15.0284C47.0207 15.6196 45.9808 16.496 44.731 17.6287C42.2298 19.8956 38.8956 23.1821 35.5641 27.2583C29.1862 35.0618 22.933 45.6185 22.3659 57.3727C22.6392 57.2995 22.9384 57.2217 23.2612 57.141C25.0041 56.7053 27.4441 56.1823 30.2357 55.8334C35.7789 55.1405 42.8809 55.1106 48.6389 57.9896C53.8458 60.593 60.4497 60.6229 65.8713 59.9452C68.5622 59.6088 70.9192 59.1039 72.6028 58.6829C73.1552 58.5449 73.6343 58.416 74.0281 58.3054C73.9634 55.4008 73.5463 52.566 72.8593 49.8242L74.3813 48.9283C74.6109 48.7931 74.7829 48.5858 74.8781 48.3451C75.8147 51.7825 76.3611 55.3807 76.3611 59.0984C76.3611 74.9667 63.7438 87.8314 48.1806 87.8314C32.6174 87.8314 20 74.9667 20 59.0984C20 45.832 26.9578 34.0866 33.7786 25.7413C37.2017 21.553 40.6221 18.1821 43.1869 15.8576C44.47 14.6947 45.541 13.7919 46.2937 13.1779C46.6701 12.8709 46.9671 12.6359 47.1714 12.4767C47.2735 12.3971 47.3526 12.3363 47.4068 12.295L47.4693 12.2475L47.4862 12.2348L47.491 12.2311L47.4934 12.2294C47.9024 11.9235 48.4587 11.9235 48.8678 12.2294ZM74.0042 60.4371C73.7285 60.5111 73.4263 60.5897 73.0999 60.6712C71.3571 61.107 68.917 61.6299 66.1255 61.9789C60.5822 62.6718 53.4802 62.7016 47.7223 59.8227C42.5154 57.2192 35.9114 57.1894 30.4899 57.8671C27.799 58.2034 25.442 58.7084 23.7583 59.1293C23.2032 59.2681 22.7221 59.3975 22.3272 59.5085C22.5422 73.8789 34.0353 85.4616 48.1806 85.4616C62.0198 85.4616 73.3204 74.3746 74.0042 60.4371Z" fill="#192D68"/>
<path d="M71.2766 22.8257C71.2234 22.7931 71.1558 22.7957 71.1053 22.8323L69.0441 24.327C67.2339 25.6396 64.7836 25.6346 62.9788 24.3144L61.142 22.9709C61.0926 22.9348 61.0267 22.9312 60.9738 22.9618L59.4021 23.8692C59.3492 23.8997 59.3193 23.9587 59.3258 24.0194L59.571 26.282C59.8119 28.505 58.5911 30.6295 56.5492 31.5409L54.2 32.5894C54.1447 32.6141 54.1089 32.669 54.1087 32.7296L54.1019 34.3326C54.1016 34.3944 54.1383 34.4504 54.1951 34.4749L56.4675 35.4547C58.5497 36.3525 59.7999 38.5062 59.5471 40.7595L59.2661 43.2631C59.2593 43.3243 59.2894 43.3837 59.3429 43.4142L60.7322 44.2085C60.7852 44.2389 60.8511 44.235 60.9003 44.1988L62.9497 42.6877C64.7616 41.3519 67.231 41.3472 69.0479 42.6762L70.8645 44.005C70.9138 44.041 70.9798 44.0446 71.0327 44.014L72.6044 43.1066C72.6573 43.0761 72.6872 43.0172 72.6806 42.9564L72.4382 40.7188C72.1957 38.4808 73.4344 36.3446 75.4973 35.4434L77.8372 34.4212C77.8927 34.3969 77.9289 34.3424 77.9297 34.2818L77.9505 32.6602C77.9513 32.5986 77.9153 32.5424 77.8589 32.5173L74.9023 31.2028C74.2067 30.8936 73.5237 30.4836 73.041 29.8638C72.53 29.2077 72.3166 28.4122 72.4019 27.4966C72.4544 26.9331 72.9537 26.5188 73.5172 26.5712C74.0808 26.6237 74.495 27.1231 74.4426 27.6866C74.3999 28.1453 74.5041 28.4069 74.6579 28.6045C74.8401 28.8384 75.1692 29.0786 75.7349 29.3301L78.6915 30.6445C79.4966 31.0025 80.0111 31.8055 79.9998 32.6865L79.979 34.3081C79.9679 35.1737 79.451 35.9527 78.6577 36.2993L76.3177 37.3215C75.0756 37.8641 74.3297 39.1504 74.4757 40.498L74.7182 42.7356C74.8122 43.6035 74.3851 44.4451 73.6291 44.8815L72.0575 45.789C71.3015 46.2254 70.3591 46.1745 69.6545 45.6591L67.8379 44.3304C66.7439 43.5301 65.2569 43.5329 64.166 44.3373L62.1165 45.8484C61.4142 46.3662 60.4725 46.4209 59.7149 45.9878L58.3256 45.1935C57.5622 44.757 57.1314 43.9085 57.2294 43.0346L57.5104 40.5309C57.6626 39.1741 56.9098 37.8773 55.656 37.3367L53.3836 36.3569C52.5726 36.0072 52.0487 35.2071 52.0524 34.324L52.0592 32.721C52.0628 31.8547 52.5737 31.0709 53.3647 30.7178L55.7139 29.6693C56.9434 29.1206 57.6785 27.8413 57.5334 26.5027L57.2883 24.2402C57.1942 23.3723 57.6213 22.5307 58.3773 22.0943L59.949 21.1869C60.705 20.7504 61.6474 20.8013 62.3519 21.3167L64.1888 22.6603C65.2755 23.4551 66.7509 23.4582 67.8409 22.6678L69.9021 21.1731C70.6237 20.6499 71.5895 20.6128 72.349 21.0792L73.889 22.0249C74.3713 22.3211 74.5222 22.9521 74.226 23.4344C73.9298 23.9167 73.2988 24.0675 72.8165 23.7714L71.2766 22.8257Z" fill="#192D68"/>
<path fill-rule="evenodd" clip-rule="evenodd" d="M69.8807 31.172C68.6132 28.9767 65.8946 28.3485 63.7643 29.5784C61.6376 30.8063 60.8071 33.4788 62.0767 35.6777C63.3206 37.8324 66.098 38.6349 68.2693 37.3813C70.4441 36.1256 71.1226 33.323 69.8807 31.172ZM64.789 31.3534C65.9878 30.6613 67.4319 31.0296 68.1058 32.1968C68.8053 33.4084 68.3987 34.94 67.2445 35.6064C66.0867 36.2748 64.5489 35.8609 63.8516 34.653C63.1798 33.4894 63.5866 32.0476 64.789 31.3534Z" fill="#192D68"/>
</svg>
