<svg width="100" height="100" viewBox="0 0 100 100" fill="none" xmlns="http://www.w3.org/2000/svg">
<path fill-rule="evenodd" clip-rule="evenodd" d="M9 22C9 19.7909 10.7909 18 13 18H30H50H87C89.2091 18 91 19.7909 91 22V44.5V57.25C91 57.8023 90.5523 58.25 90 58.25C89.4477 58.25 89 57.8023 89 57.25V44.5V22C89 20.8954 88.1046 20 87 20H50H30H13C11.8954 20 11 20.8954 11 22V31.75C11 32.3023 10.5523 32.75 10 32.75C9.44772 32.75 9 32.3023 9 31.75V22ZM10 38.5C10.5523 38.5 11 38.9477 11 39.5V44.5V67C11 68.1046 11.8954 69 13 69H44H55H87C88.1046 69 89 68.1046 89 67V65C89 64.4477 89.4477 64 90 64C90.5523 64 91 64.4477 91 65V67C91 69.2091 89.2091 71 87 71H56V77H68C69.1046 77 70 77.8954 70 79V81C70 82.1046 69.1046 83 68 83H32C30.8954 83 30 82.1046 30 81V79C30 77.8954 30.8954 77 32 77H43V71H13C10.7909 71 9 69.2091 9 67V44.5V39.5C9 38.9477 9.44772 38.5 10 38.5ZM45 71V77H54V71H45Z" fill="#192D68"/>
<circle cx="51.6602" cy="43" r="14" fill="#D4EEF8"/>
<path d="M49.8119 55.3681L42.8047 51.3213L43.4989 50.12L50.5047 54.1669L49.8119 55.3681Z" fill="#192D68"/>
<path d="M56.9617 57.6722C58.9854 55.761 60.2677 53.0757 60.2677 50.0788C60.2677 46.3863 58.3283 43.0558 55.3128 41.1853L58.6913 35.3373L58.1607 35.0314L58.994 33.5823L56.8095 32.3213L55.9743 33.7681L55.4156 33.4455L47.1099 47.8331L47.8353 48.2518L46.8054 50.0335L48.6305 51.0874L49.661 49.3048L50.3855 49.7235L53.8782 43.6748C54.955 44.3611 55.8415 45.3076 56.456 46.4269C57.0705 47.5462 57.3931 48.8023 57.394 50.0792C57.394 54.2661 53.9856 57.6727 49.7983 57.6727H43.6783V60.5478H60.9053V57.6727H56.9626L56.9617 57.6722ZM41.6696 35.5638V33.2814H41.9506L41.9465 32.7341H39.3868L39.3909 33.2814H39.6927V35.5638H37.7827V33.2814H38.0628L38.0596 32.7341H35.4976L35.5026 33.2814H35.8044V35.5638H33V46.9966H44.45V35.5638H41.6705H41.6696ZM43.4803 46.0287H33.9683V36.5317H35.8039V43.8361C35.8039 44.3889 36.2557 44.8379 36.8008 44.8379C37.3468 44.8357 37.7823 44.388 37.7823 43.8361V36.5317H39.6922V43.8361C39.6922 44.3889 40.1444 44.8379 40.6895 44.8379C41.2355 44.8357 41.671 44.388 41.6701 43.8361V36.5317H43.4803V46.0287Z" fill="#192D68"/>
</svg>
