<svg width="100" height="100" viewBox="0 0 100 100" fill="none" xmlns="http://www.w3.org/2000/svg">
<path fill-rule="evenodd" clip-rule="evenodd" d="M20 26.5C20 25.3954 20.8954 24.5 22 24.5H43C44.1046 24.5 45 25.3954 45 26.5C45 27.6046 44.1046 28.5 43 28.5H22C20.8954 28.5 20 27.6046 20 26.5Z" fill="#192D68"/>
<path fill-rule="evenodd" clip-rule="evenodd" d="M20 38.5C20 37.3954 20.8954 36.5 22 36.5H59.5C60.6046 36.5 61.5 37.3954 61.5 38.5C61.5 39.6046 60.6046 40.5 59.5 40.5H22C20.8954 40.5 20 39.6046 20 38.5Z" fill="#192D68"/>
<path fill-rule="evenodd" clip-rule="evenodd" d="M20 51C20 49.8954 20.8954 49 22 49H49C50.1046 49 51 49.8954 51 51C51 52.1046 50.1046 53 49 53H22C20.8954 53 20 52.1046 20 51Z" fill="#192D68"/>
<path fill-rule="evenodd" clip-rule="evenodd" d="M10 21C10 17.6863 12.6863 15 16 15H84C87.3137 15 90 17.6863 90 21V56C90 57.1046 89.1046 58 88 58C86.8954 58 86 57.1046 86 56V21C86 19.8954 85.1046 19 84 19H16C14.8954 19 14 19.8954 14 21V65C14 66.1046 14.8954 67 16 67H53C54.1046 67 55 67.8954 55 69C55 70.1046 54.1046 71 53 71H16C12.6863 71 10 68.3137 10 65V21Z" fill="#192D68"/>
<path fill-rule="evenodd" clip-rule="evenodd" d="M51.4905 67.6664C52.227 68.4896 52.1568 69.7539 51.3336 70.4905L32.3336 87.4905C31.5104 88.227 30.246 88.1567 29.5095 87.3336C28.773 86.5104 28.8432 85.246 29.6664 84.5095L48.6664 67.5095C49.4896 66.773 50.754 66.8432 51.4905 67.6664Z" fill="#192D68"/>
<path d="M48 15C48 13.8954 48.8954 13 50 13C51.1046 13 52 13.8954 52 15V17H48V15Z" fill="#192D68"/>
<path d="M53 84.1111C53 78.5269 57.2077 74 62.3981 74H71.2179C77.1727 74 82 79.1935 82 85.6C82 86.3732 81.4174 87 80.6987 87H55.6852C54.2022 87 53 85.7066 53 84.1111Z" fill="#D4EEF8"/>
<path d="M71.5 68.5C74.0859 68.5 76.5658 67.4728 78.3943 65.6443C80.2228 63.8158 81.25 61.3359 81.25 58.75C81.25 56.1641 80.2228 53.6842 78.3943 51.8557C76.5658 50.0272 74.0859 49 71.5 49C68.9141 49 66.4342 50.0272 64.6057 51.8557C62.7772 53.6842 61.75 56.1641 61.75 58.75C61.75 61.3359 62.7772 63.8158 64.6057 65.6443C66.4342 67.4728 68.9141 68.5 71.5 68.5ZM78 58.75C78 60.4739 77.3152 62.1272 76.0962 63.3462C74.8772 64.5652 73.2239 65.25 71.5 65.25C69.7761 65.25 68.1228 64.5652 66.9038 63.3462C65.6848 62.1272 65 60.4739 65 58.75C65 57.0261 65.6848 55.3728 66.9038 54.1538C68.1228 52.9348 69.7761 52.25 71.5 52.25C73.2239 52.25 74.8772 52.9348 76.0962 54.1538C77.3152 55.3728 78 57.0261 78 58.75ZM91 84.75C91 88 87.75 88 87.75 88H55.25C55.25 88 52 88 52 84.75C52 81.5 55.25 71.75 71.5 71.75C87.75 71.75 91 81.5 91 84.75ZM87.75 84.737C87.7467 83.9375 87.2495 81.5325 85.046 79.329C82.927 77.21 78.9393 75 71.5 75C64.0575 75 60.073 77.21 57.954 79.329C55.7505 81.5325 55.2565 83.9375 55.25 84.737H87.75Z" fill="#192D68"/>
</svg>
