<svg width="100" height="100" viewBox="0 0 100 100" fill="none" xmlns="http://www.w3.org/2000/svg">
<path fill-rule="evenodd" clip-rule="evenodd" d="M82.75 50.9286V58L56.75 58V49H42.75V58L16.75 58V50.9286L26.1786 50.9286L28.5357 46.2143L21.4643 39.1429L30.8929 29.7143L37.9643 36.7857L42.6786 34.4286L42.6786 25H56.8214V34.4286L61.5357 36.7857L68.6071 29.7143L78.0357 39.1429L70.9643 46.2143L73.3214 50.9286H82.75ZM59.7345 46C59.7345 44.8954 58.8391 44 57.7345 44H41.75C40.6454 44 39.75 44.8954 39.75 46V46.9961C39.75 48.1007 40.6454 48.9961 41.75 48.9961L57.7345 48.9961C58.8391 48.9961 59.7345 48.1007 59.7345 46.9961V46Z" fill="#D4EEF8"/>
<path d="M42.6786 24.25C42.2644 24.25 41.9286 24.5858 41.9286 25L41.9286 33.965L38.1124 35.8731L31.4232 29.184C31.1303 28.8911 30.6554 28.8911 30.3625 29.184L20.934 38.6125C20.6411 38.9054 20.6411 39.3803 20.934 39.6732L27.6231 46.3624L25.715 50.1786H23.75C23.3358 50.1786 23 50.5144 23 50.9286C23 51.3428 23.3358 51.6786 23.75 51.6786H26.1786C26.4627 51.6786 26.7224 51.5181 26.8494 51.264L29.2065 46.5497C29.3509 46.261 29.2943 45.9122 29.066 45.684L22.5249 39.1429L30.8929 30.7749L37.434 37.316C37.6622 37.5443 38.011 37.6009 38.2997 37.4565L43.014 35.0994C43.2681 34.9723 43.4286 34.7127 43.4286 34.4286L43.4286 25.75L56.0714 25.75V34.4286C56.0714 34.7127 56.2319 34.9723 56.486 35.0994L61.2003 37.4565C61.489 37.6009 61.8378 37.5443 62.066 37.316L68.6071 30.7749L70.8625 33.0303C71.1554 33.3232 71.6303 33.3232 71.9232 33.0303C72.2161 32.7374 72.2161 32.2626 71.9232 31.9697L69.1375 29.184C68.8446 28.8911 68.3697 28.8911 68.0768 29.184L61.3876 35.8731L57.5714 33.965V25C57.5714 24.5858 57.2356 24.25 56.8214 24.25L42.6786 24.25Z" fill="#192D68"/>
<path fill-rule="evenodd" clip-rule="evenodd" d="M75.7803 35.8268C75.4874 35.5339 75.0126 35.5339 74.7197 35.8268C74.4268 36.1197 74.4268 36.5946 74.7197 36.8875L76.9751 39.1429L70.434 45.684C70.2057 45.9122 70.1491 46.261 70.2935 46.5497L72.6506 51.264C72.7776 51.5181 73.0374 51.6786 73.3214 51.6786H82V57.2392H72.7005L72.7002 55.9922C72.7002 54.8876 71.8048 53.9922 70.7002 53.9922H69.7041C68.5995 53.9922 67.7041 54.8876 67.7041 55.9922V57.2392H57.4628V49.7461H57.7105C59.2292 49.7461 60.4605 48.5149 60.4605 46.9961V46C60.4605 44.4812 59.2292 43.25 57.7105 43.25H41.7259C40.2072 43.25 38.9759 44.4812 38.9759 46V46.9961C38.9759 48.5149 40.2072 49.7461 41.7259 49.7461H41.9736V57.2392H31.7322V55.9922C31.7322 54.8876 30.8368 53.9922 29.7322 53.9922H28.7361C27.6315 53.9922 26.7361 54.8876 26.7361 55.9922V57.2392H17.5L17.5 51.6786H18.75C19.1642 51.6786 19.5 51.3428 19.5 50.9286C19.5 50.5144 19.1642 50.1786 18.75 50.1786H16.75C16.3358 50.1786 16 50.5144 16 50.9286L16 57.2392H12.75C10.1266 57.2392 8 59.3658 8 61.9892V62.5C8 62.9142 8.33579 63.25 8.75 63.25C9.16421 63.25 9.5 62.9142 9.5 62.5V61.9892C9.5 60.1943 10.9551 58.7392 12.75 58.7392H16.6223C16.6638 58.7463 16.7065 58.75 16.75 58.75H26.7361V71.2283H12.75C10.9551 71.2283 9.5 69.7733 9.5 67.9783V67C9.5 66.5858 9.16421 66.25 8.75 66.25C8.33579 66.25 8 66.5858 8 67V67.9783C8 70.6017 10.1266 72.7283 12.75 72.7283H26.7361L26.7361 73.9752C26.7361 75.0798 27.6315 75.9752 28.7361 75.9752H29.7322C30.8368 75.9752 31.7322 75.0798 31.7322 73.9752V72.7283H67.7041V73.9752C67.7041 75.0798 68.5995 75.9752 69.7041 75.9752H70.7002C71.8048 75.9752 72.7002 75.0798 72.7002 73.9752V72.7283H86.6865C89.3099 72.7283 91.4365 70.6017 91.4365 67.9783V67C91.4365 66.5858 91.1007 66.25 90.6865 66.25C90.2723 66.25 89.9365 66.5858 89.9365 67V67.9783C89.9365 69.7733 88.4814 71.2283 86.6865 71.2283H72.7005L72.7002 58.75H82.75C82.7928 58.75 82.8353 58.7463 82.877 58.7392H86.6865C88.4814 58.7392 89.9365 60.1943 89.9365 61.9892V62.4946C89.9365 62.9088 90.2723 63.2446 90.6865 63.2446C91.1007 63.2446 91.4365 62.9088 91.4365 62.4946V61.9892C91.4365 59.3658 89.3099 57.2392 86.6865 57.2392H83.5V50.9286C83.5 50.5144 83.1642 50.1786 82.75 50.1786H73.785L71.8769 46.3624L78.566 39.6732C78.7067 39.5325 78.7857 39.3418 78.7857 39.1429C78.7857 38.9439 78.7067 38.7532 78.566 38.6125L75.7803 35.8268ZM31.7322 58.75H67.7041V71.2283H31.7322V58.75ZM58.9605 46C58.9605 45.3096 58.4008 44.75 57.7105 44.75H41.7259C41.0356 44.75 40.4759 45.3096 40.4759 46V46.9961C40.4759 47.6865 41.0356 48.2461 41.7259 48.2461L57.7105 48.2461C58.4008 48.2461 58.9605 47.6865 58.9605 46.9961V46ZM55.9628 57.2392V49.7462H43.4736V57.2392H55.9628Z" fill="#192D68"/>
</svg>
