<svg width="99" height="100" viewBox="0 0 99 100" fill="none" xmlns="http://www.w3.org/2000/svg">
<path d="M8.90997 22C8.90997 19.7909 10.6829 18 12.87 18H86.13C88.317 18 90.09 19.7909 90.09 22V57.25C90.09 57.8023 89.6467 58.25 89.1 58.25C88.5532 58.25 88.11 57.8023 88.11 57.25V22C88.11 20.8954 87.2235 20 86.13 20H12.87C11.7764 20 10.89 20.8954 10.89 22V31.75C10.89 32.3023 10.4467 32.75 9.89997 32.75C9.35321 32.75 8.90997 32.3023 8.90997 31.75V22Z" fill="#192D68"/>
<path fill-rule="evenodd" clip-rule="evenodd" d="M9.89997 38.5C10.4467 38.5 10.89 38.9477 10.89 39.5V67C10.89 68.1046 11.7765 69 12.87 69H86.13C87.2235 69 88.11 68.1046 88.11 67V65C88.11 64.4477 88.5532 64 89.1 64C89.6467 64 90.09 64.4477 90.09 65V67C90.09 69.2091 88.317 71 86.13 71H55.44V77H67.32C68.4135 77 69.3 77.8954 69.3 79V81C69.3 82.1046 68.4135 83 67.32 83H31.68C30.5865 83 29.7 82.1046 29.7 81V79C29.7 77.8954 30.5865 77 31.68 77H42.57V71H12.87C10.6829 71 8.90997 69.2091 8.90997 67V39.5C8.90997 38.9477 9.35321 38.5 9.89997 38.5ZM44.55 71V77H53.46V71H44.55Z" fill="#192D68"/>
<path d="M65.0035 43C65.0035 50.732 58.7982 57 51.1435 57C43.4889 57 37.2835 50.732 37.2835 43C37.2835 35.268 43.4889 29 51.1435 29C58.7982 29 65.0035 35.268 65.0035 43Z" fill="#D4EEF8"/>
<path d="M59.665 50.0788C59.665 53.0757 58.3955 55.761 56.3921 57.6722L56.393 57.6727H60.2962V60.5478H43.2415V57.6727H49.3002C53.4457 57.6727 56.82 54.2661 56.82 50.0792C56.8191 48.8023 56.4997 47.5462 55.8914 46.4269C55.2831 45.3076 54.4054 44.3611 53.3394 43.6748L49.8816 49.7235L49.1643 49.3048L48.1442 51.0874L46.3373 50.0335L47.3569 48.2518L46.6387 47.8331L54.8615 33.4455L55.4146 33.7681L56.2413 32.3213L58.404 33.5823L57.579 35.0314L58.1043 35.3373L54.7596 41.1853C57.745 43.0558 59.665 46.3863 59.665 50.0788Z" fill="#192D68"/>
<path fill-rule="evenodd" clip-rule="evenodd" d="M41.2529 33.2814V35.5638H44.0055V46.9966H32.67V35.5638H35.4463V33.2814H35.1476L35.1426 32.7341H37.679L37.6821 33.2814H37.4049V35.5638H39.2957V33.2814H38.9969L38.9929 32.7341H41.527L41.531 33.2814H41.2529ZM33.6286 46.0287H43.0455V36.5317H41.2534V43.8361C41.2543 44.388 40.8232 44.8357 40.2826 44.8379C39.7429 44.8379 39.2953 44.3889 39.2953 43.8361V36.5317H37.4044V43.8361C37.4044 44.388 36.9733 44.8357 36.4328 44.8379C35.8931 44.8379 35.4459 44.3889 35.4459 43.8361V36.5317H33.6286V46.0287Z" fill="#192D68"/>
<path d="M42.3767 51.3213L49.3137 55.3681L49.9996 54.1669L43.0639 50.12L42.3767 51.3213Z" fill="#192D68"/>
</svg>
