<svg width="100" height="100" viewBox="0 0 100 100" fill="none" xmlns="http://www.w3.org/2000/svg">
<path d="M60 50C60 47.3479 58.9464 44.8043 57.0711 42.929C55.1957 41.0536 52.6522 40 50 40C47.3478 40 44.8043 41.0536 42.9289 42.929C41.0536 44.8043 40 47.3479 40 50L50 50H60Z" fill="#D4EEF8"/>
<path d="M61.0001 49.8888C60.9988 47.8105 60.3903 45.7768 59.2479 44.033L58.1134 45.1568C58.9742 46.5882 59.4287 48.223 59.4286 49.8888H61.0001ZM59.4286 41.6553L58.3176 40.5555L51.5864 47.2187C51.1074 46.933 50.5593 46.7806 50.0001 46.7777C49.3785 46.7777 48.7708 46.9602 48.254 47.302C47.7372 47.6439 47.3343 48.1298 47.0964 48.6983C46.8586 49.2667 46.7963 49.8923 46.9176 50.4958C47.0389 51.0993 47.3382 51.6536 47.7777 52.0887C48.2173 52.5238 48.7773 52.8201 49.3869 52.9402C49.9966 53.0602 50.6285 52.9986 51.2028 52.7631C51.7771 52.5276 52.2679 52.1289 52.6133 51.6173C52.9586 51.1057 53.1429 50.5042 53.1429 49.8888C53.1401 49.335 52.9862 48.7921 52.6974 48.3177L59.4286 41.6553ZM50.0001 51.4444C49.6893 51.4444 49.3855 51.3532 49.127 51.1822C48.8686 51.0113 48.6672 50.7684 48.5483 50.4841C48.4293 50.1999 48.3982 49.8871 48.4588 49.5854C48.5195 49.2836 48.6691 49.0064 48.8889 48.7889C49.1087 48.5713 49.3887 48.4232 49.6935 48.3632C49.9983 48.3032 50.3143 48.334 50.6014 48.4517C50.8886 48.5694 51.134 48.7688 51.3067 49.0246C51.4793 49.2804 51.5715 49.5812 51.5715 49.8888C51.5711 50.3013 51.4054 50.6967 51.1108 50.9883C50.8162 51.28 50.4167 51.444 50.0001 51.4444ZM50.0001 40.5555C51.6825 40.5563 53.3336 41.0061 54.7796 41.8575L55.922 40.7274C54.2618 39.6705 52.3445 39.0762 50.3719 39.0068C48.3992 38.9374 46.4442 39.3956 44.7124 40.3332C42.9806 41.2708 41.5361 42.6531 40.5309 44.3347C39.5256 46.0162 38.9968 47.9349 39.0001 49.8888H40.5715C40.5744 47.4144 41.5687 45.0421 43.3363 43.2924C45.1039 41.5427 47.5004 40.5584 50.0001 40.5555Z" fill="#192D68"/>
<rect x="43.0001" y="56" width="2" height="3" fill="#192D68"/>
<rect x="46.0001" y="56" width="2" height="3" fill="#192D68"/>
<rect x="49.0001" y="56" width="2" height="3" fill="#192D68"/>
<rect x="52.0001" y="56" width="2" height="3" fill="#192D68"/>
<rect x="55.0001" y="56" width="2" height="3" fill="#192D68"/>
<path fill-rule="evenodd" clip-rule="evenodd" d="M47.7838 33.1432C39.4421 34.2292 33.0001 41.3623 33.0001 50C33.0001 59.3889 40.6112 67 50.0001 67C59.3889 67 67.0001 59.3889 67.0001 50C67.0001 41.3623 60.558 34.2292 52.2162 33.1432V35.1626C59.4497 36.2338 65.0001 42.4687 65.0001 50C65.0001 58.2843 58.2843 65 50.0001 65C41.7158 65 35.0001 58.2843 35.0001 50C35.0001 42.4687 40.5504 36.2338 47.7838 35.1626V33.1432Z" fill="#192D68"/>
<path d="M8 48.1351C8 48.6874 8.44772 49.1351 9 49.1351C9.55228 49.1351 10 48.6874 10 48.1351H8ZM10 52.5675C10 52.0152 9.55228 51.5675 9 51.5675C8.44772 51.5675 8 52.0152 8 52.5675H10ZM90 48.1351C90 48.6874 90.4477 49.1351 91 49.1351C91.5523 49.1351 92 48.6874 92 48.1351H90ZM92 52.5675C92 52.0152 91.5523 51.5675 91 51.5675C90.4477 51.5675 90 52.0152 90 52.5675H92ZM11 44H35.5V42H11V44ZM89 42H64.5V44H89V42ZM35 56H11V58H35V56ZM89 56H64V58H89V56ZM10 48.1351V45H8V48.1351H10ZM10 55V52.5675H8V55H10ZM90 45V48.1351H92V45H90ZM90 52.5675V55H92V52.5675H90ZM11 56C10.4477 56 10 55.5523 10 55H8C8 56.6569 9.34315 58 11 58V56ZM89 58C90.6569 58 92 56.6569 92 55H90C90 55.5523 89.5523 56 89 56V58ZM89 44C89.5523 44 90 44.4477 90 45H92C92 43.3431 90.6569 42 89 42V44ZM11 42C9.34314 42 8 43.3431 8 45H10C10 44.4477 10.4477 44 11 44V42Z" fill="#192D68"/>
<rect x="72.1621" y="37.054" width="5.54054" height="25.4865" rx="2.77027" fill="#192D68"/>
<rect x="22.2973" y="37.054" width="5.54054" height="25.4865" rx="2.77027" fill="#192D68"/>
<path d="M78.5458 33.4429C78.8229 33.9206 79.4348 34.0833 79.9126 33.8062C80.3903 33.5291 80.553 32.9172 80.2759 32.4394L78.5458 33.4429ZM19.5558 33.3197C19.6998 33.8528 20.2488 34.1683 20.782 34.0243L29.4706 31.6776C30.0038 31.5336 30.3193 30.9846 30.1753 30.4514C30.0313 29.9182 29.4823 29.6027 28.9491 29.7468L21.2259 31.8328L19.1399 24.1095C18.9959 23.5763 18.4469 23.2608 17.9137 23.4049C17.3806 23.5489 17.0651 24.0978 17.2091 24.631L19.5558 33.3197ZM80.2759 32.4394C77.1934 27.1249 72.7662 22.7154 67.4394 19.6542L66.4429 21.3882C71.4653 24.2745 75.6395 28.4321 78.5458 33.4429L80.2759 32.4394ZM67.4394 19.6542C62.1126 16.5929 56.0738 14.9878 49.9301 15.0001L49.9341 17.0001C55.7268 16.9885 61.4204 18.5019 66.4429 21.3882L67.4394 19.6542ZM49.9301 15.0001C43.7863 15.0124 37.754 16.6416 32.4395 19.7242L33.4429 21.4542C38.4538 18.5478 44.1414 17.0116 49.9341 17.0001L49.9301 15.0001ZM32.4395 19.7242C27.1249 22.8067 22.7155 27.2338 19.6542 32.5606L21.3883 33.5572C24.2746 28.5348 28.4321 24.3606 33.4429 21.4542L32.4395 19.7242Z" fill="#192D68"/>
<path d="M21.4542 66.5571C21.1771 66.0794 20.5652 65.9167 20.0874 66.1938C19.6097 66.4709 19.447 67.0829 19.7241 67.5606L21.4542 66.5571ZM80.4442 66.6804C80.3002 66.1472 79.7512 65.8317 79.218 65.9757L70.5294 68.3225C69.9962 68.4665 69.6807 69.0154 69.8247 69.5486C69.9687 70.0818 70.5177 70.3973 71.0509 70.2533L78.7741 68.1673L80.8601 75.8905C81.0041 76.4237 81.5531 76.7392 82.0863 76.5952C82.6194 76.4512 82.9349 75.9022 82.7909 75.369L80.4442 66.6804ZM19.7241 67.5606C22.8066 72.8751 27.2338 77.2846 32.5606 80.3458L33.5571 78.6118C28.5347 75.7255 24.3606 71.568 21.4542 66.5571L19.7241 67.5606ZM32.5606 80.3458C37.8874 83.4071 43.9262 85.0122 50.0699 85L50.0659 83C44.2732 83.0115 38.5796 81.4981 33.5571 78.6118L32.5606 80.3458ZM50.0699 85C56.2137 84.9877 62.246 83.3584 67.5605 80.2759L66.5571 78.5458C61.5462 81.4522 55.8586 82.9884 50.0659 83L50.0699 85ZM67.5605 80.2759C72.8751 77.1933 77.2845 72.7662 80.3458 67.4394L78.6117 66.4428C75.7254 71.4653 71.5679 75.6394 66.5571 78.5458L67.5605 80.2759Z" fill="#192D68"/>
</svg>
